<svg xmlns="http://www.w3.org/2000/svg" xmlns:xlink="http://www.w3.org/1999/xlink" width="300" zoomAndPan="magnify" viewBox="0 0 224.87999 225" height="300" preserveAspectRatio="xMidYMid meet" version="1.0"><defs><g/></defs><g fill="#ff0000" fill-opacity="1"><g transform="translate(22.305354, 163.550529)"><g><path d="M 53.640625 -40.34375 C 53.640625 -40.03125 53.523438 -39.757812 53.296875 -39.53125 C 53.078125 -39.3125 52.8125 -39.203125 52.5 -39.203125 L 46.703125 -39.203125 C 46.328125 -39.203125 46.140625 -39.046875 46.140625 -38.734375 L 44.53125 -27.34375 C 44.53125 -27.03125 44.65625 -26.875 44.90625 -26.875 L 49.265625 -26.875 C 49.585938 -26.875 49.859375 -26.757812 50.078125 -26.53125 C 50.296875 -26.3125 50.40625 -26.046875 50.40625 -25.734375 L 50.40625 -18.609375 C 50.40625 -18.296875 50.296875 -18.023438 50.078125 -17.796875 C 49.859375 -17.578125 49.585938 -17.46875 49.265625 -17.46875 L 43.484375 -17.46875 C 43.097656 -17.46875 42.90625 -17.3125 42.90625 -17 L 40.921875 -3.234375 C 40.859375 -2.535156 40.445312 -2.1875 39.6875 -2.1875 L 30.953125 -2.28125 C 30.191406 -2.28125 29.84375 -2.691406 29.90625 -3.515625 L 31.90625 -17 C 31.90625 -17.3125 31.773438 -17.46875 31.515625 -17.46875 L 21.546875 -17.46875 C 21.171875 -17.46875 20.984375 -17.3125 20.984375 -17 L 18.984375 -3.234375 C 18.921875 -2.535156 18.507812 -2.1875 17.75 -2.1875 L 9.015625 -2.28125 C 8.253906 -2.28125 7.90625 -2.691406 7.96875 -3.515625 L 9.96875 -17 C 9.96875 -17.3125 9.84375 -17.46875 9.59375 -17.46875 L 5.125 -17.46875 C 4.8125 -17.46875 4.539062 -17.578125 4.3125 -17.796875 C 4.09375 -18.023438 3.984375 -18.296875 3.984375 -18.609375 L 3.984375 -25.734375 C 3.984375 -26.046875 4.09375 -26.3125 4.3125 -26.53125 C 4.539062 -26.757812 4.8125 -26.875 5.125 -26.875 L 11.015625 -26.875 C 11.390625 -26.875 11.578125 -27.03125 11.578125 -27.34375 L 13.203125 -38.734375 C 13.203125 -39.046875 13.070312 -39.203125 12.8125 -39.203125 L 8.359375 -39.203125 C 8.035156 -39.203125 7.765625 -39.3125 7.546875 -39.53125 C 7.328125 -39.757812 7.21875 -40.03125 7.21875 -40.34375 L 7.21875 -47.5625 C 7.21875 -47.875 7.328125 -48.140625 7.546875 -48.359375 C 7.765625 -48.585938 8.035156 -48.703125 8.359375 -48.703125 L 14.234375 -48.703125 C 14.617188 -48.703125 14.8125 -48.859375 14.8125 -49.171875 L 16.796875 -62.9375 C 16.867188 -63.632812 17.28125 -63.984375 18.03125 -63.984375 L 26.765625 -63.890625 C 27.523438 -63.890625 27.875 -63.476562 27.8125 -62.65625 L 25.828125 -49.171875 C 25.828125 -48.859375 25.953125 -48.703125 26.203125 -48.703125 L 36.171875 -48.703125 C 36.546875 -48.703125 36.734375 -48.859375 36.734375 -49.171875 L 38.734375 -62.9375 C 38.796875 -63.632812 39.207031 -63.984375 39.96875 -63.984375 L 48.703125 -63.890625 C 49.460938 -63.890625 49.8125 -63.476562 49.75 -62.65625 L 47.75 -49.171875 C 47.75 -48.859375 47.878906 -48.703125 48.140625 -48.703125 L 52.5 -48.703125 C 52.8125 -48.703125 53.078125 -48.585938 53.296875 -48.359375 C 53.523438 -48.140625 53.640625 -47.875 53.640625 -47.5625 Z M 32.9375 -26.875 C 33.320312 -26.875 33.515625 -27.03125 33.515625 -27.34375 L 35.125 -38.734375 C 35.125 -39.046875 35 -39.203125 34.75 -39.203125 L 24.78125 -39.203125 C 24.394531 -39.203125 24.203125 -39.046875 24.203125 -38.734375 L 22.59375 -27.34375 C 22.59375 -27.03125 22.71875 -26.875 22.96875 -26.875 Z M 32.9375 -26.875 "/></g></g></g><g fill="#00ffff" fill-opacity="1"><g transform="translate(29.937925, 161.788413)"><g><path d="M 53.640625 -40.34375 C 53.640625 -40.03125 53.523438 -39.757812 53.296875 -39.53125 C 53.078125 -39.3125 52.8125 -39.203125 52.5 -39.203125 L 46.703125 -39.203125 C 46.328125 -39.203125 46.140625 -39.046875 46.140625 -38.734375 L 44.53125 -27.34375 C 44.53125 -27.03125 44.65625 -26.875 44.90625 -26.875 L 49.265625 -26.875 C 49.585938 -26.875 49.859375 -26.757812 50.078125 -26.53125 C 50.296875 -26.3125 50.40625 -26.046875 50.40625 -25.734375 L 50.40625 -18.609375 C 50.40625 -18.296875 50.296875 -18.023438 50.078125 -17.796875 C 49.859375 -17.578125 49.585938 -17.46875 49.265625 -17.46875 L 43.484375 -17.46875 C 43.097656 -17.46875 42.90625 -17.3125 42.90625 -17 L 40.921875 -3.234375 C 40.859375 -2.535156 40.445312 -2.1875 39.6875 -2.1875 L 30.953125 -2.28125 C 30.191406 -2.28125 29.84375 -2.691406 29.90625 -3.515625 L 31.90625 -17 C 31.90625 -17.3125 31.773438 -17.46875 31.515625 -17.46875 L 21.546875 -17.46875 C 21.171875 -17.46875 20.984375 -17.3125 20.984375 -17 L 18.984375 -3.234375 C 18.921875 -2.535156 18.507812 -2.1875 17.75 -2.1875 L 9.015625 -2.28125 C 8.253906 -2.28125 7.90625 -2.691406 7.96875 -3.515625 L 9.96875 -17 C 9.96875 -17.3125 9.84375 -17.46875 9.59375 -17.46875 L 5.125 -17.46875 C 4.8125 -17.46875 4.539062 -17.578125 4.3125 -17.796875 C 4.09375 -18.023438 3.984375 -18.296875 3.984375 -18.609375 L 3.984375 -25.734375 C 3.984375 -26.046875 4.09375 -26.3125 4.3125 -26.53125 C 4.539062 -26.757812 4.8125 -26.875 5.125 -26.875 L 11.015625 -26.875 C 11.390625 -26.875 11.578125 -27.03125 11.578125 -27.34375 L 13.203125 -38.734375 C 13.203125 -39.046875 13.070312 -39.203125 12.8125 -39.203125 L 8.359375 -39.203125 C 8.035156 -39.203125 7.765625 -39.3125 7.546875 -39.53125 C 7.328125 -39.757812 7.21875 -40.03125 7.21875 -40.34375 L 7.21875 -47.5625 C 7.21875 -47.875 7.328125 -48.140625 7.546875 -48.359375 C 7.765625 -48.585938 8.035156 -48.703125 8.359375 -48.703125 L 14.234375 -48.703125 C 14.617188 -48.703125 14.8125 -48.859375 14.8125 -49.171875 L 16.796875 -62.9375 C 16.867188 -63.632812 17.28125 -63.984375 18.03125 -63.984375 L 26.765625 -63.890625 C 27.523438 -63.890625 27.875 -63.476562 27.8125 -62.65625 L 25.828125 -49.171875 C 25.828125 -48.859375 25.953125 -48.703125 26.203125 -48.703125 L 36.171875 -48.703125 C 36.546875 -48.703125 36.734375 -48.859375 36.734375 -49.171875 L 38.734375 -62.9375 C 38.796875 -63.632812 39.207031 -63.984375 39.96875 -63.984375 L 48.703125 -63.890625 C 49.460938 -63.890625 49.8125 -63.476562 49.75 -62.65625 L 47.75 -49.171875 C 47.75 -48.859375 47.878906 -48.703125 48.140625 -48.703125 L 52.5 -48.703125 C 52.8125 -48.703125 53.078125 -48.585938 53.296875 -48.359375 C 53.523438 -48.140625 53.640625 -47.875 53.640625 -47.5625 Z M 32.9375 -26.875 C 33.320312 -26.875 33.515625 -27.03125 33.515625 -27.34375 L 35.125 -38.734375 C 35.125 -39.046875 35 -39.203125 34.75 -39.203125 L 24.78125 -39.203125 C 24.394531 -39.203125 24.203125 -39.046875 24.203125 -38.734375 L 22.59375 -27.34375 C 22.59375 -27.03125 22.71875 -26.875 22.96875 -26.875 Z M 32.9375 -26.875 "/></g></g></g><g fill="#191919" fill-opacity="1"><g transform="translate(26.12164, 162.66947)"><g><path d="M 53.640625 -40.34375 C 53.640625 -40.03125 53.523438 -39.757812 53.296875 -39.53125 C 53.078125 -39.3125 52.8125 -39.203125 52.5 -39.203125 L 46.703125 -39.203125 C 46.328125 -39.203125 46.140625 -39.046875 46.140625 -38.734375 L 44.53125 -27.34375 C 44.53125 -27.03125 44.65625 -26.875 44.90625 -26.875 L 49.265625 -26.875 C 49.585938 -26.875 49.859375 -26.757812 50.078125 -26.53125 C 50.296875 -26.3125 50.40625 -26.046875 50.40625 -25.734375 L 50.40625 -18.609375 C 50.40625 -18.296875 50.296875 -18.023438 50.078125 -17.796875 C 49.859375 -17.578125 49.585938 -17.46875 49.265625 -17.46875 L 43.484375 -17.46875 C 43.097656 -17.46875 42.90625 -17.3125 42.90625 -17 L 40.921875 -3.234375 C 40.859375 -2.535156 40.445312 -2.1875 39.6875 -2.1875 L 30.953125 -2.28125 C 30.191406 -2.28125 29.84375 -2.691406 29.90625 -3.515625 L 31.90625 -17 C 31.90625 -17.3125 31.773438 -17.46875 31.515625 -17.46875 L 21.546875 -17.46875 C 21.171875 -17.46875 20.984375 -17.3125 20.984375 -17 L 18.984375 -3.234375 C 18.921875 -2.535156 18.507812 -2.1875 17.75 -2.1875 L 9.015625 -2.28125 C 8.253906 -2.28125 7.90625 -2.691406 7.96875 -3.515625 L 9.96875 -17 C 9.96875 -17.3125 9.84375 -17.46875 9.59375 -17.46875 L 5.125 -17.46875 C 4.8125 -17.46875 4.539062 -17.578125 4.3125 -17.796875 C 4.09375 -18.023438 3.984375 -18.296875 3.984375 -18.609375 L 3.984375 -25.734375 C 3.984375 -26.046875 4.09375 -26.3125 4.3125 -26.53125 C 4.539062 -26.757812 4.8125 -26.875 5.125 -26.875 L 11.015625 -26.875 C 11.390625 -26.875 11.578125 -27.03125 11.578125 -27.34375 L 13.203125 -38.734375 C 13.203125 -39.046875 13.070312 -39.203125 12.8125 -39.203125 L 8.359375 -39.203125 C 8.035156 -39.203125 7.765625 -39.3125 7.546875 -39.53125 C 7.328125 -39.757812 7.21875 -40.03125 7.21875 -40.34375 L 7.21875 -47.5625 C 7.21875 -47.875 7.328125 -48.140625 7.546875 -48.359375 C 7.765625 -48.585938 8.035156 -48.703125 8.359375 -48.703125 L 14.234375 -48.703125 C 14.617188 -48.703125 14.8125 -48.859375 14.8125 -49.171875 L 16.796875 -62.9375 C 16.867188 -63.632812 17.28125 -63.984375 18.03125 -63.984375 L 26.765625 -63.890625 C 27.523438 -63.890625 27.875 -63.476562 27.8125 -62.65625 L 25.828125 -49.171875 C 25.828125 -48.859375 25.953125 -48.703125 26.203125 -48.703125 L 36.171875 -48.703125 C 36.546875 -48.703125 36.734375 -48.859375 36.734375 -49.171875 L 38.734375 -62.9375 C 38.796875 -63.632812 39.207031 -63.984375 39.96875 -63.984375 L 48.703125 -63.890625 C 49.460938 -63.890625 49.8125 -63.476562 49.75 -62.65625 L 47.75 -49.171875 C 47.75 -48.859375 47.878906 -48.703125 48.140625 -48.703125 L 52.5 -48.703125 C 52.8125 -48.703125 53.078125 -48.585938 53.296875 -48.359375 C 53.523438 -48.140625 53.640625 -47.875 53.640625 -47.5625 Z M 32.9375 -26.875 C 33.320312 -26.875 33.515625 -27.03125 33.515625 -27.34375 L 35.125 -38.734375 C 35.125 -39.046875 35 -39.203125 34.75 -39.203125 L 24.78125 -39.203125 C 24.394531 -39.203125 24.203125 -39.046875 24.203125 -38.734375 L 22.59375 -27.34375 C 22.59375 -27.03125 22.71875 -26.875 22.96875 -26.875 Z M 32.9375 -26.875 "/></g></g></g><g fill="#ff0000" fill-opacity="1"><g transform="translate(94.495652, 167.581367)"><g><path d="M 64.609375 -43.03125 C 65.109375 -43.03125 65.535156 -42.851562 65.890625 -42.5 C 66.242188 -42.15625 66.421875 -41.734375 66.421875 -41.234375 L 66.421875 -29.078125 C 66.421875 -28.578125 66.242188 -28.148438 65.890625 -27.796875 C 65.535156 -27.453125 65.109375 -27.28125 64.609375 -27.28125 L 60.125 -27.28125 C 59.625 -27.28125 59.375 -27.03125 59.375 -26.53125 L 59.375 -1.796875 C 59.375 -1.296875 59.195312 -0.867188 58.84375 -0.515625 C 58.488281 -0.171875 58.0625 0 57.5625 0 L 43.78125 0 C 43.28125 0 42.851562 -0.171875 42.5 -0.515625 C 42.15625 -0.867188 41.984375 -1.296875 41.984375 -1.796875 L 41.984375 -26.53125 C 41.984375 -27.03125 41.734375 -27.28125 41.234375 -27.28125 L 4.34375 -27.28125 C 3.84375 -27.28125 3.414062 -27.453125 3.0625 -27.796875 C 2.71875 -28.148438 2.546875 -28.578125 2.546875 -29.078125 L 2.546875 -38.828125 C 2.546875 -39.722656 2.644531 -40.472656 2.84375 -41.078125 L 23.6875 -103.453125 C 23.988281 -104.453125 24.640625 -104.953125 25.640625 -104.953125 L 40.625 -104.953125 C 41.226562 -104.953125 41.675781 -104.773438 41.96875 -104.421875 C 42.269531 -104.066406 42.320312 -103.539062 42.125 -102.84375 L 22.9375 -43.921875 C 22.832031 -43.328125 23.03125 -43.03125 23.53125 -43.03125 L 41.234375 -43.03125 C 41.734375 -43.03125 41.984375 -43.28125 41.984375 -43.78125 L 41.984375 -61.765625 C 41.984375 -62.265625 42.15625 -62.6875 42.5 -63.03125 C 42.851562 -63.382812 43.28125 -63.5625 43.78125 -63.5625 L 57.5625 -63.5625 C 58.0625 -63.5625 58.488281 -63.382812 58.84375 -63.03125 C 59.195312 -62.6875 59.375 -62.265625 59.375 -61.765625 L 59.375 -43.78125 C 59.375 -43.28125 59.625 -43.03125 60.125 -43.03125 Z M 64.609375 -43.03125 "/></g></g></g><g fill="#00ffff" fill-opacity="1"><g transform="translate(106.547051, 164.799084)"><g><path d="M 64.609375 -43.03125 C 65.109375 -43.03125 65.535156 -42.851562 65.890625 -42.5 C 66.242188 -42.15625 66.421875 -41.734375 66.421875 -41.234375 L 66.421875 -29.078125 C 66.421875 -28.578125 66.242188 -28.148438 65.890625 -27.796875 C 65.535156 -27.453125 65.109375 -27.28125 64.609375 -27.28125 L 60.125 -27.28125 C 59.625 -27.28125 59.375 -27.03125 59.375 -26.53125 L 59.375 -1.796875 C 59.375 -1.296875 59.195312 -0.867188 58.84375 -0.515625 C 58.488281 -0.171875 58.0625 0 57.5625 0 L 43.78125 0 C 43.28125 0 42.851562 -0.171875 42.5 -0.515625 C 42.15625 -0.867188 41.984375 -1.296875 41.984375 -1.796875 L 41.984375 -26.53125 C 41.984375 -27.03125 41.734375 -27.28125 41.234375 -27.28125 L 4.34375 -27.28125 C 3.84375 -27.28125 3.414062 -27.453125 3.0625 -27.796875 C 2.71875 -28.148438 2.546875 -28.578125 2.546875 -29.078125 L 2.546875 -38.828125 C 2.546875 -39.722656 2.644531 -40.472656 2.84375 -41.078125 L 23.6875 -103.453125 C 23.988281 -104.453125 24.640625 -104.953125 25.640625 -104.953125 L 40.625 -104.953125 C 41.226562 -104.953125 41.675781 -104.773438 41.96875 -104.421875 C 42.269531 -104.066406 42.320312 -103.539062 42.125 -102.84375 L 22.9375 -43.921875 C 22.832031 -43.328125 23.03125 -43.03125 23.53125 -43.03125 L 41.234375 -43.03125 C 41.734375 -43.03125 41.984375 -43.28125 41.984375 -43.78125 L 41.984375 -61.765625 C 41.984375 -62.265625 42.15625 -62.6875 42.5 -63.03125 C 42.851562 -63.382812 43.28125 -63.5625 43.78125 -63.5625 L 57.5625 -63.5625 C 58.0625 -63.5625 58.488281 -63.382812 58.84375 -63.03125 C 59.195312 -62.6875 59.375 -62.265625 59.375 -61.765625 L 59.375 -43.78125 C 59.375 -43.28125 59.625 -43.03125 60.125 -43.03125 Z M 64.609375 -43.03125 "/></g></g></g><g fill="#191919" fill-opacity="1"><g transform="translate(100.521351, 166.190224)"><g><path d="M 64.609375 -43.03125 C 65.109375 -43.03125 65.535156 -42.851562 65.890625 -42.5 C 66.242188 -42.15625 66.421875 -41.734375 66.421875 -41.234375 L 66.421875 -29.078125 C 66.421875 -28.578125 66.242188 -28.148438 65.890625 -27.796875 C 65.535156 -27.453125 65.109375 -27.28125 64.609375 -27.28125 L 60.125 -27.28125 C 59.625 -27.28125 59.375 -27.03125 59.375 -26.53125 L 59.375 -1.796875 C 59.375 -1.296875 59.195312 -0.867188 58.84375 -0.515625 C 58.488281 -0.171875 58.0625 0 57.5625 0 L 43.78125 0 C 43.28125 0 42.851562 -0.171875 42.5 -0.515625 C 42.15625 -0.867188 41.984375 -1.296875 41.984375 -1.796875 L 41.984375 -26.53125 C 41.984375 -27.03125 41.734375 -27.28125 41.234375 -27.28125 L 4.34375 -27.28125 C 3.84375 -27.28125 3.414062 -27.453125 3.0625 -27.796875 C 2.71875 -28.148438 2.546875 -28.578125 2.546875 -29.078125 L 2.546875 -38.828125 C 2.546875 -39.722656 2.644531 -40.472656 2.84375 -41.078125 L 23.6875 -103.453125 C 23.988281 -104.453125 24.640625 -104.953125 25.640625 -104.953125 L 40.625 -104.953125 C 41.226562 -104.953125 41.675781 -104.773438 41.96875 -104.421875 C 42.269531 -104.066406 42.320312 -103.539062 42.125 -102.84375 L 22.9375 -43.921875 C 22.832031 -43.328125 23.03125 -43.03125 23.53125 -43.03125 L 41.234375 -43.03125 C 41.734375 -43.03125 41.984375 -43.28125 41.984375 -43.78125 L 41.984375 -61.765625 C 41.984375 -62.265625 42.15625 -62.6875 42.5 -63.03125 C 42.851562 -63.382812 43.28125 -63.5625 43.78125 -63.5625 L 57.5625 -63.5625 C 58.0625 -63.5625 58.488281 -63.382812 58.84375 -63.03125 C 59.195312 -62.6875 59.375 -62.265625 59.375 -61.765625 L 59.375 -43.78125 C 59.375 -43.28125 59.625 -43.03125 60.125 -43.03125 Z M 64.609375 -43.03125 "/></g></g></g></svg>