<svg xmlns="http://www.w3.org/2000/svg" xmlns:xlink="http://www.w3.org/1999/xlink" width="300" zoomAndPan="magnify" viewBox="0 0 224.87999 225" height="300" preserveAspectRatio="xMidYMid meet" version="1.0"><defs><g/></defs><g fill="#ff0000" fill-opacity="1"><g transform="translate(22.305354, 163.550543)"><g><path d="M 53.640625 -40.34375 C 53.640625 -40.03125 53.523438 -39.757812 53.296875 -39.53125 C 53.078125 -39.3125 52.8125 -39.203125 52.5 -39.203125 L 46.703125 -39.203125 C 46.328125 -39.203125 46.140625 -39.046875 46.140625 -38.734375 L 44.53125 -27.34375 C 44.53125 -27.03125 44.65625 -26.875 44.90625 -26.875 L 49.265625 -26.875 C 49.585938 -26.875 49.859375 -26.757812 50.078125 -26.53125 C 50.296875 -26.3125 50.40625 -26.046875 50.40625 -25.734375 L 50.40625 -18.609375 C 50.40625 -18.296875 50.296875 -18.023438 50.078125 -17.796875 C 49.859375 -17.578125 49.585938 -17.46875 49.265625 -17.46875 L 43.484375 -17.46875 C 43.097656 -17.46875 42.90625 -17.3125 42.90625 -17 L 40.921875 -3.234375 C 40.859375 -2.535156 40.445312 -2.1875 39.6875 -2.1875 L 30.953125 -2.28125 C 30.191406 -2.28125 29.84375 -2.691406 29.90625 -3.515625 L 31.90625 -17 C 31.90625 -17.3125 31.773438 -17.46875 31.515625 -17.46875 L 21.546875 -17.46875 C 21.171875 -17.46875 20.984375 -17.3125 20.984375 -17 L 18.984375 -3.234375 C 18.921875 -2.535156 18.507812 -2.1875 17.75 -2.1875 L 9.015625 -2.28125 C 8.253906 -2.28125 7.90625 -2.691406 7.96875 -3.515625 L 9.96875 -17 C 9.96875 -17.3125 9.84375 -17.46875 9.59375 -17.46875 L 5.125 -17.46875 C 4.8125 -17.46875 4.539062 -17.578125 4.3125 -17.796875 C 4.09375 -18.023438 3.984375 -18.296875 3.984375 -18.609375 L 3.984375 -25.734375 C 3.984375 -26.046875 4.09375 -26.3125 4.3125 -26.53125 C 4.539062 -26.757812 4.8125 -26.875 5.125 -26.875 L 11.015625 -26.875 C 11.390625 -26.875 11.578125 -27.03125 11.578125 -27.34375 L 13.203125 -38.734375 C 13.203125 -39.046875 13.070312 -39.203125 12.8125 -39.203125 L 8.359375 -39.203125 C 8.035156 -39.203125 7.765625 -39.3125 7.546875 -39.53125 C 7.328125 -39.757812 7.21875 -40.03125 7.21875 -40.34375 L 7.21875 -47.5625 C 7.21875 -47.875 7.328125 -48.140625 7.546875 -48.359375 C 7.765625 -48.585938 8.035156 -48.703125 8.359375 -48.703125 L 14.234375 -48.703125 C 14.617188 -48.703125 14.8125 -48.859375 14.8125 -49.171875 L 16.796875 -62.9375 C 16.867188 -63.632812 17.28125 -63.984375 18.03125 -63.984375 L 26.765625 -63.890625 C 27.523438 -63.890625 27.875 -63.476562 27.8125 -62.65625 L 25.828125 -49.171875 C 25.828125 -48.859375 25.953125 -48.703125 26.203125 -48.703125 L 36.171875 -48.703125 C 36.546875 -48.703125 36.734375 -48.859375 36.734375 -49.171875 L 38.734375 -62.9375 C 38.796875 -63.632812 39.207031 -63.984375 39.96875 -63.984375 L 48.703125 -63.890625 C 49.460938 -63.890625 49.8125 -63.476562 49.75 -62.65625 L 47.75 -49.171875 C 47.75 -48.859375 47.878906 -48.703125 48.140625 -48.703125 L 52.5 -48.703125 C 52.8125 -48.703125 53.078125 -48.585938 53.296875 -48.359375 C 53.523438 -48.140625 53.640625 -47.875 53.640625 -47.5625 Z M 32.9375 -26.875 C 33.320312 -26.875 33.515625 -27.03125 33.515625 -27.34375 L 35.125 -38.734375 C 35.125 -39.046875 35 -39.203125 34.75 -39.203125 L 24.78125 -39.203125 C 24.394531 -39.203125 24.203125 -39.046875 24.203125 -38.734375 L 22.59375 -27.34375 C 22.59375 -27.03125 22.71875 -26.875 22.96875 -26.875 Z M 32.9375 -26.875 "/></g></g></g><g fill="#00ffff" fill-opacity="1"><g transform="translate(29.937925, 161.788427)"><g><path d="M 53.640625 -40.34375 C 53.640625 -40.03125 53.523438 -39.757812 53.296875 -39.53125 C 53.078125 -39.3125 52.8125 -39.203125 52.5 -39.203125 L 46.703125 -39.203125 C 46.328125 -39.203125 46.140625 -39.046875 46.140625 -38.734375 L 44.53125 -27.34375 C 44.53125 -27.03125 44.65625 -26.875 44.90625 -26.875 L 49.265625 -26.875 C 49.585938 -26.875 49.859375 -26.757812 50.078125 -26.53125 C 50.296875 -26.3125 50.40625 -26.046875 50.40625 -25.734375 L 50.40625 -18.609375 C 50.40625 -18.296875 50.296875 -18.023438 50.078125 -17.796875 C 49.859375 -17.578125 49.585938 -17.46875 49.265625 -17.46875 L 43.484375 -17.46875 C 43.097656 -17.46875 42.90625 -17.3125 42.90625 -17 L 40.921875 -3.234375 C 40.859375 -2.535156 40.445312 -2.1875 39.6875 -2.1875 L 30.953125 -2.28125 C 30.191406 -2.28125 29.84375 -2.691406 29.90625 -3.515625 L 31.90625 -17 C 31.90625 -17.3125 31.773438 -17.46875 31.515625 -17.46875 L 21.546875 -17.46875 C 21.171875 -17.46875 20.984375 -17.3125 20.984375 -17 L 18.984375 -3.234375 C 18.921875 -2.535156 18.507812 -2.1875 17.75 -2.1875 L 9.015625 -2.28125 C 8.253906 -2.28125 7.90625 -2.691406 7.96875 -3.515625 L 9.96875 -17 C 9.96875 -17.3125 9.84375 -17.46875 9.59375 -17.46875 L 5.125 -17.46875 C 4.8125 -17.46875 4.539062 -17.578125 4.3125 -17.796875 C 4.09375 -18.023438 3.984375 -18.296875 3.984375 -18.609375 L 3.984375 -25.734375 C 3.984375 -26.046875 4.09375 -26.3125 4.3125 -26.53125 C 4.539062 -26.757812 4.8125 -26.875 5.125 -26.875 L 11.015625 -26.875 C 11.390625 -26.875 11.578125 -27.03125 11.578125 -27.34375 L 13.203125 -38.734375 C 13.203125 -39.046875 13.070312 -39.203125 12.8125 -39.203125 L 8.359375 -39.203125 C 8.035156 -39.203125 7.765625 -39.3125 7.546875 -39.53125 C 7.328125 -39.757812 7.21875 -40.03125 7.21875 -40.34375 L 7.21875 -47.5625 C 7.21875 -47.875 7.328125 -48.140625 7.546875 -48.359375 C 7.765625 -48.585938 8.035156 -48.703125 8.359375 -48.703125 L 14.234375 -48.703125 C 14.617188 -48.703125 14.8125 -48.859375 14.8125 -49.171875 L 16.796875 -62.9375 C 16.867188 -63.632812 17.28125 -63.984375 18.03125 -63.984375 L 26.765625 -63.890625 C 27.523438 -63.890625 27.875 -63.476562 27.8125 -62.65625 L 25.828125 -49.171875 C 25.828125 -48.859375 25.953125 -48.703125 26.203125 -48.703125 L 36.171875 -48.703125 C 36.546875 -48.703125 36.734375 -48.859375 36.734375 -49.171875 L 38.734375 -62.9375 C 38.796875 -63.632812 39.207031 -63.984375 39.96875 -63.984375 L 48.703125 -63.890625 C 49.460938 -63.890625 49.8125 -63.476562 49.75 -62.65625 L 47.75 -49.171875 C 47.75 -48.859375 47.878906 -48.703125 48.140625 -48.703125 L 52.5 -48.703125 C 52.8125 -48.703125 53.078125 -48.585938 53.296875 -48.359375 C 53.523438 -48.140625 53.640625 -47.875 53.640625 -47.5625 Z M 32.9375 -26.875 C 33.320312 -26.875 33.515625 -27.03125 33.515625 -27.34375 L 35.125 -38.734375 C 35.125 -39.046875 35 -39.203125 34.75 -39.203125 L 24.78125 -39.203125 C 24.394531 -39.203125 24.203125 -39.046875 24.203125 -38.734375 L 22.59375 -27.34375 C 22.59375 -27.03125 22.71875 -26.875 22.96875 -26.875 Z M 32.9375 -26.875 "/></g></g></g><g fill="#191919" fill-opacity="1"><g transform="translate(26.12164, 162.669484)"><g><path d="M 53.640625 -40.34375 C 53.640625 -40.03125 53.523438 -39.757812 53.296875 -39.53125 C 53.078125 -39.3125 52.8125 -39.203125 52.5 -39.203125 L 46.703125 -39.203125 C 46.328125 -39.203125 46.140625 -39.046875 46.140625 -38.734375 L 44.53125 -27.34375 C 44.53125 -27.03125 44.65625 -26.875 44.90625 -26.875 L 49.265625 -26.875 C 49.585938 -26.875 49.859375 -26.757812 50.078125 -26.53125 C 50.296875 -26.3125 50.40625 -26.046875 50.40625 -25.734375 L 50.40625 -18.609375 C 50.40625 -18.296875 50.296875 -18.023438 50.078125 -17.796875 C 49.859375 -17.578125 49.585938 -17.46875 49.265625 -17.46875 L 43.484375 -17.46875 C 43.097656 -17.46875 42.90625 -17.3125 42.90625 -17 L 40.921875 -3.234375 C 40.859375 -2.535156 40.445312 -2.1875 39.6875 -2.1875 L 30.953125 -2.28125 C 30.191406 -2.28125 29.84375 -2.691406 29.90625 -3.515625 L 31.90625 -17 C 31.90625 -17.3125 31.773438 -17.46875 31.515625 -17.46875 L 21.546875 -17.46875 C 21.171875 -17.46875 20.984375 -17.3125 20.984375 -17 L 18.984375 -3.234375 C 18.921875 -2.535156 18.507812 -2.1875 17.75 -2.1875 L 9.015625 -2.28125 C 8.253906 -2.28125 7.90625 -2.691406 7.96875 -3.515625 L 9.96875 -17 C 9.96875 -17.3125 9.84375 -17.46875 9.59375 -17.46875 L 5.125 -17.46875 C 4.8125 -17.46875 4.539062 -17.578125 4.3125 -17.796875 C 4.09375 -18.023438 3.984375 -18.296875 3.984375 -18.609375 L 3.984375 -25.734375 C 3.984375 -26.046875 4.09375 -26.3125 4.3125 -26.53125 C 4.539062 -26.757812 4.8125 -26.875 5.125 -26.875 L 11.015625 -26.875 C 11.390625 -26.875 11.578125 -27.03125 11.578125 -27.34375 L 13.203125 -38.734375 C 13.203125 -39.046875 13.070312 -39.203125 12.8125 -39.203125 L 8.359375 -39.203125 C 8.035156 -39.203125 7.765625 -39.3125 7.546875 -39.53125 C 7.328125 -39.757812 7.21875 -40.03125 7.21875 -40.34375 L 7.21875 -47.5625 C 7.21875 -47.875 7.328125 -48.140625 7.546875 -48.359375 C 7.765625 -48.585938 8.035156 -48.703125 8.359375 -48.703125 L 14.234375 -48.703125 C 14.617188 -48.703125 14.8125 -48.859375 14.8125 -49.171875 L 16.796875 -62.9375 C 16.867188 -63.632812 17.28125 -63.984375 18.03125 -63.984375 L 26.765625 -63.890625 C 27.523438 -63.890625 27.875 -63.476562 27.8125 -62.65625 L 25.828125 -49.171875 C 25.828125 -48.859375 25.953125 -48.703125 26.203125 -48.703125 L 36.171875 -48.703125 C 36.546875 -48.703125 36.734375 -48.859375 36.734375 -49.171875 L 38.734375 -62.9375 C 38.796875 -63.632812 39.207031 -63.984375 39.96875 -63.984375 L 48.703125 -63.890625 C 49.460938 -63.890625 49.8125 -63.476562 49.75 -62.65625 L 47.75 -49.171875 C 47.75 -48.859375 47.878906 -48.703125 48.140625 -48.703125 L 52.5 -48.703125 C 52.8125 -48.703125 53.078125 -48.585938 53.296875 -48.359375 C 53.523438 -48.140625 53.640625 -47.875 53.640625 -47.5625 Z M 32.9375 -26.875 C 33.320312 -26.875 33.515625 -27.03125 33.515625 -27.34375 L 35.125 -38.734375 C 35.125 -39.046875 35 -39.203125 34.75 -39.203125 L 24.78125 -39.203125 C 24.394531 -39.203125 24.203125 -39.046875 24.203125 -38.734375 L 22.59375 -27.34375 C 22.59375 -27.03125 22.71875 -26.875 22.96875 -26.875 Z M 32.9375 -26.875 "/></g></g></g><g fill="#ff0000" fill-opacity="1"><g transform="translate(96.814727, 167.581403)"><g><path d="M 59.0625 -43.484375 C 59.664062 -40.378906 59.96875 -36.679688 59.96875 -32.390625 C 59.96875 -28.285156 59.769531 -24.785156 59.375 -21.890625 C 58.875 -14.492188 56.273438 -8.796875 51.578125 -4.796875 C 46.878906 -0.796875 40.628906 1.203125 32.828125 1.203125 C 25.429688 1.203125 19.4375 -0.691406 14.84375 -4.484375 C 10.25 -8.285156 7.453125 -13.988281 6.453125 -21.59375 L 6 -25.78125 C 6 -26.976562 6.597656 -27.578125 7.796875 -27.578125 L 21.59375 -27.578125 C 22.789062 -27.578125 23.4375 -26.976562 23.53125 -25.78125 C 23.53125 -25.1875 23.632812 -24.289062 23.84375 -23.09375 C 25.039062 -16.894531 28.035156 -13.796875 32.828125 -13.796875 C 35.328125 -13.796875 37.351562 -14.59375 38.90625 -16.1875 C 40.457031 -17.789062 41.484375 -20.039062 41.984375 -22.9375 C 42.378906 -25.4375 42.578125 -28.632812 42.578125 -32.53125 C 42.578125 -36.226562 42.273438 -39.425781 41.671875 -42.125 C 41.171875 -44.726562 40.144531 -46.753906 38.59375 -48.203125 C 37.050781 -49.648438 35.128906 -50.375 32.828125 -50.375 C 28.035156 -50.375 24.9375 -48.078125 23.53125 -43.484375 C 23.238281 -42.378906 22.59375 -41.828125 21.59375 -41.828125 L 7.640625 -41.828125 C 7.140625 -41.828125 6.710938 -42 6.359375 -42.34375 C 6.015625 -42.695312 5.84375 -43.125 5.84375 -43.625 L 5.84375 -103.140625 C 5.84375 -103.640625 6.015625 -104.066406 6.359375 -104.421875 C 6.710938 -104.773438 7.140625 -104.953125 7.640625 -104.953125 L 56.515625 -104.953125 C 57.015625 -104.953125 57.4375 -104.773438 57.78125 -104.421875 C 58.132812 -104.066406 58.3125 -103.640625 58.3125 -103.140625 L 58.3125 -91.75 C 58.3125 -91.25 58.132812 -90.820312 57.78125 -90.46875 C 57.4375 -90.125 57.015625 -89.953125 56.515625 -89.953125 L 23.984375 -89.953125 C 23.484375 -89.953125 23.234375 -89.703125 23.234375 -89.203125 L 23.234375 -59.96875 C 23.234375 -59.664062 23.332031 -59.488281 23.53125 -59.4375 C 23.738281 -59.394531 23.941406 -59.472656 24.140625 -59.671875 C 25.835938 -61.472656 27.910156 -62.894531 30.359375 -63.9375 C 32.804688 -64.988281 35.378906 -65.515625 38.078125 -65.515625 C 44.078125 -65.515625 48.898438 -63.585938 52.546875 -59.734375 C 56.191406 -55.890625 58.363281 -50.472656 59.0625 -43.484375 Z M 59.0625 -43.484375 "/></g></g></g><g fill="#00ffff" fill-opacity="1"><g transform="translate(108.866125, 164.79912)"><g><path d="M 59.0625 -43.484375 C 59.664062 -40.378906 59.96875 -36.679688 59.96875 -32.390625 C 59.96875 -28.285156 59.769531 -24.785156 59.375 -21.890625 C 58.875 -14.492188 56.273438 -8.796875 51.578125 -4.796875 C 46.878906 -0.796875 40.628906 1.203125 32.828125 1.203125 C 25.429688 1.203125 19.4375 -0.691406 14.84375 -4.484375 C 10.25 -8.285156 7.453125 -13.988281 6.453125 -21.59375 L 6 -25.78125 C 6 -26.976562 6.597656 -27.578125 7.796875 -27.578125 L 21.59375 -27.578125 C 22.789062 -27.578125 23.4375 -26.976562 23.53125 -25.78125 C 23.53125 -25.1875 23.632812 -24.289062 23.84375 -23.09375 C 25.039062 -16.894531 28.035156 -13.796875 32.828125 -13.796875 C 35.328125 -13.796875 37.351562 -14.59375 38.90625 -16.1875 C 40.457031 -17.789062 41.484375 -20.039062 41.984375 -22.9375 C 42.378906 -25.4375 42.578125 -28.632812 42.578125 -32.53125 C 42.578125 -36.226562 42.273438 -39.425781 41.671875 -42.125 C 41.171875 -44.726562 40.144531 -46.753906 38.59375 -48.203125 C 37.050781 -49.648438 35.128906 -50.375 32.828125 -50.375 C 28.035156 -50.375 24.9375 -48.078125 23.53125 -43.484375 C 23.238281 -42.378906 22.59375 -41.828125 21.59375 -41.828125 L 7.640625 -41.828125 C 7.140625 -41.828125 6.710938 -42 6.359375 -42.34375 C 6.015625 -42.695312 5.84375 -43.125 5.84375 -43.625 L 5.84375 -103.140625 C 5.84375 -103.640625 6.015625 -104.066406 6.359375 -104.421875 C 6.710938 -104.773438 7.140625 -104.953125 7.640625 -104.953125 L 56.515625 -104.953125 C 57.015625 -104.953125 57.4375 -104.773438 57.78125 -104.421875 C 58.132812 -104.066406 58.3125 -103.640625 58.3125 -103.140625 L 58.3125 -91.75 C 58.3125 -91.25 58.132812 -90.820312 57.78125 -90.46875 C 57.4375 -90.125 57.015625 -89.953125 56.515625 -89.953125 L 23.984375 -89.953125 C 23.484375 -89.953125 23.234375 -89.703125 23.234375 -89.203125 L 23.234375 -59.96875 C 23.234375 -59.664062 23.332031 -59.488281 23.53125 -59.4375 C 23.738281 -59.394531 23.941406 -59.472656 24.140625 -59.671875 C 25.835938 -61.472656 27.910156 -62.894531 30.359375 -63.9375 C 32.804688 -64.988281 35.378906 -65.515625 38.078125 -65.515625 C 44.078125 -65.515625 48.898438 -63.585938 52.546875 -59.734375 C 56.191406 -55.890625 58.363281 -50.472656 59.0625 -43.484375 Z M 59.0625 -43.484375 "/></g></g></g><g fill="#191919" fill-opacity="1"><g transform="translate(102.840426, 166.190263)"><g><path d="M 59.0625 -43.484375 C 59.664062 -40.378906 59.96875 -36.679688 59.96875 -32.390625 C 59.96875 -28.285156 59.769531 -24.785156 59.375 -21.890625 C 58.875 -14.492188 56.273438 -8.796875 51.578125 -4.796875 C 46.878906 -0.796875 40.628906 1.203125 32.828125 1.203125 C 25.429688 1.203125 19.4375 -0.691406 14.84375 -4.484375 C 10.25 -8.285156 7.453125 -13.988281 6.453125 -21.59375 L 6 -25.78125 C 6 -26.976562 6.597656 -27.578125 7.796875 -27.578125 L 21.59375 -27.578125 C 22.789062 -27.578125 23.4375 -26.976562 23.53125 -25.78125 C 23.53125 -25.1875 23.632812 -24.289062 23.84375 -23.09375 C 25.039062 -16.894531 28.035156 -13.796875 32.828125 -13.796875 C 35.328125 -13.796875 37.351562 -14.59375 38.90625 -16.1875 C 40.457031 -17.789062 41.484375 -20.039062 41.984375 -22.9375 C 42.378906 -25.4375 42.578125 -28.632812 42.578125 -32.53125 C 42.578125 -36.226562 42.273438 -39.425781 41.671875 -42.125 C 41.171875 -44.726562 40.144531 -46.753906 38.59375 -48.203125 C 37.050781 -49.648438 35.128906 -50.375 32.828125 -50.375 C 28.035156 -50.375 24.9375 -48.078125 23.53125 -43.484375 C 23.238281 -42.378906 22.59375 -41.828125 21.59375 -41.828125 L 7.640625 -41.828125 C 7.140625 -41.828125 6.710938 -42 6.359375 -42.34375 C 6.015625 -42.695312 5.84375 -43.125 5.84375 -43.625 L 5.84375 -103.140625 C 5.84375 -103.640625 6.015625 -104.066406 6.359375 -104.421875 C 6.710938 -104.773438 7.140625 -104.953125 7.640625 -104.953125 L 56.515625 -104.953125 C 57.015625 -104.953125 57.4375 -104.773438 57.78125 -104.421875 C 58.132812 -104.066406 58.3125 -103.640625 58.3125 -103.140625 L 58.3125 -91.75 C 58.3125 -91.25 58.132812 -90.820312 57.78125 -90.46875 C 57.4375 -90.125 57.015625 -89.953125 56.515625 -89.953125 L 23.984375 -89.953125 C 23.484375 -89.953125 23.234375 -89.703125 23.234375 -89.203125 L 23.234375 -59.96875 C 23.234375 -59.664062 23.332031 -59.488281 23.53125 -59.4375 C 23.738281 -59.394531 23.941406 -59.472656 24.140625 -59.671875 C 25.835938 -61.472656 27.910156 -62.894531 30.359375 -63.9375 C 32.804688 -64.988281 35.378906 -65.515625 38.078125 -65.515625 C 44.078125 -65.515625 48.898438 -63.585938 52.546875 -59.734375 C 56.191406 -55.890625 58.363281 -50.472656 59.0625 -43.484375 Z M 59.0625 -43.484375 "/></g></g></g></svg>