<svg xmlns="http://www.w3.org/2000/svg" xmlns:xlink="http://www.w3.org/1999/xlink" width="300" zoomAndPan="magnify" viewBox="0 0 224.87999 225" height="300" preserveAspectRatio="xMidYMid meet" version="1.0"><defs><g/></defs><g fill="#ff0000" fill-opacity="1"><g transform="translate(22.305354, 163.550529)"><g><path d="M 53.640625 -40.34375 C 53.640625 -40.03125 53.523438 -39.757812 53.296875 -39.53125 C 53.078125 -39.3125 52.8125 -39.203125 52.5 -39.203125 L 46.703125 -39.203125 C 46.328125 -39.203125 46.140625 -39.046875 46.140625 -38.734375 L 44.53125 -27.34375 C 44.53125 -27.03125 44.65625 -26.875 44.90625 -26.875 L 49.265625 -26.875 C 49.585938 -26.875 49.859375 -26.757812 50.078125 -26.53125 C 50.296875 -26.3125 50.40625 -26.046875 50.40625 -25.734375 L 50.40625 -18.609375 C 50.40625 -18.296875 50.296875 -18.023438 50.078125 -17.796875 C 49.859375 -17.578125 49.585938 -17.46875 49.265625 -17.46875 L 43.484375 -17.46875 C 43.097656 -17.46875 42.90625 -17.3125 42.90625 -17 L 40.921875 -3.234375 C 40.859375 -2.535156 40.445312 -2.1875 39.6875 -2.1875 L 30.953125 -2.28125 C 30.191406 -2.28125 29.84375 -2.691406 29.90625 -3.515625 L 31.90625 -17 C 31.90625 -17.3125 31.773438 -17.46875 31.515625 -17.46875 L 21.546875 -17.46875 C 21.171875 -17.46875 20.984375 -17.3125 20.984375 -17 L 18.984375 -3.234375 C 18.921875 -2.535156 18.507812 -2.1875 17.75 -2.1875 L 9.015625 -2.28125 C 8.253906 -2.28125 7.90625 -2.691406 7.96875 -3.515625 L 9.96875 -17 C 9.96875 -17.3125 9.84375 -17.46875 9.59375 -17.46875 L 5.125 -17.46875 C 4.8125 -17.46875 4.539062 -17.578125 4.3125 -17.796875 C 4.09375 -18.023438 3.984375 -18.296875 3.984375 -18.609375 L 3.984375 -25.734375 C 3.984375 -26.046875 4.09375 -26.3125 4.3125 -26.53125 C 4.539062 -26.757812 4.8125 -26.875 5.125 -26.875 L 11.015625 -26.875 C 11.390625 -26.875 11.578125 -27.03125 11.578125 -27.34375 L 13.203125 -38.734375 C 13.203125 -39.046875 13.070312 -39.203125 12.8125 -39.203125 L 8.359375 -39.203125 C 8.035156 -39.203125 7.765625 -39.3125 7.546875 -39.53125 C 7.328125 -39.757812 7.21875 -40.03125 7.21875 -40.34375 L 7.21875 -47.5625 C 7.21875 -47.875 7.328125 -48.140625 7.546875 -48.359375 C 7.765625 -48.585938 8.035156 -48.703125 8.359375 -48.703125 L 14.234375 -48.703125 C 14.617188 -48.703125 14.8125 -48.859375 14.8125 -49.171875 L 16.796875 -62.9375 C 16.867188 -63.632812 17.28125 -63.984375 18.03125 -63.984375 L 26.765625 -63.890625 C 27.523438 -63.890625 27.875 -63.476562 27.8125 -62.65625 L 25.828125 -49.171875 C 25.828125 -48.859375 25.953125 -48.703125 26.203125 -48.703125 L 36.171875 -48.703125 C 36.546875 -48.703125 36.734375 -48.859375 36.734375 -49.171875 L 38.734375 -62.9375 C 38.796875 -63.632812 39.207031 -63.984375 39.96875 -63.984375 L 48.703125 -63.890625 C 49.460938 -63.890625 49.8125 -63.476562 49.75 -62.65625 L 47.75 -49.171875 C 47.75 -48.859375 47.878906 -48.703125 48.140625 -48.703125 L 52.5 -48.703125 C 52.8125 -48.703125 53.078125 -48.585938 53.296875 -48.359375 C 53.523438 -48.140625 53.640625 -47.875 53.640625 -47.5625 Z M 32.9375 -26.875 C 33.320312 -26.875 33.515625 -27.03125 33.515625 -27.34375 L 35.125 -38.734375 C 35.125 -39.046875 35 -39.203125 34.75 -39.203125 L 24.78125 -39.203125 C 24.394531 -39.203125 24.203125 -39.046875 24.203125 -38.734375 L 22.59375 -27.34375 C 22.59375 -27.03125 22.71875 -26.875 22.96875 -26.875 Z M 32.9375 -26.875 "/></g></g></g><g fill="#00ffff" fill-opacity="1"><g transform="translate(29.937925, 161.788413)"><g><path d="M 53.640625 -40.34375 C 53.640625 -40.03125 53.523438 -39.757812 53.296875 -39.53125 C 53.078125 -39.3125 52.8125 -39.203125 52.5 -39.203125 L 46.703125 -39.203125 C 46.328125 -39.203125 46.140625 -39.046875 46.140625 -38.734375 L 44.53125 -27.34375 C 44.53125 -27.03125 44.65625 -26.875 44.90625 -26.875 L 49.265625 -26.875 C 49.585938 -26.875 49.859375 -26.757812 50.078125 -26.53125 C 50.296875 -26.3125 50.40625 -26.046875 50.40625 -25.734375 L 50.40625 -18.609375 C 50.40625 -18.296875 50.296875 -18.023438 50.078125 -17.796875 C 49.859375 -17.578125 49.585938 -17.46875 49.265625 -17.46875 L 43.484375 -17.46875 C 43.097656 -17.46875 42.90625 -17.3125 42.90625 -17 L 40.921875 -3.234375 C 40.859375 -2.535156 40.445312 -2.1875 39.6875 -2.1875 L 30.953125 -2.28125 C 30.191406 -2.28125 29.84375 -2.691406 29.90625 -3.515625 L 31.90625 -17 C 31.90625 -17.3125 31.773438 -17.46875 31.515625 -17.46875 L 21.546875 -17.46875 C 21.171875 -17.46875 20.984375 -17.3125 20.984375 -17 L 18.984375 -3.234375 C 18.921875 -2.535156 18.507812 -2.1875 17.75 -2.1875 L 9.015625 -2.28125 C 8.253906 -2.28125 7.90625 -2.691406 7.96875 -3.515625 L 9.96875 -17 C 9.96875 -17.3125 9.84375 -17.46875 9.59375 -17.46875 L 5.125 -17.46875 C 4.8125 -17.46875 4.539062 -17.578125 4.3125 -17.796875 C 4.09375 -18.023438 3.984375 -18.296875 3.984375 -18.609375 L 3.984375 -25.734375 C 3.984375 -26.046875 4.09375 -26.3125 4.3125 -26.53125 C 4.539062 -26.757812 4.8125 -26.875 5.125 -26.875 L 11.015625 -26.875 C 11.390625 -26.875 11.578125 -27.03125 11.578125 -27.34375 L 13.203125 -38.734375 C 13.203125 -39.046875 13.070312 -39.203125 12.8125 -39.203125 L 8.359375 -39.203125 C 8.035156 -39.203125 7.765625 -39.3125 7.546875 -39.53125 C 7.328125 -39.757812 7.21875 -40.03125 7.21875 -40.34375 L 7.21875 -47.5625 C 7.21875 -47.875 7.328125 -48.140625 7.546875 -48.359375 C 7.765625 -48.585938 8.035156 -48.703125 8.359375 -48.703125 L 14.234375 -48.703125 C 14.617188 -48.703125 14.8125 -48.859375 14.8125 -49.171875 L 16.796875 -62.9375 C 16.867188 -63.632812 17.28125 -63.984375 18.03125 -63.984375 L 26.765625 -63.890625 C 27.523438 -63.890625 27.875 -63.476562 27.8125 -62.65625 L 25.828125 -49.171875 C 25.828125 -48.859375 25.953125 -48.703125 26.203125 -48.703125 L 36.171875 -48.703125 C 36.546875 -48.703125 36.734375 -48.859375 36.734375 -49.171875 L 38.734375 -62.9375 C 38.796875 -63.632812 39.207031 -63.984375 39.96875 -63.984375 L 48.703125 -63.890625 C 49.460938 -63.890625 49.8125 -63.476562 49.75 -62.65625 L 47.75 -49.171875 C 47.75 -48.859375 47.878906 -48.703125 48.140625 -48.703125 L 52.5 -48.703125 C 52.8125 -48.703125 53.078125 -48.585938 53.296875 -48.359375 C 53.523438 -48.140625 53.640625 -47.875 53.640625 -47.5625 Z M 32.9375 -26.875 C 33.320312 -26.875 33.515625 -27.03125 33.515625 -27.34375 L 35.125 -38.734375 C 35.125 -39.046875 35 -39.203125 34.75 -39.203125 L 24.78125 -39.203125 C 24.394531 -39.203125 24.203125 -39.046875 24.203125 -38.734375 L 22.59375 -27.34375 C 22.59375 -27.03125 22.71875 -26.875 22.96875 -26.875 Z M 32.9375 -26.875 "/></g></g></g><g fill="#191919" fill-opacity="1"><g transform="translate(26.12164, 162.66947)"><g><path d="M 53.640625 -40.34375 C 53.640625 -40.03125 53.523438 -39.757812 53.296875 -39.53125 C 53.078125 -39.3125 52.8125 -39.203125 52.5 -39.203125 L 46.703125 -39.203125 C 46.328125 -39.203125 46.140625 -39.046875 46.140625 -38.734375 L 44.53125 -27.34375 C 44.53125 -27.03125 44.65625 -26.875 44.90625 -26.875 L 49.265625 -26.875 C 49.585938 -26.875 49.859375 -26.757812 50.078125 -26.53125 C 50.296875 -26.3125 50.40625 -26.046875 50.40625 -25.734375 L 50.40625 -18.609375 C 50.40625 -18.296875 50.296875 -18.023438 50.078125 -17.796875 C 49.859375 -17.578125 49.585938 -17.46875 49.265625 -17.46875 L 43.484375 -17.46875 C 43.097656 -17.46875 42.90625 -17.3125 42.90625 -17 L 40.921875 -3.234375 C 40.859375 -2.535156 40.445312 -2.1875 39.6875 -2.1875 L 30.953125 -2.28125 C 30.191406 -2.28125 29.84375 -2.691406 29.90625 -3.515625 L 31.90625 -17 C 31.90625 -17.3125 31.773438 -17.46875 31.515625 -17.46875 L 21.546875 -17.46875 C 21.171875 -17.46875 20.984375 -17.3125 20.984375 -17 L 18.984375 -3.234375 C 18.921875 -2.535156 18.507812 -2.1875 17.75 -2.1875 L 9.015625 -2.28125 C 8.253906 -2.28125 7.90625 -2.691406 7.96875 -3.515625 L 9.96875 -17 C 9.96875 -17.3125 9.84375 -17.46875 9.59375 -17.46875 L 5.125 -17.46875 C 4.8125 -17.46875 4.539062 -17.578125 4.3125 -17.796875 C 4.09375 -18.023438 3.984375 -18.296875 3.984375 -18.609375 L 3.984375 -25.734375 C 3.984375 -26.046875 4.09375 -26.3125 4.3125 -26.53125 C 4.539062 -26.757812 4.8125 -26.875 5.125 -26.875 L 11.015625 -26.875 C 11.390625 -26.875 11.578125 -27.03125 11.578125 -27.34375 L 13.203125 -38.734375 C 13.203125 -39.046875 13.070312 -39.203125 12.8125 -39.203125 L 8.359375 -39.203125 C 8.035156 -39.203125 7.765625 -39.3125 7.546875 -39.53125 C 7.328125 -39.757812 7.21875 -40.03125 7.21875 -40.34375 L 7.21875 -47.5625 C 7.21875 -47.875 7.328125 -48.140625 7.546875 -48.359375 C 7.765625 -48.585938 8.035156 -48.703125 8.359375 -48.703125 L 14.234375 -48.703125 C 14.617188 -48.703125 14.8125 -48.859375 14.8125 -49.171875 L 16.796875 -62.9375 C 16.867188 -63.632812 17.28125 -63.984375 18.03125 -63.984375 L 26.765625 -63.890625 C 27.523438 -63.890625 27.875 -63.476562 27.8125 -62.65625 L 25.828125 -49.171875 C 25.828125 -48.859375 25.953125 -48.703125 26.203125 -48.703125 L 36.171875 -48.703125 C 36.546875 -48.703125 36.734375 -48.859375 36.734375 -49.171875 L 38.734375 -62.9375 C 38.796875 -63.632812 39.207031 -63.984375 39.96875 -63.984375 L 48.703125 -63.890625 C 49.460938 -63.890625 49.8125 -63.476562 49.75 -62.65625 L 47.75 -49.171875 C 47.75 -48.859375 47.878906 -48.703125 48.140625 -48.703125 L 52.5 -48.703125 C 52.8125 -48.703125 53.078125 -48.585938 53.296875 -48.359375 C 53.523438 -48.140625 53.640625 -47.875 53.640625 -47.5625 Z M 32.9375 -26.875 C 33.320312 -26.875 33.515625 -27.03125 33.515625 -27.34375 L 35.125 -38.734375 C 35.125 -39.046875 35 -39.203125 34.75 -39.203125 L 24.78125 -39.203125 C 24.394531 -39.203125 24.203125 -39.046875 24.203125 -38.734375 L 22.59375 -27.34375 C 22.59375 -27.03125 22.71875 -26.875 22.96875 -26.875 Z M 32.9375 -26.875 "/></g></g></g><g fill="#ff0000" fill-opacity="1"><g transform="translate(96.744452, 167.581388)"><g><path d="M 59.375 -42.875 C 59.875 -39.582031 60.125 -36.085938 60.125 -32.390625 C 60.125 -30.085938 60.019531 -26.835938 59.8125 -22.640625 C 59.3125 -15.046875 56.6875 -9.171875 51.9375 -5.015625 C 47.195312 -0.867188 40.925781 1.203125 33.125 1.203125 C 25.726562 1.203125 19.734375 -0.71875 15.140625 -4.5625 C 10.546875 -8.414062 7.796875 -14.09375 6.890625 -21.59375 C 6.296875 -24.289062 6 -27.4375 6 -31.03125 L 5.84375 -79.765625 C 5.84375 -87.859375 8.316406 -94.273438 13.265625 -99.015625 C 18.210938 -103.765625 24.734375 -106.140625 32.828125 -106.140625 C 40.429688 -106.140625 46.628906 -103.738281 51.421875 -98.9375 C 56.222656 -94.144531 58.625 -87.753906 58.625 -79.765625 L 58.625 -76.015625 C 58.625 -75.515625 58.445312 -75.085938 58.09375 -74.734375 C 57.738281 -74.390625 57.316406 -74.21875 56.828125 -74.21875 L 43.03125 -74.21875 C 42.53125 -74.21875 42.101562 -74.390625 41.75 -74.734375 C 41.40625 -75.085938 41.234375 -75.515625 41.234375 -76.015625 L 41.234375 -78.859375 C 41.234375 -82.253906 40.40625 -85.078125 38.75 -87.328125 C 37.101562 -89.578125 35.128906 -90.703125 32.828125 -90.703125 C 30.035156 -90.703125 27.765625 -89.601562 26.015625 -87.40625 C 24.265625 -85.207031 23.390625 -82.359375 23.390625 -78.859375 L 23.390625 -63.421875 C 23.390625 -63.117188 23.488281 -62.914062 23.6875 -62.8125 C 23.882812 -62.71875 24.082031 -62.769531 24.28125 -62.96875 C 27.1875 -65.664062 30.785156 -67.015625 35.078125 -67.015625 C 41.972656 -67.015625 47.566406 -64.816406 51.859375 -60.421875 C 56.160156 -56.023438 58.664062 -50.175781 59.375 -42.875 Z M 42.125 -23.984375 C 42.425781 -27.585938 42.578125 -30.785156 42.578125 -33.578125 C 42.578125 -36.179688 42.328125 -39.734375 41.828125 -44.234375 C 40.628906 -50.023438 37.679688 -52.921875 32.984375 -52.921875 C 30.585938 -52.921875 28.613281 -52.144531 27.0625 -50.59375 C 25.507812 -49.050781 24.484375 -46.78125 23.984375 -43.78125 C 23.585938 -40.28125 23.390625 -36.878906 23.390625 -33.578125 C 23.390625 -30.679688 23.539062 -27.332031 23.84375 -23.53125 C 24.34375 -20.332031 25.363281 -17.882812 26.90625 -16.1875 C 28.457031 -14.488281 30.484375 -13.640625 32.984375 -13.640625 C 35.484375 -13.640625 37.503906 -14.539062 39.046875 -16.34375 C 40.597656 -18.144531 41.625 -20.691406 42.125 -23.984375 Z M 42.125 -23.984375 "/></g></g></g><g fill="#00ffff" fill-opacity="1"><g transform="translate(108.79585, 164.799106)"><g><path d="M 59.375 -42.875 C 59.875 -39.582031 60.125 -36.085938 60.125 -32.390625 C 60.125 -30.085938 60.019531 -26.835938 59.8125 -22.640625 C 59.3125 -15.046875 56.6875 -9.171875 51.9375 -5.015625 C 47.195312 -0.867188 40.925781 1.203125 33.125 1.203125 C 25.726562 1.203125 19.734375 -0.71875 15.140625 -4.5625 C 10.546875 -8.414062 7.796875 -14.09375 6.890625 -21.59375 C 6.296875 -24.289062 6 -27.4375 6 -31.03125 L 5.84375 -79.765625 C 5.84375 -87.859375 8.316406 -94.273438 13.265625 -99.015625 C 18.210938 -103.765625 24.734375 -106.140625 32.828125 -106.140625 C 40.429688 -106.140625 46.628906 -103.738281 51.421875 -98.9375 C 56.222656 -94.144531 58.625 -87.753906 58.625 -79.765625 L 58.625 -76.015625 C 58.625 -75.515625 58.445312 -75.085938 58.09375 -74.734375 C 57.738281 -74.390625 57.316406 -74.21875 56.828125 -74.21875 L 43.03125 -74.21875 C 42.53125 -74.21875 42.101562 -74.390625 41.75 -74.734375 C 41.40625 -75.085938 41.234375 -75.515625 41.234375 -76.015625 L 41.234375 -78.859375 C 41.234375 -82.253906 40.40625 -85.078125 38.75 -87.328125 C 37.101562 -89.578125 35.128906 -90.703125 32.828125 -90.703125 C 30.035156 -90.703125 27.765625 -89.601562 26.015625 -87.40625 C 24.265625 -85.207031 23.390625 -82.359375 23.390625 -78.859375 L 23.390625 -63.421875 C 23.390625 -63.117188 23.488281 -62.914062 23.6875 -62.8125 C 23.882812 -62.71875 24.082031 -62.769531 24.28125 -62.96875 C 27.1875 -65.664062 30.785156 -67.015625 35.078125 -67.015625 C 41.972656 -67.015625 47.566406 -64.816406 51.859375 -60.421875 C 56.160156 -56.023438 58.664062 -50.175781 59.375 -42.875 Z M 42.125 -23.984375 C 42.425781 -27.585938 42.578125 -30.785156 42.578125 -33.578125 C 42.578125 -36.179688 42.328125 -39.734375 41.828125 -44.234375 C 40.628906 -50.023438 37.679688 -52.921875 32.984375 -52.921875 C 30.585938 -52.921875 28.613281 -52.144531 27.0625 -50.59375 C 25.507812 -49.050781 24.484375 -46.78125 23.984375 -43.78125 C 23.585938 -40.28125 23.390625 -36.878906 23.390625 -33.578125 C 23.390625 -30.679688 23.539062 -27.332031 23.84375 -23.53125 C 24.34375 -20.332031 25.363281 -17.882812 26.90625 -16.1875 C 28.457031 -14.488281 30.484375 -13.640625 32.984375 -13.640625 C 35.484375 -13.640625 37.503906 -14.539062 39.046875 -16.34375 C 40.597656 -18.144531 41.625 -20.691406 42.125 -23.984375 Z M 42.125 -23.984375 "/></g></g></g><g fill="#191919" fill-opacity="1"><g transform="translate(102.770151, 166.190248)"><g><path d="M 59.375 -42.875 C 59.875 -39.582031 60.125 -36.085938 60.125 -32.390625 C 60.125 -30.085938 60.019531 -26.835938 59.8125 -22.640625 C 59.3125 -15.046875 56.6875 -9.171875 51.9375 -5.015625 C 47.195312 -0.867188 40.925781 1.203125 33.125 1.203125 C 25.726562 1.203125 19.734375 -0.71875 15.140625 -4.5625 C 10.546875 -8.414062 7.796875 -14.09375 6.890625 -21.59375 C 6.296875 -24.289062 6 -27.4375 6 -31.03125 L 5.84375 -79.765625 C 5.84375 -87.859375 8.316406 -94.273438 13.265625 -99.015625 C 18.210938 -103.765625 24.734375 -106.140625 32.828125 -106.140625 C 40.429688 -106.140625 46.628906 -103.738281 51.421875 -98.9375 C 56.222656 -94.144531 58.625 -87.753906 58.625 -79.765625 L 58.625 -76.015625 C 58.625 -75.515625 58.445312 -75.085938 58.09375 -74.734375 C 57.738281 -74.390625 57.316406 -74.21875 56.828125 -74.21875 L 43.03125 -74.21875 C 42.53125 -74.21875 42.101562 -74.390625 41.75 -74.734375 C 41.40625 -75.085938 41.234375 -75.515625 41.234375 -76.015625 L 41.234375 -78.859375 C 41.234375 -82.253906 40.40625 -85.078125 38.75 -87.328125 C 37.101562 -89.578125 35.128906 -90.703125 32.828125 -90.703125 C 30.035156 -90.703125 27.765625 -89.601562 26.015625 -87.40625 C 24.265625 -85.207031 23.390625 -82.359375 23.390625 -78.859375 L 23.390625 -63.421875 C 23.390625 -63.117188 23.488281 -62.914062 23.6875 -62.8125 C 23.882812 -62.71875 24.082031 -62.769531 24.28125 -62.96875 C 27.1875 -65.664062 30.785156 -67.015625 35.078125 -67.015625 C 41.972656 -67.015625 47.566406 -64.816406 51.859375 -60.421875 C 56.160156 -56.023438 58.664062 -50.175781 59.375 -42.875 Z M 42.125 -23.984375 C 42.425781 -27.585938 42.578125 -30.785156 42.578125 -33.578125 C 42.578125 -36.179688 42.328125 -39.734375 41.828125 -44.234375 C 40.628906 -50.023438 37.679688 -52.921875 32.984375 -52.921875 C 30.585938 -52.921875 28.613281 -52.144531 27.0625 -50.59375 C 25.507812 -49.050781 24.484375 -46.78125 23.984375 -43.78125 C 23.585938 -40.28125 23.390625 -36.878906 23.390625 -33.578125 C 23.390625 -30.679688 23.539062 -27.332031 23.84375 -23.53125 C 24.34375 -20.332031 25.363281 -17.882812 26.90625 -16.1875 C 28.457031 -14.488281 30.484375 -13.640625 32.984375 -13.640625 C 35.484375 -13.640625 37.503906 -14.539062 39.046875 -16.34375 C 40.597656 -18.144531 41.625 -20.691406 42.125 -23.984375 Z M 42.125 -23.984375 "/></g></g></g></svg>