<svg xmlns="http://www.w3.org/2000/svg" xmlns:xlink="http://www.w3.org/1999/xlink" width="260" zoomAndPan="magnify" viewBox="0 0 194.87999 195.000001" height="260" preserveAspectRatio="xMidYMid meet" version="1.0"><defs><clipPath id="id1"><path d="M 17.875 14 L 126 14 L 126 66 L 17.875 66 Z M 17.875 14 " clip-rule="nonzero"/></clipPath><clipPath id="id2"><path d="M 40 6.070312 L 176.808594 6.070312 L 176.808594 52 L 40 52 Z M 40 6.070312 " clip-rule="nonzero"/></clipPath><clipPath id="id3"><path d="M 40 68 L 176.808594 68 L 176.808594 188.136719 L 40 188.136719 Z M 40 68 " clip-rule="nonzero"/></clipPath><clipPath id="id4"><path d="M 171 57 L 176.808594 57 L 176.808594 63 L 171 63 Z M 171 57 " clip-rule="nonzero"/></clipPath></defs><g clip-path="url(#id1)"><path fill="#f86d58" d="M 122.886719 65.8125 L 20.710938 65.8125 C 20.335938 65.8125 19.972656 65.738281 19.625 65.59375 C 19.277344 65.449219 18.972656 65.246094 18.707031 64.976562 C 18.441406 64.710938 18.234375 64.402344 18.089844 64.054688 C 17.945312 63.707031 17.875 63.34375 17.875 62.964844 L 17.875 17.449219 C 17.875 17.074219 17.945312 16.710938 18.089844 16.363281 C 18.234375 16.015625 18.441406 15.707031 18.707031 15.441406 C 18.972656 15.171875 19.277344 14.96875 19.625 14.824219 C 19.972656 14.679688 20.335938 14.605469 20.710938 14.605469 L 122.886719 14.605469 C 123.261719 14.605469 123.625 14.679688 123.972656 14.824219 C 124.320312 14.96875 124.625 15.171875 124.890625 15.441406 C 125.15625 15.707031 125.363281 16.015625 125.507812 16.363281 C 125.652344 16.710938 125.722656 17.074219 125.722656 17.449219 L 125.722656 62.964844 C 125.722656 63.34375 125.652344 63.707031 125.507812 64.054688 C 125.363281 64.402344 125.15625 64.710938 124.890625 64.976562 C 124.625 65.246094 124.320312 65.449219 123.972656 65.59375 C 123.625 65.738281 123.261719 65.8125 122.886719 65.8125 Z M 23.550781 60.121094 L 120.046875 60.121094 L 120.046875 20.296875 L 23.550781 20.296875 Z M 23.550781 60.121094 " fill-opacity="1" fill-rule="nonzero"/></g><path fill="#f86d58" d="M 173.972656 45.898438 L 139.914062 45.898438 C 139.539062 45.898438 139.175781 45.828125 138.828125 45.683594 C 138.480469 45.539062 138.171875 45.332031 137.90625 45.066406 C 137.640625 44.796875 137.4375 44.492188 137.292969 44.140625 C 137.148438 43.792969 137.074219 43.429688 137.074219 43.054688 L 137.074219 8.917969 L 142.75 8.917969 L 142.75 40.207031 L 173.972656 40.207031 Z M 173.972656 45.898438 " fill-opacity="1" fill-rule="nonzero"/><g clip-path="url(#id2)"><path fill="#f86d58" d="M 176.808594 51.585938 L 171.132812 51.585938 L 171.132812 44.230469 L 138.738281 11.761719 L 46.253906 11.761719 L 46.253906 17.449219 L 40.578125 17.449219 L 40.578125 8.917969 C 40.578125 8.539062 40.652344 8.175781 40.796875 7.828125 C 40.9375 7.480469 41.144531 7.171875 41.410156 6.90625 C 41.675781 6.636719 41.984375 6.433594 42.332031 6.289062 C 42.679688 6.144531 43.042969 6.070312 43.417969 6.070312 L 139.914062 6.070312 C 140.699219 6.070312 141.367188 6.351562 141.921875 6.90625 L 175.976562 41.042969 C 176.53125 41.597656 176.808594 42.269531 176.808594 43.054688 Z M 176.808594 51.585938 " fill-opacity="1" fill-rule="nonzero"/></g><path fill="#f86d58" d="M 40.578125 71.5 L 46.253906 71.5 L 46.253906 77.191406 L 40.578125 77.191406 Z M 40.578125 71.5 " fill-opacity="1" fill-rule="nonzero"/><path fill="#f86d58" d="M 40.578125 82.878906 L 46.253906 82.878906 L 46.253906 165.378906 L 40.578125 165.378906 Z M 40.578125 82.878906 " fill-opacity="1" fill-rule="nonzero"/><g clip-path="url(#id3)"><path fill="#f86d58" d="M 173.972656 188.136719 L 43.417969 188.136719 C 43.042969 188.136719 42.679688 188.0625 42.332031 187.917969 C 41.984375 187.773438 41.675781 187.570312 41.410156 187.300781 C 41.144531 187.035156 40.9375 186.726562 40.796875 186.378906 C 40.652344 186.03125 40.578125 185.667969 40.578125 185.289062 L 40.578125 171.066406 L 46.253906 171.066406 L 46.253906 182.445312 L 171.132812 182.445312 L 171.132812 68.65625 L 176.808594 68.65625 L 176.808594 185.289062 C 176.808594 185.667969 176.738281 186.03125 176.59375 186.378906 C 176.449219 186.726562 176.246094 187.035156 175.976562 187.300781 C 175.710938 187.570312 175.40625 187.773438 175.058594 187.917969 C 174.710938 188.0625 174.347656 188.136719 173.972656 188.136719 Z M 173.972656 188.136719 " fill-opacity="1" fill-rule="nonzero"/></g><g clip-path="url(#id4)"><path fill="#f86d58" d="M 171.132812 57.277344 L 176.808594 57.277344 L 176.808594 62.964844 L 171.132812 62.964844 Z M 171.132812 57.277344 " fill-opacity="1" fill-rule="nonzero"/></g><path fill="#f86d58" d="M 114.371094 54.433594 L 103.019531 54.433594 C 102.640625 54.433594 102.28125 54.359375 101.933594 54.214844 C 101.585938 54.070312 101.277344 53.867188 101.011719 53.597656 C 100.746094 53.332031 100.539062 53.023438 100.394531 52.675781 C 100.253906 52.328125 100.179688 51.964844 100.179688 51.585938 L 100.179688 25.984375 L 105.855469 25.984375 L 105.855469 48.742188 L 114.371094 48.742188 Z M 114.371094 54.433594 " fill-opacity="1" fill-rule="nonzero"/><path fill="#f86d58" d="M 29.226562 25.984375 L 34.902344 25.984375 L 34.902344 54.433594 L 29.226562 54.433594 Z M 29.226562 25.984375 " fill-opacity="1" fill-rule="nonzero"/><path fill="#f86d58" d="M 43.417969 25.984375 L 49.09375 25.984375 L 49.09375 54.433594 L 43.417969 54.433594 Z M 43.417969 25.984375 " fill-opacity="1" fill-rule="nonzero"/><path fill="#f86d58" d="M 32.066406 37.363281 L 46.253906 37.363281 L 46.253906 43.054688 L 32.066406 43.054688 Z M 32.066406 37.363281 " fill-opacity="1" fill-rule="nonzero"/><path fill="#f86d58" d="M 51.933594 25.984375 L 68.960938 25.984375 L 68.960938 31.675781 L 51.933594 31.675781 Z M 51.933594 25.984375 " fill-opacity="1" fill-rule="nonzero"/><path fill="#f86d58" d="M 57.609375 28.828125 L 63.285156 28.828125 L 63.285156 54.433594 L 57.609375 54.433594 Z M 57.609375 28.828125 " fill-opacity="1" fill-rule="nonzero"/><path fill="#f86d58" d="M 94.503906 54.433594 L 88.828125 54.433594 L 88.828125 42.691406 L 85.757812 49.863281 C 85.535156 50.386719 85.1875 50.804688 84.714844 51.117188 C 84.238281 51.429688 83.71875 51.585938 83.152344 51.585938 C 82.582031 51.585938 82.0625 51.429688 81.589844 51.117188 C 81.117188 50.804688 80.765625 50.386719 80.542969 49.863281 L 77.476562 42.691406 L 77.476562 54.433594 L 71.796875 54.433594 L 71.796875 28.828125 C 71.796875 28.503906 71.855469 28.183594 71.964844 27.875 C 72.074219 27.566406 72.230469 27.285156 72.4375 27.03125 C 72.644531 26.777344 72.886719 26.566406 73.167969 26.398438 C 73.445312 26.226562 73.746094 26.109375 74.066406 26.042969 C 74.386719 25.976562 74.707031 25.96875 75.03125 26.011719 C 75.355469 26.058594 75.660156 26.15625 75.953125 26.308594 C 76.242188 26.460938 76.496094 26.65625 76.71875 26.898438 C 76.941406 27.136719 77.117188 27.40625 77.246094 27.710938 L 83.152344 41.519531 L 89.058594 27.710938 C 89.1875 27.40625 89.363281 27.136719 89.582031 26.898438 C 89.804688 26.65625 90.0625 26.460938 90.351562 26.308594 C 90.640625 26.15625 90.949219 26.058594 91.269531 26.011719 C 91.59375 25.96875 91.917969 25.976562 92.238281 26.042969 C 92.554688 26.109375 92.855469 26.226562 93.136719 26.398438 C 93.414062 26.566406 93.660156 26.777344 93.863281 27.03125 C 94.070312 27.285156 94.230469 27.566406 94.339844 27.875 C 94.449219 28.183594 94.503906 28.503906 94.503906 28.828125 Z M 94.503906 54.433594 " fill-opacity="1" fill-rule="nonzero"/><path fill="#f86d58" d="M 88.828125 151.152344 L 77.476562 151.152344 C 76.625 151.152344 75.917969 150.835938 75.355469 150.199219 L 52.648438 124.59375 C 52.417969 124.335938 52.242188 124.042969 52.117188 123.714844 C 51.996094 123.390625 51.933594 123.054688 51.933594 122.707031 C 51.933594 122.359375 51.996094 122.019531 52.117188 121.695312 C 52.242188 121.371094 52.417969 121.078125 52.648438 120.816406 L 75.355469 95.214844 C 75.917969 94.578125 76.625 94.257812 77.476562 94.257812 L 88.828125 94.257812 C 89.386719 94.257812 89.902344 94.410156 90.371094 94.714844 C 90.839844 95.019531 91.1875 95.429688 91.417969 95.9375 C 91.644531 96.449219 91.71875 96.984375 91.632812 97.535156 C 91.546875 98.089844 91.320312 98.578125 90.949219 98.996094 L 69.917969 122.707031 L 90.949219 146.417969 C 91.320312 146.839844 91.546875 147.324219 91.628906 147.878906 C 91.714844 148.429688 91.644531 148.964844 91.414062 149.472656 C 91.1875 149.984375 90.835938 150.390625 90.367188 150.695312 C 89.898438 151 89.386719 151.152344 88.828125 151.152344 Z M 78.75 145.464844 L 82.507812 145.464844 L 64.003906 124.59375 C 63.773438 124.335938 63.59375 124.042969 63.472656 123.714844 C 63.347656 123.390625 63.285156 123.054688 63.285156 122.707031 C 63.285156 122.359375 63.347656 122.019531 63.472656 121.695312 C 63.59375 121.371094 63.773438 121.078125 64.003906 120.816406 L 82.507812 99.949219 L 78.75 99.949219 L 58.566406 122.707031 Z M 78.75 145.464844 " fill-opacity="1" fill-rule="nonzero"/><path fill="#f86d58" d="M 139.914062 151.152344 L 128.5625 151.152344 C 128.003906 151.152344 127.488281 151 127.019531 150.695312 C 126.550781 150.390625 126.203125 149.984375 125.972656 149.472656 C 125.746094 148.964844 125.671875 148.429688 125.757812 147.878906 C 125.84375 147.324219 126.070312 146.839844 126.441406 146.417969 L 147.46875 122.707031 L 126.441406 98.996094 C 126.070312 98.578125 125.839844 98.089844 125.753906 97.535156 C 125.671875 96.984375 125.742188 96.449219 125.972656 95.9375 C 126.199219 95.429688 126.550781 95.019531 127.019531 94.714844 C 127.488281 94.410156 128.003906 94.257812 128.5625 94.257812 L 139.914062 94.257812 C 140.761719 94.257812 141.46875 94.578125 142.035156 95.210938 L 164.738281 120.8125 C 164.96875 121.074219 165.144531 121.367188 165.269531 121.691406 C 165.394531 122.019531 165.453125 122.355469 165.453125 122.703125 C 165.453125 123.050781 165.394531 123.386719 165.269531 123.714844 C 165.144531 124.039062 164.96875 124.332031 164.738281 124.59375 L 142.035156 150.195312 C 141.46875 150.832031 140.761719 151.152344 139.914062 151.152344 Z M 134.882812 145.464844 L 138.640625 145.464844 L 158.820312 122.707031 L 138.640625 99.949219 L 134.882812 99.949219 L 153.386719 120.816406 C 153.617188 121.078125 153.792969 121.371094 153.917969 121.695312 C 154.039062 122.019531 154.101562 122.359375 154.101562 122.707031 C 154.101562 123.054688 154.039062 123.390625 153.917969 123.714844 C 153.792969 124.042969 153.617188 124.335938 153.386719 124.59375 Z M 134.882812 145.464844 " fill-opacity="1" fill-rule="nonzero"/><path fill="#f86d58" d="M 105.855469 151.152344 L 97.34375 151.152344 C 97.121094 151.152344 96.90625 151.128906 96.695312 151.078125 C 96.480469 151.027344 96.277344 150.957031 96.078125 150.859375 C 95.882812 150.761719 95.703125 150.640625 95.53125 150.503906 C 95.363281 150.363281 95.214844 150.207031 95.082031 150.03125 C 94.949219 149.855469 94.835938 149.667969 94.75 149.46875 C 94.660156 149.269531 94.59375 149.058594 94.554688 148.84375 C 94.511719 148.628906 94.496094 148.410156 94.503906 148.191406 C 94.511719 147.972656 94.546875 147.757812 94.605469 147.546875 L 108.796875 96.339844 C 108.878906 96.042969 109.007812 95.761719 109.183594 95.507812 C 109.355469 95.25 109.566406 95.027344 109.816406 94.839844 C 110.0625 94.648438 110.332031 94.507812 110.625 94.40625 C 110.921875 94.308594 111.222656 94.257812 111.53125 94.257812 L 120.046875 94.257812 C 120.265625 94.257812 120.480469 94.285156 120.695312 94.332031 C 120.90625 94.382812 121.113281 94.457031 121.308594 94.554688 C 121.503906 94.652344 121.6875 94.769531 121.855469 94.910156 C 122.023438 95.050781 122.175781 95.207031 122.308594 95.382812 C 122.441406 95.554688 122.550781 95.742188 122.640625 95.945312 C 122.730469 96.144531 122.792969 96.351562 122.835938 96.566406 C 122.878906 96.785156 122.894531 97 122.882812 97.21875 C 122.875 97.4375 122.839844 97.65625 122.78125 97.867188 L 108.59375 149.070312 C 108.507812 149.371094 108.378906 149.648438 108.207031 149.90625 C 108.03125 150.164062 107.820312 150.386719 107.574219 150.574219 C 107.328125 150.761719 107.054688 150.90625 106.761719 151.003906 C 106.46875 151.105469 106.167969 151.152344 105.855469 151.152344 Z M 101.074219 145.464844 L 103.699219 145.464844 L 116.316406 99.949219 L 113.6875 99.949219 Z M 101.074219 145.464844 " fill-opacity="1" fill-rule="nonzero"/></svg>