<svg xmlns="http://www.w3.org/2000/svg" xmlns:xlink="http://www.w3.org/1999/xlink" width="260" zoomAndPan="magnify" viewBox="0 0 194.87999 195.000001" height="260" preserveAspectRatio="xMidYMid meet" version="1.0"><defs><clipPath id="id1"><path d="M 17.722656 14 L 127 14 L 127 66 L 17.722656 66 Z M 17.722656 14 " clip-rule="nonzero"/></clipPath><clipPath id="id2"><path d="M 40 5.894531 L 177.402344 5.894531 L 177.402344 52 L 40 52 Z M 40 5.894531 " clip-rule="nonzero"/></clipPath><clipPath id="id3"><path d="M 40 68 L 177.402344 68 L 177.402344 187.960938 L 40 187.960938 Z M 40 68 " clip-rule="nonzero"/></clipPath><clipPath id="id4"><path d="M 171 57 L 177.402344 57 L 177.402344 63 L 171 63 Z M 171 57 " clip-rule="nonzero"/></clipPath></defs><g clip-path="url(#id1)"><path fill="#f86d58" d="M 123.222656 65.636719 L 20.574219 65.636719 C 20.199219 65.636719 19.832031 65.5625 19.484375 65.417969 C 19.136719 65.273438 18.828125 65.070312 18.558594 64.800781 C 18.292969 64.535156 18.085938 64.226562 17.941406 63.878906 C 17.796875 63.53125 17.722656 63.167969 17.722656 62.792969 L 17.722656 17.273438 C 17.722656 16.898438 17.796875 16.535156 17.941406 16.1875 C 18.085938 15.835938 18.292969 15.53125 18.558594 15.261719 C 18.828125 14.996094 19.136719 14.789062 19.484375 14.644531 C 19.832031 14.503906 20.199219 14.429688 20.574219 14.429688 L 123.222656 14.429688 C 123.601562 14.429688 123.964844 14.503906 124.316406 14.644531 C 124.664062 14.789062 124.972656 14.996094 125.238281 15.261719 C 125.507812 15.53125 125.714844 15.835938 125.859375 16.1875 C 126.003906 16.535156 126.074219 16.898438 126.074219 17.273438 L 126.074219 62.792969 C 126.074219 63.167969 126.003906 63.53125 125.859375 63.878906 C 125.714844 64.226562 125.507812 64.535156 125.238281 64.800781 C 124.972656 65.070312 124.664062 65.273438 124.316406 65.417969 C 123.964844 65.5625 123.601562 65.636719 123.222656 65.636719 Z M 23.425781 59.945312 L 120.371094 59.945312 L 120.371094 20.121094 L 23.425781 20.121094 Z M 23.425781 59.945312 " fill-opacity="1" fill-rule="nonzero"/></g><path fill="#f86d58" d="M 174.546875 45.722656 L 140.332031 45.722656 C 139.953125 45.722656 139.589844 45.648438 139.242188 45.507812 C 138.890625 45.363281 138.582031 45.15625 138.316406 44.890625 C 138.046875 44.621094 137.84375 44.316406 137.699219 43.964844 C 137.554688 43.617188 137.480469 43.253906 137.480469 42.878906 L 137.480469 8.738281 L 143.183594 8.738281 L 143.183594 40.03125 L 174.546875 40.03125 Z M 174.546875 45.722656 " fill-opacity="1" fill-rule="nonzero"/><g clip-path="url(#id2)"><path fill="#f86d58" d="M 177.398438 51.410156 L 171.695312 51.410156 L 171.695312 44.054688 L 139.152344 11.585938 L 46.238281 11.585938 L 46.238281 17.273438 L 40.535156 17.273438 L 40.535156 8.738281 C 40.535156 8.363281 40.605469 8 40.753906 7.652344 C 40.898438 7.304688 41.101562 6.996094 41.371094 6.730469 C 41.636719 6.460938 41.945312 6.257812 42.296875 6.113281 C 42.644531 5.96875 43.007812 5.894531 43.386719 5.894531 L 140.332031 5.894531 C 141.121094 5.894531 141.792969 6.171875 142.347656 6.730469 L 176.5625 40.867188 C 177.121094 41.421875 177.398438 42.09375 177.398438 42.878906 Z M 177.398438 51.410156 " fill-opacity="1" fill-rule="nonzero"/></g><path fill="#f86d58" d="M 40.535156 71.324219 L 46.238281 71.324219 L 46.238281 77.015625 L 40.535156 77.015625 Z M 40.535156 71.324219 " fill-opacity="1" fill-rule="nonzero"/><path fill="#f86d58" d="M 40.535156 82.703125 L 46.238281 82.703125 L 46.238281 165.203125 L 40.535156 165.203125 Z M 40.535156 82.703125 " fill-opacity="1" fill-rule="nonzero"/><g clip-path="url(#id3)"><path fill="#f86d58" d="M 174.546875 187.960938 L 43.386719 187.960938 C 43.007812 187.960938 42.644531 187.890625 42.296875 187.746094 C 41.945312 187.601562 41.636719 187.394531 41.371094 187.128906 C 41.101562 186.863281 40.898438 186.554688 40.753906 186.207031 C 40.605469 185.855469 40.535156 185.496094 40.535156 185.117188 L 40.535156 170.894531 L 46.238281 170.894531 L 46.238281 182.273438 L 171.695312 182.273438 L 171.695312 68.480469 L 177.398438 68.480469 L 177.398438 185.117188 C 177.398438 185.496094 177.328125 185.855469 177.183594 186.207031 C 177.039062 186.554688 176.832031 186.863281 176.5625 187.128906 C 176.296875 187.394531 175.988281 187.601562 175.640625 187.746094 C 175.289062 187.890625 174.925781 187.960938 174.546875 187.960938 Z M 174.546875 187.960938 " fill-opacity="1" fill-rule="nonzero"/></g><g clip-path="url(#id4)"><path fill="#f86d58" d="M 171.695312 57.101562 L 177.398438 57.101562 L 177.398438 62.792969 L 171.695312 62.792969 Z M 171.695312 57.101562 " fill-opacity="1" fill-rule="nonzero"/></g><path fill="#f86d58" d="M 89.007812 153.824219 L 86.15625 153.824219 C 85.21875 153.824219 84.292969 153.730469 83.375 153.546875 C 82.457031 153.363281 81.566406 153.09375 80.703125 152.738281 C 79.839844 152.378906 79.019531 151.941406 78.238281 151.421875 C 77.460938 150.902344 76.742188 150.3125 76.082031 149.652344 C 75.417969 148.992188 74.828125 148.273438 74.308594 147.5 C 73.789062 146.722656 73.347656 145.902344 72.988281 145.039062 C 72.632812 144.179688 72.359375 143.289062 72.175781 142.375 C 71.992188 141.457031 71.902344 140.535156 71.898438 139.601562 L 71.898438 131.066406 C 71.777344 130.691406 71.167969 130.347656 70.730469 130.089844 C 69.371094 129.359375 68.132812 128.460938 67.023438 127.386719 C 66.757812 127.121094 66.550781 126.8125 66.40625 126.464844 C 66.261719 126.117188 66.1875 125.753906 66.1875 125.375 C 66.1875 125 66.261719 124.636719 66.40625 124.289062 C 66.550781 123.941406 66.757812 123.632812 67.023438 123.363281 C 68.132812 122.292969 69.371094 121.390625 70.730469 120.664062 C 71.144531 120.445312 71.535156 120.191406 71.898438 119.898438 L 71.898438 111.152344 C 71.902344 110.21875 71.992188 109.292969 72.175781 108.378906 C 72.359375 107.464844 72.632812 106.574219 72.988281 105.710938 C 73.347656 104.847656 73.789062 104.03125 74.308594 103.253906 C 74.828125 102.476562 75.417969 101.761719 76.082031 101.101562 C 76.742188 100.441406 77.460938 99.851562 78.238281 99.332031 C 79.019531 98.8125 79.839844 98.375 80.703125 98.015625 C 81.566406 97.65625 82.457031 97.386719 83.375 97.203125 C 84.292969 97.023438 85.21875 96.929688 86.15625 96.929688 L 89.007812 96.929688 L 89.007812 102.617188 L 86.15625 102.617188 C 85.59375 102.617188 85.039062 102.671875 84.488281 102.78125 C 83.9375 102.890625 83.402344 103.054688 82.882812 103.269531 C 82.363281 103.480469 81.871094 103.746094 81.402344 104.054688 C 80.9375 104.367188 80.503906 104.722656 80.109375 105.117188 C 79.710938 105.515625 79.355469 105.945312 79.042969 106.410156 C 78.730469 106.878906 78.46875 107.367188 78.253906 107.886719 C 78.039062 108.402344 77.875 108.9375 77.765625 109.488281 C 77.65625 110.039062 77.601562 110.59375 77.601562 111.152344 L 77.601562 119.6875 C 77.605469 120.285156 77.519531 120.875 77.351562 121.449219 C 77.1875 122.023438 76.941406 122.5625 76.617188 123.066406 C 76.292969 123.574219 75.902344 124.019531 75.449219 124.414062 C 74.996094 124.808594 74.496094 125.128906 73.949219 125.375 C 74.496094 125.625 74.996094 125.945312 75.449219 126.339844 C 75.902344 126.730469 76.292969 127.179688 76.617188 127.683594 C 76.941406 128.1875 77.1875 128.730469 77.351562 129.304688 C 77.519531 129.878906 77.605469 130.46875 77.601562 131.066406 L 77.601562 139.601562 C 77.601562 140.160156 77.65625 140.714844 77.765625 141.265625 C 77.875 141.816406 78.039062 142.347656 78.253906 142.867188 C 78.46875 143.382812 78.730469 143.875 79.042969 144.34375 C 79.355469 144.808594 79.710938 145.238281 80.109375 145.636719 C 80.503906 146.03125 80.9375 146.386719 81.402344 146.695312 C 81.871094 147.007812 82.363281 147.269531 82.882812 147.484375 C 83.402344 147.699219 83.9375 147.863281 84.488281 147.972656 C 85.039062 148.078125 85.59375 148.132812 86.15625 148.132812 L 89.007812 148.132812 Z M 89.007812 153.824219 " fill-opacity="1" fill-rule="nonzero"/><path fill="#f86d58" d="M 131.777344 153.824219 L 128.925781 153.824219 L 128.925781 148.132812 L 131.777344 148.132812 C 132.339844 148.132812 132.894531 148.078125 133.445312 147.972656 C 133.996094 147.863281 134.53125 147.699219 135.050781 147.484375 C 135.570312 147.269531 136.0625 147.007812 136.53125 146.695312 C 136.996094 146.386719 137.429688 146.03125 137.828125 145.636719 C 138.222656 145.238281 138.578125 144.808594 138.890625 144.34375 C 139.203125 143.875 139.464844 143.382812 139.679688 142.867188 C 139.894531 142.347656 140.058594 141.816406 140.167969 141.265625 C 140.277344 140.714844 140.332031 140.160156 140.332031 139.601562 L 140.332031 131.066406 C 140.328125 130.46875 140.414062 129.878906 140.582031 129.304688 C 140.75 128.730469 140.996094 128.1875 141.320312 127.683594 C 141.640625 127.179688 142.03125 126.730469 142.484375 126.339844 C 142.9375 125.945312 143.4375 125.625 143.984375 125.375 C 143.4375 125.128906 142.9375 124.808594 142.484375 124.414062 C 142.03125 124.019531 141.640625 123.574219 141.320312 123.066406 C 140.996094 122.5625 140.75 122.023438 140.582031 121.449219 C 140.414062 120.875 140.328125 120.285156 140.332031 119.6875 L 140.332031 111.152344 C 140.332031 110.59375 140.277344 110.039062 140.167969 109.488281 C 140.058594 108.9375 139.894531 108.402344 139.679688 107.886719 C 139.464844 107.367188 139.203125 106.878906 138.890625 106.410156 C 138.578125 105.945312 138.222656 105.515625 137.828125 105.117188 C 137.429688 104.722656 136.996094 104.367188 136.53125 104.054688 C 136.0625 103.746094 135.570312 103.480469 135.050781 103.269531 C 134.53125 103.054688 133.996094 102.890625 133.445312 102.78125 C 132.894531 102.671875 132.339844 102.617188 131.777344 102.617188 L 128.925781 102.617188 L 128.925781 96.929688 L 131.777344 96.929688 C 132.714844 96.929688 133.640625 97.023438 134.558594 97.203125 C 135.476562 97.386719 136.367188 97.65625 137.230469 98.015625 C 138.09375 98.375 138.917969 98.8125 139.695312 99.332031 C 140.472656 99.851562 141.191406 100.441406 141.855469 101.101562 C 142.515625 101.761719 143.105469 102.476562 143.625 103.253906 C 144.148438 104.03125 144.585938 104.847656 144.945312 105.710938 C 145.304688 106.574219 145.574219 107.464844 145.757812 108.378906 C 145.941406 109.292969 146.035156 110.21875 146.035156 111.152344 L 146.035156 119.6875 C 146.15625 120.058594 146.765625 120.40625 147.203125 120.664062 C 148.566406 121.390625 149.800781 122.292969 150.910156 123.363281 C 151.175781 123.632812 151.382812 123.941406 151.527344 124.289062 C 151.671875 124.636719 151.746094 125 151.746094 125.375 C 151.746094 125.753906 151.671875 126.117188 151.527344 126.464844 C 151.382812 126.8125 151.175781 127.121094 150.910156 127.386719 C 149.800781 128.460938 148.566406 129.359375 147.203125 130.089844 C 146.785156 130.308594 146.394531 130.5625 146.027344 130.855469 L 146.035156 139.601562 C 146.035156 140.535156 145.941406 141.457031 145.757812 142.375 C 145.574219 143.289062 145.304688 144.179688 144.945312 145.039062 C 144.585938 145.902344 144.148438 146.722656 143.625 147.5 C 143.105469 148.273438 142.515625 148.992188 141.855469 149.652344 C 141.191406 150.3125 140.472656 150.902344 139.695312 151.421875 C 138.917969 151.941406 138.09375 152.378906 137.230469 152.738281 C 136.367188 153.09375 135.476562 153.363281 134.558594 153.546875 C 133.640625 153.730469 132.714844 153.824219 131.777344 153.824219 Z M 131.777344 153.824219 " fill-opacity="1" fill-rule="nonzero"/><path fill="#f86d58" d="M 94.710938 54.257812 C 85.6875 54.257812 83.304688 48.675781 83.304688 45.722656 L 86.15625 45.722656 L 89.007812 45.640625 C 89.042969 46.128906 89.464844 48.566406 94.710938 48.566406 C 95.089844 48.566406 95.453125 48.496094 95.800781 48.351562 C 96.152344 48.207031 96.460938 48 96.726562 47.734375 C 96.992188 47.46875 97.199219 47.160156 97.34375 46.8125 C 97.488281 46.460938 97.5625 46.101562 97.5625 45.722656 C 97.5625 45.34375 97.488281 44.980469 97.34375 44.632812 C 97.199219 44.285156 96.992188 43.976562 96.726562 43.710938 C 96.460938 43.445312 96.152344 43.238281 95.800781 43.09375 C 95.453125 42.949219 95.089844 42.878906 94.710938 42.878906 L 91.859375 42.878906 C 91.296875 42.878906 90.742188 42.824219 90.191406 42.714844 C 89.640625 42.605469 89.105469 42.441406 88.585938 42.226562 C 88.066406 42.011719 87.574219 41.75 87.105469 41.4375 C 86.640625 41.128906 86.207031 40.773438 85.808594 40.378906 C 85.414062 39.980469 85.058594 39.550781 84.746094 39.085938 C 84.433594 38.617188 84.171875 38.128906 83.957031 37.609375 C 83.742188 37.089844 83.578125 36.558594 83.46875 36.007812 C 83.359375 35.457031 83.304688 34.902344 83.304688 34.34375 C 83.304688 33.78125 83.359375 33.226562 83.46875 32.679688 C 83.578125 32.128906 83.742188 31.59375 83.957031 31.078125 C 84.171875 30.558594 84.433594 30.066406 84.746094 29.601562 C 85.058594 29.136719 85.414062 28.703125 85.808594 28.308594 C 86.207031 27.914062 86.640625 27.558594 87.105469 27.246094 C 87.574219 26.9375 88.066406 26.671875 88.585938 26.457031 C 89.105469 26.242188 89.640625 26.082031 90.191406 25.972656 C 90.742188 25.863281 91.296875 25.808594 91.859375 25.808594 C 100.878906 25.808594 103.265625 31.390625 103.265625 34.34375 L 97.5625 34.34375 C 97.53125 33.9375 97.109375 31.5 91.859375 31.5 C 91.480469 31.5 91.117188 31.570312 90.769531 31.714844 C 90.417969 31.859375 90.109375 32.066406 89.84375 32.332031 C 89.574219 32.597656 89.371094 32.90625 89.226562 33.253906 C 89.082031 33.601562 89.007812 33.964844 89.007812 34.34375 C 89.007812 34.71875 89.082031 35.082031 89.226562 35.433594 C 89.371094 35.78125 89.574219 36.089844 89.84375 36.355469 C 90.109375 36.621094 90.417969 36.828125 90.769531 36.972656 C 91.117188 37.117188 91.480469 37.1875 91.859375 37.1875 L 94.710938 37.1875 C 95.273438 37.1875 95.828125 37.242188 96.378906 37.351562 C 96.929688 37.460938 97.464844 37.625 97.984375 37.835938 C 98.503906 38.050781 98.996094 38.316406 99.460938 38.625 C 99.929688 38.9375 100.363281 39.292969 100.757812 39.6875 C 101.15625 40.082031 101.511719 40.515625 101.824219 40.980469 C 102.136719 41.445312 102.398438 41.9375 102.613281 42.457031 C 102.828125 42.972656 102.992188 43.507812 103.101562 44.058594 C 103.210938 44.605469 103.265625 45.160156 103.265625 45.722656 C 103.265625 46.28125 103.210938 46.835938 103.101562 47.386719 C 102.992188 47.9375 102.828125 48.46875 102.613281 48.988281 C 102.398438 49.507812 102.136719 49.996094 101.824219 50.464844 C 101.511719 50.929688 101.15625 51.359375 100.757812 51.757812 C 100.363281 52.152344 99.929688 52.507812 99.460938 52.820312 C 98.996094 53.128906 98.503906 53.394531 97.984375 53.605469 C 97.464844 53.820312 96.929688 53.984375 96.378906 54.09375 C 95.828125 54.203125 95.273438 54.257812 94.710938 54.257812 Z M 94.710938 54.257812 " fill-opacity="1" fill-rule="nonzero"/><path fill="#f86d58" d="M 69.046875 54.257812 C 60.027344 54.257812 57.644531 48.675781 57.644531 45.722656 L 60.496094 45.722656 L 63.34375 45.640625 C 63.378906 46.128906 63.800781 48.566406 69.046875 48.566406 C 69.425781 48.566406 69.789062 48.496094 70.140625 48.351562 C 70.488281 48.207031 70.796875 48 71.066406 47.734375 C 71.332031 47.46875 71.539062 47.160156 71.683594 46.8125 C 71.828125 46.460938 71.898438 46.101562 71.898438 45.722656 C 71.898438 45.34375 71.828125 44.980469 71.683594 44.632812 C 71.539062 44.285156 71.332031 43.976562 71.066406 43.710938 C 70.796875 43.445312 70.488281 43.238281 70.140625 43.09375 C 69.789062 42.949219 69.425781 42.878906 69.046875 42.878906 L 66.195312 42.878906 C 65.636719 42.878906 65.078125 42.824219 64.527344 42.714844 C 63.976562 42.605469 63.441406 42.441406 62.921875 42.226562 C 62.40625 42.011719 61.910156 41.75 61.445312 41.4375 C 60.976562 41.128906 60.546875 40.773438 60.148438 40.378906 C 59.75 39.980469 59.398438 39.550781 59.085938 39.085938 C 58.773438 38.617188 58.507812 38.128906 58.292969 37.609375 C 58.078125 37.089844 57.917969 36.558594 57.808594 36.007812 C 57.699219 35.457031 57.644531 34.902344 57.644531 34.34375 C 57.644531 33.78125 57.699219 33.226562 57.808594 32.679688 C 57.917969 32.128906 58.078125 31.59375 58.292969 31.078125 C 58.507812 30.558594 58.773438 30.066406 59.085938 29.601562 C 59.398438 29.136719 59.75 28.703125 60.148438 28.308594 C 60.546875 27.914062 60.976562 27.558594 61.445312 27.246094 C 61.910156 26.9375 62.40625 26.671875 62.921875 26.457031 C 63.441406 26.242188 63.976562 26.082031 64.527344 25.972656 C 65.078125 25.863281 65.636719 25.808594 66.195312 25.808594 C 75.21875 25.808594 77.601562 31.390625 77.601562 34.34375 L 71.898438 34.34375 C 71.867188 33.9375 71.445312 31.5 66.195312 31.5 C 65.820312 31.5 65.457031 31.570312 65.105469 31.714844 C 64.757812 31.859375 64.449219 32.066406 64.179688 32.332031 C 63.914062 32.597656 63.707031 32.90625 63.5625 33.253906 C 63.417969 33.601562 63.34375 33.964844 63.34375 34.34375 C 63.34375 34.71875 63.417969 35.082031 63.5625 35.433594 C 63.707031 35.78125 63.914062 36.089844 64.179688 36.355469 C 64.449219 36.621094 64.757812 36.828125 65.105469 36.972656 C 65.457031 37.117188 65.820312 37.1875 66.195312 37.1875 L 69.046875 37.1875 C 69.609375 37.1875 70.167969 37.242188 70.71875 37.351562 C 71.269531 37.460938 71.804688 37.625 72.320312 37.835938 C 72.839844 38.050781 73.332031 38.316406 73.800781 38.625 C 74.269531 38.9375 74.699219 39.292969 75.097656 39.6875 C 75.492188 40.082031 75.847656 40.515625 76.160156 40.980469 C 76.472656 41.445312 76.734375 41.9375 76.953125 42.457031 C 77.167969 42.972656 77.328125 43.507812 77.4375 44.058594 C 77.546875 44.605469 77.601562 45.160156 77.601562 45.722656 C 77.601562 46.28125 77.546875 46.835938 77.4375 47.386719 C 77.328125 47.9375 77.167969 48.46875 76.953125 48.988281 C 76.734375 49.507812 76.472656 49.996094 76.160156 50.464844 C 75.847656 50.929688 75.492188 51.359375 75.097656 51.757812 C 74.699219 52.152344 74.269531 52.507812 73.800781 52.820312 C 73.332031 53.128906 72.839844 53.394531 72.320312 53.605469 C 71.804688 53.820312 71.269531 53.984375 70.71875 54.09375 C 70.167969 54.203125 69.609375 54.257812 69.046875 54.257812 Z M 69.046875 54.257812 " fill-opacity="1" fill-rule="nonzero"/><path fill="#f86d58" d="M 51.941406 54.257812 L 49.089844 54.257812 C 48.152344 54.257812 47.226562 54.164062 46.308594 53.984375 C 45.390625 53.800781 44.496094 53.53125 43.632812 53.175781 C 42.769531 52.816406 41.945312 52.378906 41.167969 51.859375 C 40.390625 51.339844 39.667969 50.75 39.007812 50.089844 C 38.347656 49.429688 37.753906 48.710938 37.234375 47.933594 C 36.714844 47.160156 36.277344 46.339844 35.917969 45.476562 C 35.558594 44.613281 35.289062 43.722656 35.105469 42.808594 C 34.921875 41.890625 34.832031 40.96875 34.832031 40.03125 C 34.832031 39.097656 34.921875 38.175781 35.105469 37.257812 C 35.289062 36.34375 35.558594 35.453125 35.917969 34.589844 C 36.277344 33.726562 36.714844 32.90625 37.234375 32.128906 C 37.753906 31.355469 38.347656 30.636719 39.007812 29.976562 C 39.667969 29.316406 40.390625 28.726562 41.167969 28.207031 C 41.945312 27.6875 42.769531 27.25 43.632812 26.890625 C 44.496094 26.535156 45.390625 26.265625 46.308594 26.082031 C 47.226562 25.898438 48.152344 25.808594 49.089844 25.808594 L 51.941406 25.808594 L 51.941406 31.5 L 49.089844 31.5 C 48.527344 31.5 47.972656 31.554688 47.421875 31.664062 C 46.871094 31.773438 46.335938 31.933594 45.816406 32.148438 C 45.296875 32.363281 44.804688 32.625 44.335938 32.9375 C 43.871094 33.25 43.4375 33.601562 43.039062 34 C 42.644531 34.394531 42.289062 34.824219 41.976562 35.292969 C 41.664062 35.757812 41.402344 36.25 41.1875 36.765625 C 40.972656 37.285156 40.808594 37.816406 40.699219 38.367188 C 40.589844 38.917969 40.535156 39.472656 40.535156 40.03125 C 40.535156 40.59375 40.589844 41.148438 40.699219 41.699219 C 40.808594 42.246094 40.972656 42.78125 41.1875 43.296875 C 41.402344 43.816406 41.664062 44.308594 41.976562 44.773438 C 42.289062 45.238281 42.644531 45.671875 43.039062 46.066406 C 43.4375 46.464844 43.871094 46.816406 44.335938 47.128906 C 44.804688 47.441406 45.296875 47.703125 45.816406 47.917969 C 46.335938 48.132812 46.871094 48.292969 47.421875 48.402344 C 47.972656 48.511719 48.527344 48.566406 49.089844 48.566406 L 51.941406 48.566406 Z M 51.941406 54.257812 " fill-opacity="1" fill-rule="nonzero"/></svg>