<svg xmlns="http://www.w3.org/2000/svg" xmlns:xlink="http://www.w3.org/1999/xlink" width="260" zoomAndPan="magnify" viewBox="0 0 194.87999 195.000001" height="260" preserveAspectRatio="xMidYMid meet" version="1.0"><defs><clipPath id="id1"><path d="M 19.839844 16 L 126 16 L 126 67 L 19.839844 67 Z M 19.839844 16 " clip-rule="nonzero"/></clipPath><clipPath id="id2"><path d="M 42 8.316406 L 175.042969 8.316406 L 175.042969 53 L 42 53 Z M 42 8.316406 " clip-rule="nonzero"/></clipPath><clipPath id="id3"><path d="M 42 69 L 175.042969 69 L 175.042969 185.902344 L 42 185.902344 Z M 42 69 " clip-rule="nonzero"/></clipPath><clipPath id="id4"><path d="M 169 58 L 175.042969 58 L 175.042969 64 L 169 64 Z M 169 58 " clip-rule="nonzero"/></clipPath></defs><g clip-path="url(#id1)"><path fill="#f86d58" d="M 122.382812 66.585938 L 22.613281 66.585938 C 22.246094 66.585938 21.890625 66.515625 21.550781 66.375 C 21.210938 66.234375 20.914062 66.035156 20.652344 65.773438 C 20.394531 65.511719 20.191406 65.214844 20.050781 64.875 C 19.910156 64.53125 19.839844 64.179688 19.839844 63.8125 L 19.839844 19.414062 C 19.839844 19.046875 19.910156 18.691406 20.050781 18.351562 C 20.191406 18.011719 20.394531 17.710938 20.652344 17.453125 C 20.914062 17.191406 21.210938 16.992188 21.550781 16.851562 C 21.890625 16.710938 22.246094 16.640625 22.613281 16.640625 L 122.382812 16.640625 C 122.75 16.640625 123.101562 16.710938 123.441406 16.851562 C 123.78125 16.992188 124.082031 17.191406 124.34375 17.453125 C 124.601562 17.710938 124.800781 18.011719 124.941406 18.351562 C 125.082031 18.691406 125.152344 19.046875 125.152344 19.414062 L 125.152344 63.8125 C 125.152344 64.179688 125.082031 64.53125 124.941406 64.875 C 124.800781 65.214844 124.601562 65.511719 124.34375 65.773438 C 124.082031 66.035156 123.78125 66.234375 123.441406 66.375 C 123.101562 66.515625 122.75 66.585938 122.382812 66.585938 Z M 25.382812 61.035156 L 119.609375 61.035156 L 119.609375 22.1875 L 25.382812 22.1875 Z M 25.382812 61.035156 " fill-opacity="1" fill-rule="nonzero"/></g><path fill="#f86d58" d="M 172.265625 47.164062 L 139.011719 47.164062 C 138.644531 47.164062 138.289062 47.09375 137.949219 46.949219 C 137.609375 46.808594 137.3125 46.609375 137.050781 46.347656 C 136.792969 46.089844 136.589844 45.789062 136.449219 45.449219 C 136.308594 45.109375 136.238281 44.753906 136.238281 44.386719 L 136.238281 11.089844 L 141.78125 11.089844 L 141.78125 41.613281 L 172.265625 41.613281 Z M 172.265625 47.164062 " fill-opacity="1" fill-rule="nonzero"/><g clip-path="url(#id2)"><path fill="#f86d58" d="M 175.039062 52.710938 L 169.496094 52.710938 L 169.496094 45.535156 L 137.863281 13.863281 L 47.554688 13.863281 L 47.554688 19.414062 L 42.011719 19.414062 L 42.011719 11.089844 C 42.011719 10.722656 42.082031 10.367188 42.222656 10.027344 C 42.363281 9.6875 42.5625 9.386719 42.824219 9.128906 C 43.085938 8.867188 43.382812 8.667969 43.722656 8.527344 C 44.0625 8.386719 44.417969 8.316406 44.785156 8.316406 L 139.011719 8.316406 C 139.777344 8.316406 140.429688 8.585938 140.96875 9.128906 L 174.226562 42.425781 C 174.769531 42.96875 175.039062 43.621094 175.039062 44.386719 Z M 175.039062 52.710938 " fill-opacity="1" fill-rule="nonzero"/></g><path fill="#f86d58" d="M 42.011719 72.136719 L 47.554688 72.136719 L 47.554688 77.683594 L 42.011719 77.683594 Z M 42.011719 72.136719 " fill-opacity="1" fill-rule="nonzero"/><path fill="#f86d58" d="M 42.011719 83.234375 L 47.554688 83.234375 L 47.554688 163.707031 L 42.011719 163.707031 Z M 42.011719 83.234375 " fill-opacity="1" fill-rule="nonzero"/><g clip-path="url(#id3)"><path fill="#f86d58" d="M 172.265625 185.902344 L 44.785156 185.902344 C 44.417969 185.902344 44.0625 185.832031 43.722656 185.691406 C 43.382812 185.550781 43.085938 185.351562 42.824219 185.089844 C 42.5625 184.832031 42.363281 184.53125 42.222656 184.191406 C 42.082031 183.851562 42.011719 183.496094 42.011719 183.128906 L 42.011719 169.253906 L 47.554688 169.253906 L 47.554688 180.355469 L 169.496094 180.355469 L 169.496094 69.359375 L 175.039062 69.359375 L 175.039062 183.128906 C 175.039062 183.496094 174.96875 183.851562 174.828125 184.191406 C 174.6875 184.53125 174.488281 184.832031 174.226562 185.089844 C 173.964844 185.351562 173.667969 185.550781 173.328125 185.691406 C 172.988281 185.832031 172.632812 185.902344 172.265625 185.902344 Z M 172.265625 185.902344 " fill-opacity="1" fill-rule="nonzero"/></g><g clip-path="url(#id4)"><path fill="#f86d58" d="M 169.496094 58.261719 L 175.039062 58.261719 L 175.039062 63.8125 L 169.496094 63.8125 Z M 169.496094 58.261719 " fill-opacity="1" fill-rule="nonzero"/></g><path fill="#f86d58" d="M 80.8125 55.488281 C 72.042969 55.488281 69.726562 50.042969 69.726562 47.164062 L 72.496094 47.164062 L 75.269531 47.082031 C 75.300781 47.558594 75.710938 49.9375 80.8125 49.9375 C 81.179688 49.9375 81.53125 49.867188 81.871094 49.726562 C 82.210938 49.585938 82.511719 49.382812 82.769531 49.125 C 83.03125 48.863281 83.230469 48.5625 83.371094 48.222656 C 83.511719 47.882812 83.582031 47.53125 83.582031 47.164062 C 83.582031 46.792969 83.511719 46.441406 83.371094 46.101562 C 83.230469 45.761719 83.03125 45.460938 82.769531 45.199219 C 82.511719 44.941406 82.210938 44.738281 81.871094 44.597656 C 81.53125 44.457031 81.179688 44.386719 80.8125 44.386719 L 78.039062 44.386719 C 77.496094 44.386719 76.953125 44.335938 76.417969 44.226562 C 75.882812 44.121094 75.363281 43.964844 74.859375 43.753906 C 74.355469 43.542969 73.875 43.289062 73.421875 42.984375 C 72.96875 42.679688 72.546875 42.335938 72.160156 41.949219 C 71.777344 41.5625 71.429688 41.140625 71.128906 40.6875 C 70.824219 40.234375 70.566406 39.753906 70.359375 39.25 C 70.148438 38.742188 69.992188 38.222656 69.886719 37.6875 C 69.78125 37.152344 69.726562 36.609375 69.726562 36.0625 C 69.726562 35.515625 69.78125 34.976562 69.886719 34.4375 C 69.992188 33.902344 70.148438 33.382812 70.359375 32.878906 C 70.566406 32.371094 70.824219 31.890625 71.128906 31.4375 C 71.429688 30.984375 71.777344 30.5625 72.160156 30.175781 C 72.546875 29.789062 72.96875 29.445312 73.421875 29.140625 C 73.875 28.835938 74.355469 28.582031 74.859375 28.371094 C 75.363281 28.164062 75.882812 28.003906 76.417969 27.898438 C 76.953125 27.792969 77.496094 27.738281 78.039062 27.738281 C 86.808594 27.738281 89.125 33.183594 89.125 36.0625 L 83.582031 36.0625 C 83.550781 35.667969 83.140625 33.289062 78.039062 33.289062 C 77.671875 33.289062 77.320312 33.359375 76.980469 33.5 C 76.640625 33.640625 76.339844 33.839844 76.082031 34.101562 C 75.820312 34.359375 75.621094 34.660156 75.480469 35 C 75.339844 35.339844 75.269531 35.695312 75.269531 36.0625 C 75.269531 36.429688 75.339844 36.785156 75.480469 37.125 C 75.621094 37.464844 75.820312 37.765625 76.082031 38.023438 C 76.339844 38.285156 76.640625 38.484375 76.980469 38.625 C 77.320312 38.765625 77.671875 38.835938 78.039062 38.835938 L 80.8125 38.835938 C 81.359375 38.835938 81.898438 38.890625 82.433594 38.996094 C 82.96875 39.105469 83.488281 39.261719 83.992188 39.472656 C 84.496094 39.679688 84.976562 39.9375 85.429688 40.242188 C 85.882812 40.542969 86.304688 40.890625 86.691406 41.277344 C 87.078125 41.664062 87.421875 42.082031 87.726562 42.539062 C 88.027344 42.992188 88.285156 43.472656 88.492188 43.976562 C 88.703125 44.480469 88.859375 45.003906 88.964844 45.539062 C 89.074219 46.074219 89.125 46.617188 89.125 47.164062 C 89.125 47.707031 89.074219 48.25 88.964844 48.785156 C 88.859375 49.324219 88.703125 49.84375 88.492188 50.347656 C 88.285156 50.851562 88.027344 51.332031 87.726562 51.785156 C 87.421875 52.242188 87.078125 52.660156 86.691406 53.046875 C 86.304688 53.433594 85.882812 53.78125 85.429688 54.082031 C 84.976562 54.386719 84.496094 54.644531 83.992188 54.851562 C 83.488281 55.0625 82.96875 55.21875 82.433594 55.328125 C 81.898438 55.433594 81.359375 55.488281 80.8125 55.488281 Z M 80.8125 55.488281 " fill-opacity="1" fill-rule="nonzero"/><path fill="#f86d58" d="M 58.640625 55.488281 C 58.09375 55.488281 57.554688 55.433594 57.019531 55.328125 C 56.484375 55.21875 55.964844 55.0625 55.460938 54.851562 C 54.953125 54.644531 54.476562 54.386719 54.023438 54.082031 C 53.566406 53.78125 53.148438 53.433594 52.761719 53.046875 C 52.375 52.660156 52.03125 52.242188 51.726562 51.785156 C 51.425781 51.332031 51.167969 50.851562 50.960938 50.347656 C 50.75 49.84375 50.59375 49.324219 50.488281 48.785156 C 50.378906 48.25 50.328125 47.707031 50.328125 47.164062 L 50.328125 44.386719 L 55.871094 44.386719 L 55.871094 47.164062 C 55.871094 47.53125 55.941406 47.882812 56.082031 48.222656 C 56.222656 48.5625 56.421875 48.863281 56.679688 49.125 C 56.941406 49.382812 57.242188 49.585938 57.582031 49.726562 C 57.917969 49.867188 58.273438 49.9375 58.640625 49.9375 C 59.007812 49.9375 59.363281 49.867188 59.703125 49.726562 C 60.039062 49.585938 60.339844 49.382812 60.601562 49.125 C 60.859375 48.863281 61.0625 48.5625 61.203125 48.222656 C 61.34375 47.882812 61.414062 47.53125 61.414062 47.164062 L 61.414062 27.738281 L 66.953125 27.738281 L 66.953125 47.164062 C 66.953125 47.707031 66.902344 48.25 66.796875 48.785156 C 66.6875 49.324219 66.53125 49.84375 66.320312 50.347656 C 66.113281 50.851562 65.855469 51.332031 65.554688 51.785156 C 65.25 52.242188 64.90625 52.660156 64.519531 53.046875 C 64.132812 53.433594 63.714844 53.78125 63.261719 54.082031 C 62.804688 54.386719 62.328125 54.644531 61.824219 54.851562 C 61.316406 55.0625 60.796875 55.21875 60.261719 55.328125 C 59.726562 55.433594 59.1875 55.488281 58.640625 55.488281 Z M 58.640625 55.488281 " fill-opacity="1" fill-rule="nonzero"/><path fill="#f86d58" d="M 89.125 152.605469 L 86.355469 152.605469 C 85.445312 152.605469 84.542969 152.515625 83.652344 152.335938 C 82.761719 152.15625 81.894531 151.894531 81.054688 151.546875 C 80.214844 151.195312 79.417969 150.769531 78.660156 150.261719 C 77.902344 149.757812 77.203125 149.179688 76.5625 148.539062 C 75.917969 147.894531 75.34375 147.191406 74.839844 146.4375 C 74.332031 145.679688 73.90625 144.878906 73.558594 144.039062 C 73.207031 143.199219 72.945312 142.332031 72.765625 141.4375 C 72.589844 140.542969 72.5 139.640625 72.496094 138.730469 L 72.496094 130.40625 C 72.378906 130.042969 71.789062 129.707031 71.363281 129.457031 C 70.039062 128.746094 68.835938 127.867188 67.757812 126.820312 C 67.5 126.558594 67.296875 126.257812 67.15625 125.917969 C 67.015625 125.578125 66.945312 125.226562 66.945312 124.859375 C 66.945312 124.488281 67.015625 124.136719 67.15625 123.796875 C 67.296875 123.457031 67.5 123.15625 67.757812 122.894531 C 68.835938 121.847656 70.039062 120.96875 71.363281 120.257812 C 71.765625 120.046875 72.144531 119.800781 72.496094 119.511719 L 72.496094 110.984375 C 72.5 110.074219 72.589844 109.171875 72.765625 108.277344 C 72.945312 107.386719 73.207031 106.519531 73.558594 105.675781 C 73.90625 104.835938 74.332031 104.035156 74.839844 103.277344 C 75.34375 102.523438 75.917969 101.820312 76.5625 101.175781 C 77.203125 100.535156 77.902344 99.957031 78.660156 99.453125 C 79.417969 98.945312 80.214844 98.519531 81.054688 98.167969 C 81.894531 97.820312 82.761719 97.558594 83.652344 97.378906 C 84.542969 97.199219 85.445312 97.109375 86.355469 97.109375 L 89.125 97.109375 L 89.125 102.660156 L 86.355469 102.660156 C 85.808594 102.660156 85.269531 102.710938 84.734375 102.820312 C 84.195312 102.925781 83.675781 103.082031 83.171875 103.292969 C 82.667969 103.5 82.1875 103.757812 81.734375 104.0625 C 81.28125 104.367188 80.863281 104.710938 80.476562 105.097656 C 80.089844 105.484375 79.746094 105.902344 79.441406 106.359375 C 79.136719 106.8125 78.882812 107.292969 78.671875 107.796875 C 78.464844 108.300781 78.308594 108.824219 78.199219 109.359375 C 78.09375 109.894531 78.039062 110.4375 78.039062 110.984375 L 78.039062 119.308594 C 78.042969 119.890625 77.960938 120.464844 77.796875 121.027344 C 77.636719 121.585938 77.394531 122.113281 77.082031 122.605469 C 76.765625 123.097656 76.390625 123.535156 75.949219 123.917969 C 75.507812 124.300781 75.019531 124.613281 74.492188 124.859375 C 75.019531 125.101562 75.507812 125.414062 75.949219 125.796875 C 76.390625 126.179688 76.765625 126.617188 77.082031 127.109375 C 77.394531 127.601562 77.636719 128.128906 77.796875 128.6875 C 77.960938 129.25 78.042969 129.824219 78.039062 130.40625 L 78.039062 138.730469 C 78.039062 139.277344 78.09375 139.820312 78.199219 140.355469 C 78.308594 140.890625 78.464844 141.414062 78.671875 141.917969 C 78.882812 142.421875 79.136719 142.902344 79.441406 143.355469 C 79.746094 143.8125 80.089844 144.230469 80.476562 144.617188 C 80.863281 145.003906 81.28125 145.347656 81.734375 145.652344 C 82.1875 145.957031 82.667969 146.214844 83.171875 146.421875 C 83.675781 146.632812 84.195312 146.789062 84.734375 146.894531 C 85.269531 147.003906 85.808594 147.054688 86.355469 147.054688 L 89.125 147.054688 Z M 89.125 152.605469 " fill-opacity="1" fill-rule="nonzero"/><path fill="#f86d58" d="M 130.695312 152.605469 L 127.925781 152.605469 L 127.925781 147.054688 L 130.695312 147.054688 C 131.242188 147.054688 131.78125 147.003906 132.320312 146.894531 C 132.855469 146.789062 133.375 146.632812 133.878906 146.421875 C 134.382812 146.214844 134.863281 145.957031 135.316406 145.652344 C 135.769531 145.347656 136.1875 145.003906 136.574219 144.617188 C 136.960938 144.230469 137.304688 143.8125 137.609375 143.355469 C 137.914062 142.902344 138.167969 142.421875 138.378906 141.917969 C 138.585938 141.414062 138.746094 140.890625 138.851562 140.355469 C 138.957031 139.820312 139.011719 139.277344 139.011719 138.730469 L 139.011719 130.40625 C 139.007812 129.824219 139.089844 129.25 139.253906 128.6875 C 139.414062 128.128906 139.65625 127.601562 139.96875 127.109375 C 140.285156 126.617188 140.660156 126.179688 141.101562 125.796875 C 141.542969 125.414062 142.03125 125.101562 142.5625 124.859375 C 142.03125 124.613281 141.542969 124.300781 141.101562 123.917969 C 140.660156 123.535156 140.285156 123.097656 139.96875 122.605469 C 139.65625 122.113281 139.414062 121.585938 139.253906 121.027344 C 139.089844 120.464844 139.007812 119.890625 139.011719 119.308594 L 139.011719 110.984375 C 139.011719 110.4375 138.957031 109.894531 138.851562 109.359375 C 138.746094 108.824219 138.585938 108.300781 138.378906 107.796875 C 138.167969 107.292969 137.914062 106.8125 137.609375 106.359375 C 137.304688 105.902344 136.960938 105.484375 136.574219 105.097656 C 136.1875 104.710938 135.769531 104.367188 135.316406 104.0625 C 134.863281 103.757812 134.382812 103.5 133.878906 103.292969 C 133.375 103.082031 132.855469 102.925781 132.320312 102.820312 C 131.78125 102.710938 131.242188 102.660156 130.695312 102.660156 L 127.925781 102.660156 L 127.925781 97.109375 L 130.695312 97.109375 C 131.605469 97.109375 132.507812 97.199219 133.398438 97.378906 C 134.289062 97.558594 135.15625 97.820312 135.996094 98.167969 C 136.835938 98.519531 137.636719 98.945312 138.390625 99.453125 C 139.148438 99.957031 139.847656 100.535156 140.488281 101.175781 C 141.132812 101.820312 141.707031 102.523438 142.214844 103.277344 C 142.71875 104.035156 143.144531 104.835938 143.492188 105.675781 C 143.84375 106.519531 144.105469 107.386719 144.285156 108.277344 C 144.460938 109.171875 144.550781 110.074219 144.554688 110.984375 L 144.554688 119.308594 C 144.671875 119.671875 145.261719 120.011719 145.691406 120.257812 C 147.011719 120.96875 148.214844 121.847656 149.292969 122.894531 C 149.550781 123.15625 149.753906 123.457031 149.894531 123.796875 C 150.035156 124.136719 150.105469 124.488281 150.105469 124.859375 C 150.105469 125.226562 150.035156 125.578125 149.894531 125.917969 C 149.753906 126.257812 149.550781 126.558594 149.292969 126.820312 C 148.214844 127.867188 147.011719 128.746094 145.691406 129.457031 C 145.285156 129.667969 144.902344 129.914062 144.546875 130.203125 L 144.554688 138.730469 C 144.550781 139.640625 144.460938 140.542969 144.285156 141.4375 C 144.105469 142.332031 143.84375 143.199219 143.492188 144.039062 C 143.144531 144.878906 142.71875 145.679688 142.214844 146.4375 C 141.707031 147.191406 141.132812 147.894531 140.488281 148.539062 C 139.847656 149.179688 139.148438 149.757812 138.390625 150.261719 C 137.636719 150.769531 136.835938 151.195312 135.996094 151.546875 C 135.15625 151.894531 134.289062 152.15625 133.398438 152.335938 C 132.507812 152.515625 131.605469 152.605469 130.695312 152.605469 Z M 130.695312 152.605469 " fill-opacity="1" fill-rule="nonzero"/><path fill="#f86d58" d="M 108.527344 116.53125 C 108.160156 116.53125 107.800781 116.496094 107.445312 116.425781 C 107.085938 116.355469 106.742188 116.25 106.40625 116.109375 C 106.066406 115.972656 105.75 115.800781 105.445312 115.597656 C 105.144531 115.394531 104.863281 115.164062 104.605469 114.90625 C 104.347656 114.648438 104.117188 114.371094 103.917969 114.066406 C 103.714844 113.761719 103.542969 113.445312 103.40625 113.105469 C 103.265625 112.769531 103.160156 112.421875 103.089844 112.066406 C 103.019531 111.707031 102.984375 111.347656 102.984375 110.984375 C 102.984375 110.617188 103.019531 110.257812 103.089844 109.902344 C 103.160156 109.542969 103.265625 109.195312 103.40625 108.859375 C 103.542969 108.523438 103.714844 108.203125 103.917969 107.898438 C 104.117188 107.597656 104.347656 107.316406 104.605469 107.058594 C 104.863281 106.800781 105.144531 106.570312 105.445312 106.367188 C 105.75 106.167969 106.066406 105.996094 106.40625 105.855469 C 106.742188 105.714844 107.085938 105.613281 107.445312 105.539062 C 107.800781 105.46875 108.160156 105.433594 108.527344 105.433594 C 108.890625 105.433594 109.25 105.46875 109.605469 105.539062 C 109.964844 105.613281 110.308594 105.714844 110.648438 105.855469 C 110.984375 105.996094 111.300781 106.167969 111.605469 106.367188 C 111.90625 106.570312 112.1875 106.800781 112.445312 107.058594 C 112.703125 107.316406 112.933594 107.597656 113.132812 107.898438 C 113.335938 108.203125 113.507812 108.523438 113.644531 108.859375 C 113.785156 109.195312 113.890625 109.542969 113.960938 109.902344 C 114.03125 110.257812 114.066406 110.617188 114.066406 110.984375 C 114.066406 111.347656 114.03125 111.707031 113.960938 112.066406 C 113.890625 112.421875 113.785156 112.769531 113.644531 113.105469 C 113.507812 113.445312 113.335938 113.761719 113.132812 114.066406 C 112.933594 114.371094 112.703125 114.648438 112.445312 114.90625 C 112.1875 115.164062 111.90625 115.394531 111.605469 115.597656 C 111.300781 115.800781 110.984375 115.972656 110.648438 116.109375 C 110.308594 116.25 109.964844 116.355469 109.605469 116.425781 C 109.25 116.496094 108.890625 116.53125 108.527344 116.53125 Z M 108.527344 110.984375 Z M 108.527344 110.984375 " fill-opacity="1" fill-rule="nonzero"/><path fill="#f86d58" d="M 102.984375 144.28125 L 97.441406 144.28125 C 97.226562 144.28125 97.015625 144.257812 96.804688 144.207031 C 96.597656 144.160156 96.394531 144.085938 96.203125 143.992188 C 96.011719 143.894531 95.832031 143.777344 95.667969 143.640625 C 95.503906 143.503906 95.355469 143.351562 95.226562 143.179688 C 95.097656 143.007812 94.992188 142.824219 94.902344 142.628906 C 94.816406 142.429688 94.753906 142.226562 94.714844 142.015625 C 94.675781 141.804688 94.660156 141.59375 94.671875 141.378906 C 94.679688 141.164062 94.714844 140.953125 94.773438 140.746094 L 100.316406 121.324219 C 100.398438 121.03125 100.527344 120.761719 100.695312 120.515625 C 100.867188 120.265625 101.070312 120.050781 101.3125 119.867188 C 101.554688 119.6875 101.816406 119.546875 102.101562 119.453125 C 102.386719 119.355469 102.679688 119.308594 102.984375 119.308594 L 111.296875 119.308594 C 111.527344 119.308594 111.753906 119.335938 111.972656 119.390625 C 112.195312 119.449219 112.410156 119.53125 112.609375 119.640625 C 112.8125 119.75 113 119.878906 113.167969 120.035156 C 113.335938 120.191406 113.484375 120.363281 113.609375 120.554688 C 113.738281 120.746094 113.835938 120.953125 113.914062 121.167969 C 113.988281 121.386719 114.035156 121.609375 114.058594 121.835938 C 114.078125 122.066406 114.070312 122.292969 114.035156 122.519531 C 113.996094 122.746094 113.933594 122.964844 113.84375 123.175781 L 105.53125 142.601562 C 105.3125 143.109375 104.96875 143.519531 104.507812 143.824219 C 104.046875 144.128906 103.535156 144.28125 102.984375 144.28125 Z M 101.113281 138.730469 L 101.15625 138.730469 L 107.09375 124.859375 L 105.074219 124.859375 Z M 101.113281 138.730469 " fill-opacity="1" fill-rule="nonzero"/></svg>