<svg xmlns="http://www.w3.org/2000/svg" xmlns:xlink="http://www.w3.org/1999/xlink" width="260" zoomAndPan="magnify" viewBox="0 0 194.87999 195.000001" height="260" preserveAspectRatio="xMidYMid meet" version="1.0"><defs><clipPath id="id1"><path d="M 3.972656 14 L 191.261719 14 L 191.261719 179 L 3.972656 179 Z M 3.972656 14 " clip-rule="nonzero"/></clipPath></defs><path fill="#f86d58" d="M 97.617188 80.019531 C 88.363281 80.019531 80.863281 87.519531 80.863281 96.777344 C 80.863281 106.03125 88.363281 113.53125 97.617188 113.53125 C 106.875 113.53125 114.375 106.03125 114.375 96.777344 C 114.375 87.519531 106.875 80.019531 97.617188 80.019531 Z M 97.617188 80.019531 " fill-opacity="1" fill-rule="nonzero"/><g clip-path="url(#id1)"><path fill="#f86d58" d="M 39.199219 126.449219 C 40.847656 126.996094 42.492188 127.550781 44.179688 128.027344 C 43.632812 130.21875 43.15625 132.378906 42.710938 134.613281 C 38.871094 154.921875 41.867188 171.011719 51.453125 176.539062 C 61.332031 182.242188 77.9375 176.390625 94.105469 162.234375 C 95.386719 161.101562 96.667969 159.929688 97.945312 158.683594 C 99.554688 160.257812 101.238281 161.757812 102.917969 163.214844 C 118.570312 176.679688 134.046875 182.125 143.597656 176.609375 C 153.476562 170.902344 156.691406 153.601562 152.527344 132.527344 C 152.199219 130.921875 151.832031 129.273438 151.425781 127.589844 C 152.597656 127.261719 153.726562 126.894531 154.867188 126.527344 C 175.976562 119.542969 191.261719 108.234375 191.261719 96.636719 C 191.261719 85.554688 176.851562 74.796875 156.949219 67.953125 L 156.949219 67.945312 C 154.976562 67.289062 153 66.664062 151.027344 66.082031 C 151.355469 64.730469 151.652344 63.371094 151.941406 62.023438 C 156.441406 40.214844 153.476562 22.703125 143.488281 16.917969 C 133.867188 11.394531 118.171875 17.136719 102.300781 30.96875 C 100.722656 32.316406 99.195312 33.746094 97.726562 35.175781 C 96.738281 34.222656 95.714844 33.269531 94.691406 32.355469 C 78.046875 17.574219 61.371094 11.355469 51.382812 17.175781 C 41.796875 22.742188 38.941406 39.242188 42.96875 59.859375 C 43.375 61.914062 43.8125 63.917969 44.320312 65.972656 C 41.976562 66.625 39.675781 67.359375 37.515625 68.132812 C 17.980469 74.898438 3.972656 85.585938 3.972656 96.636719 C 3.972656 108.054688 18.894531 119.496094 39.199219 126.449219 Z M 88.949219 156.253906 C 82.917969 161.78125 75.925781 166.167969 68.316406 169.171875 C 64.257812 171.105469 59.574219 171.292969 55.398438 169.648438 C 49.585938 166.285156 47.167969 153.367188 50.460938 135.984375 C 50.867188 133.941406 51.304688 131.890625 51.8125 129.875 C 60.003906 131.632812 68.269531 132.839844 76.648438 133.457031 C 81.480469 140.300781 86.777344 146.851562 92.453125 152.992188 C 91.28125 154.125 90.109375 155.222656 88.941406 156.246094 Z M 135.402344 87.558594 C 133.6875 84.335938 131.929688 81.121094 130.097656 77.976562 C 128.304688 74.867188 126.4375 71.792969 124.503906 68.757812 C 130.394531 69.492188 136.027344 70.472656 141.296875 71.683594 C 139.609375 77.101562 137.636719 82.367188 135.402344 87.558594 Z M 135.472656 105.773438 C 137.816406 111.082031 139.867188 116.460938 141.65625 121.984375 C 135.980469 123.265625 130.246094 124.257812 124.464844 124.910156 C 126.4375 121.835938 128.304688 118.691406 130.136719 115.546875 C 132 112.324219 133.757812 109.066406 135.472656 105.773438 Z M 131.246094 96.675781 C 128.792969 101.722656 126.15625 106.695312 123.347656 111.597656 C 120.570312 116.460938 117.605469 121.179688 114.496094 125.863281 C 109.050781 126.269531 103.378906 126.449219 97.632812 126.449219 C 91.890625 126.449219 86.335938 126.269531 80.957031 125.933594 C 77.773438 121.289062 74.777344 116.53125 71.960938 111.667969 C 69.144531 106.804688 66.542969 101.863281 64.09375 96.816406 L 64.078125 96.816406 C 66.488281 91.765625 69.128906 86.824219 71.90625 81.964844 C 74.683594 77.101562 77.6875 72.378906 80.832031 67.734375 C 86.320312 67.328125 91.914062 67.109375 97.625 67.109375 C 103.339844 67.109375 108.964844 67.328125 114.421875 67.734375 C 117.527344 72.347656 120.492188 77.0625 123.308594 81.894531 C 126.125 86.722656 128.753906 91.664062 131.246094 96.675781 Z M 65.09375 78.046875 C 63.296875 81.152344 61.542969 84.328125 59.894531 87.550781 C 57.59375 82.101562 55.648438 76.765625 54.042969 71.605469 C 59.308594 70.4375 64.90625 69.484375 70.71875 68.75 C 68.792969 71.785156 66.886719 74.890625 65.09375 78.046875 Z M 59.902344 106.0625 C 61.589844 109.285156 63.304688 112.472656 65.132812 115.617188 C 66.996094 118.800781 68.902344 121.984375 70.914062 125.089844 C 65.210938 124.464844 59.535156 123.554688 53.941406 122.34375 C 55.546875 117.074219 57.5625 111.628906 59.902344 106.0625 Z M 97.914062 147.359375 C 94.183594 143.339844 90.453125 138.882812 86.832031 134.082031 C 90.34375 134.230469 93.964844 134.300781 97.625 134.300781 C 101.394531 134.300781 105.085938 134.230469 108.746094 134.042969 C 105.382812 138.6875 101.761719 143.121094 97.914062 147.359375 Z M 145.726562 158.347656 C 145.394531 162.804688 143.199219 166.96875 139.6875 169.789062 C 133.875 173.152344 121.472656 168.765625 108.082031 157.277344 C 106.546875 155.957031 105.007812 154.53125 103.441406 153.070312 C 109.035156 146.890625 114.195312 140.339844 118.875 133.464844 C 127.25 132.769531 135.589844 131.492188 143.824219 129.625 C 144.191406 131.125 144.519531 132.621094 144.816406 134.089844 C 146.609375 141.996094 146.898438 150.222656 145.726562 158.347656 Z M 148.90625 73.621094 C 150.808594 74.167969 152.636719 74.75 154.390625 75.335938 C 171.433594 81.191406 183.398438 89.898438 183.398438 96.558594 C 183.398438 103.730469 170.628906 112.984375 152.378906 119.019531 C 151.355469 119.347656 150.332031 119.675781 149.269531 119.972656 C 146.710938 111.996094 143.566406 104.207031 139.945312 96.628906 C 143.457031 89.167969 146.421875 81.480469 148.90625 73.621094 Z M 107.453125 36.890625 C 121.070312 25.042969 133.757812 20.402344 139.539062 23.726562 C 145.71875 27.277344 148.101562 41.613281 144.222656 60.453125 C 143.964844 61.695312 143.707031 62.902344 143.378906 64.113281 C 135.257812 62.289062 127.03125 60.96875 118.757812 60.234375 C 114.007812 53.421875 108.808594 46.914062 103.175781 40.800781 C 104.601562 39.453125 105.992188 38.171875 107.453125 36.890625 Z M 97.695312 46.40625 C 101.535156 50.574219 105.15625 54.960938 108.519531 59.492188 C 101.277344 59.164062 93.996094 59.164062 86.753906 59.492188 C 90.335938 54.78125 94.035156 50.394531 97.695312 46.40625 Z M 55.261719 23.984375 C 61.410156 20.402344 75.050781 25.519531 89.425781 38.25 C 90.335938 39.054688 91.25 39.933594 92.203125 40.808594 C 86.53125 46.914062 81.300781 53.421875 76.507812 60.226562 C 68.246094 60.960938 60.050781 62.242188 51.925781 64.035156 C 51.453125 62.171875 51.054688 60.265625 50.648438 58.363281 C 47.207031 40.652344 49.476562 27.308594 55.261719 23.984375 Z M 40.082031 75.554688 C 42.164062 74.820312 44.289062 74.167969 46.410156 73.542969 C 48.898438 81.480469 51.894531 89.277344 55.367188 96.808594 C 51.859375 104.457031 48.820312 112.355469 46.300781 120.402344 L 46.292969 120.410156 C 44.757812 119.972656 43.257812 119.496094 41.757812 118.980469 C 33.972656 116.53125 25.113281 112.652344 18.714844 107.570312 C 15.023438 105.011719 12.535156 101.0625 11.839844 96.628906 C 11.839844 89.929688 23.398438 81.371094 40.082031 75.554688 Z M 40.082031 75.554688 " fill-opacity="1" fill-rule="nonzero"/></g></svg>