<svg xmlns="http://www.w3.org/2000/svg" xmlns:xlink="http://www.w3.org/1999/xlink" width="260" zoomAndPan="magnify" viewBox="0 0 194.87999 195.000001" height="260" preserveAspectRatio="xMidYMid meet" version="1.0"><defs><clipPath id="id1"><path d="M 11.835938 13 L 180.308594 13 L 180.308594 178 L 11.835938 178 Z M 11.835938 13 " clip-rule="nonzero"/></clipPath></defs><g clip-path="url(#id1)"><path fill="#f86d58" d="M 96.066406 13.148438 C 49.546875 13.148438 11.835938 50.859375 11.835938 97.394531 C 11.835938 134.605469 35.964844 166.183594 69.445312 177.324219 C 73.660156 178.09375 75.195312 175.492188 75.195312 173.269531 C 75.195312 171.261719 75.117188 165.96875 75.074219 158.9375 C 51.648438 164.027344 46.703125 147.644531 46.703125 147.644531 C 42.875 137.917969 37.351562 135.320312 37.351562 135.320312 C 29.699219 130.089844 37.929688 130.199219 37.929688 130.199219 C 46.378906 130.804688 50.839844 138.890625 50.839844 138.890625 C 58.34375 151.769531 70.546875 148.035156 75.34375 145.882812 C 76.113281 140.453125 78.28125 136.734375 80.695312 134.632812 C 61.992188 132.503906 42.324219 125.28125 42.324219 92.988281 C 42.324219 83.800781 45.609375 76.28125 51 70.394531 C 50.125 68.253906 47.242188 59.683594 51.820312 48.097656 C 51.820312 48.097656 58.894531 45.820312 74.996094 56.734375 C 81.703125 54.859375 88.910156 53.929688 96.078125 53.890625 C 103.234375 53.929688 110.441406 54.859375 117.164062 56.734375 C 133.25 45.820312 140.308594 48.097656 140.308594 48.097656 C 144.902344 59.683594 142.019531 68.253906 141.144531 70.394531 C 146.546875 76.28125 149.792969 83.800781 149.792969 92.988281 C 149.792969 125.347656 130.097656 132.476562 111.34375 134.550781 C 114.363281 137.152344 117.054688 142.296875 117.054688 150.152344 C 117.054688 161.414062 116.949219 170.496094 116.949219 173.269531 C 116.949219 175.519531 118.46875 178.132812 122.742188 177.3125 C 156.195312 166.144531 180.308594 134.605469 180.308594 97.394531 C 180.308594 50.859375 142.585938 13.148438 96.066406 13.148438 Z M 96.066406 13.148438 " fill-opacity="1" fill-rule="evenodd"/></g></svg>