<svg xmlns="http://www.w3.org/2000/svg" xmlns:xlink="http://www.w3.org/1999/xlink" width="260" zoomAndPan="magnify" viewBox="0 0 194.87999 195.000001" height="260" preserveAspectRatio="xMidYMid meet" version="1.0"><defs><clipPath id="id1"><path d="M 19.839844 12.996094 L 175 12.996094 L 175 180.882812 L 19.839844 180.882812 Z M 19.839844 12.996094 " clip-rule="nonzero"/></clipPath></defs><g clip-path="url(#id1)"><path fill="#f86d58" d="M 97.402344 12.996094 C 95.042969 12.996094 92.6875 13.574219 90.648438 14.734375 L 26.613281 51.675781 C 22.476562 54.066406 19.898438 58.589844 19.898438 63.367188 L 19.898438 130.386719 C 19.898438 135.230469 22.476562 139.6875 26.613281 142.078125 L 43.421875 151.761719 C 51.566406 155.765625 54.46875 155.761719 58.152344 155.761719 C 70.234375 155.761719 77.144531 148.464844 77.144531 135.808594 L 77.144531 66.660156 C 77.144531 65.625 76.3125 64.777344 75.277344 64.777344 L 67.199219 64.777344 C 66.101562 64.777344 65.320312 65.625 65.320312 66.660156 L 65.320312 135.746094 C 65.320312 141.429688 59.449219 146.980469 49.949219 142.265625 L 32.367188 132.125 C 31.722656 131.804688 31.332031 131.097656 31.332031 130.386719 L 31.332031 63.429688 C 31.332031 62.65625 31.722656 62 32.367188 61.613281 L 96.40625 24.6875 C 96.988281 24.296875 97.765625 24.296875 98.410156 24.6875 L 162.449219 61.613281 C 163.09375 62 163.484375 62.65625 163.484375 63.367188 L 163.484375 130.386719 C 163.484375 131.097656 163.09375 131.804688 162.511719 132.125 L 98.410156 169.128906 C 97.832031 169.453125 96.988281 169.453125 96.40625 169.128906 L 79.921875 159.378906 C 79.46875 159.058594 78.835938 158.996094 78.382812 159.253906 C 73.796875 161.835938 72.953125 162.160156 68.691406 163.644531 C 67.65625 163.964844 66.039062 164.609375 69.269531 166.417969 L 90.648438 179.082031 C 92.71875 180.242188 95.050781 180.882812 97.375 180.882812 C 99.769531 180.882812 102.085938 180.242188 104.152344 179.082031 L 168.265625 142.078125 C 172.402344 139.6875 174.980469 135.230469 174.980469 130.386719 L 174.980469 63.429688 C 174.980469 58.585938 172.402344 54.128906 168.265625 51.738281 L 104.152344 14.734375 C 102.117188 13.574219 99.761719 12.996094 97.402344 12.996094 Z M 114.628906 64.691406 C 96.34375 64.691406 85.425781 72.433594 85.425781 85.347656 C 85.425781 99.363281 96.269531 103.230469 113.847656 104.972656 C 134.847656 107.039062 136.464844 110.148438 136.464844 114.28125 C 136.464844 121.382812 130.722656 124.421875 117.214844 124.421875 C 100.222656 124.421875 96.472656 120.152344 95.242188 111.757812 C 95.113281 110.855469 94.34375 110.207031 93.4375 110.207031 L 85.097656 110.207031 C 84.0625 110.207031 83.292969 111.054688 83.292969 112.023438 C 83.292969 122.808594 89.171875 135.644531 117.214844 135.644531 C 137.507812 135.644531 149.132812 127.648438 149.132812 113.699219 C 149.132812 99.882812 139.761719 96.195312 120.121094 93.546875 C 100.152344 90.964844 98.148438 89.609375 98.148438 84.957031 C 98.148438 81.082031 99.894531 75.992188 114.628906 75.992188 C 127.746094 75.992188 132.65625 78.824219 134.65625 87.667969 C 134.851562 88.507812 135.558594 89.15625 136.464844 89.15625 L 144.804688 89.15625 C 145.320312 89.15625 145.769531 88.902344 146.15625 88.515625 C 146.480469 88.191406 146.675781 87.671875 146.609375 87.089844 C 145.316406 71.851562 135.175781 64.691406 114.628906 64.691406 Z M 114.628906 64.691406 " fill-opacity="1" fill-rule="nonzero"/></g></svg>