<svg xmlns="http://www.w3.org/2000/svg" xmlns:xlink="http://www.w3.org/1999/xlink" width="300" zoomAndPan="magnify" viewBox="0 0 224.87999 225" height="300" preserveAspectRatio="xMidYMid meet" version="1.0"><path fill="#f86d58" d="M 75.964844 123.199219 C 75.964844 123.511719 75.847656 123.785156 75.621094 124.011719 C 75.402344 124.230469 75.136719 124.339844 74.824219 124.339844 L 69.03125 124.339844 C 68.65625 124.339844 68.46875 124.496094 68.46875 124.808594 L 66.859375 136.195312 C 66.859375 136.507812 66.984375 136.660156 67.234375 136.660156 L 71.59375 136.660156 C 71.914062 136.660156 72.1875 136.777344 72.40625 137.003906 C 72.625 137.222656 72.734375 137.488281 72.734375 137.800781 L 72.734375 144.921875 C 72.734375 145.234375 72.625 145.507812 72.40625 145.734375 C 72.1875 145.953125 71.914062 146.0625 71.59375 146.0625 L 65.8125 146.0625 C 65.429688 146.0625 65.238281 146.21875 65.238281 146.53125 L 63.253906 160.289062 C 63.191406 160.988281 62.777344 161.335938 62.019531 161.335938 L 53.289062 161.242188 C 52.527344 161.242188 52.179688 160.832031 52.242188 160.007812 L 54.242188 146.53125 C 54.242188 146.21875 54.109375 146.0625 53.851562 146.0625 L 43.886719 146.0625 C 43.511719 146.0625 43.328125 146.21875 43.328125 146.53125 L 41.328125 160.289062 C 41.265625 160.988281 40.851562 161.335938 40.09375 161.335938 L 31.363281 161.242188 C 30.601562 161.242188 30.253906 160.832031 30.316406 160.007812 L 32.316406 146.53125 C 32.316406 146.21875 32.191406 146.0625 31.941406 146.0625 L 27.476562 146.0625 C 27.164062 146.0625 26.890625 145.953125 26.664062 145.734375 C 26.445312 145.507812 26.335938 145.234375 26.335938 144.921875 L 26.335938 137.800781 C 26.335938 137.488281 26.445312 137.222656 26.664062 137.003906 C 26.890625 136.777344 27.164062 136.660156 27.476562 136.660156 L 33.363281 136.660156 C 33.738281 136.660156 33.925781 136.507812 33.925781 136.195312 L 35.550781 124.808594 C 35.550781 124.496094 35.417969 124.339844 35.160156 124.339844 L 30.707031 124.339844 C 30.382812 124.339844 30.113281 124.230469 29.894531 124.011719 C 29.675781 123.785156 29.566406 123.511719 29.566406 123.199219 L 29.566406 115.984375 C 29.566406 115.671875 29.675781 115.40625 29.894531 115.1875 C 30.113281 114.960938 30.382812 114.84375 30.707031 114.84375 L 36.578125 114.84375 C 36.960938 114.84375 37.15625 114.6875 37.15625 114.378906 L 39.140625 100.617188 C 39.210938 99.925781 39.625 99.574219 40.375 99.574219 L 49.105469 99.667969 C 49.863281 99.667969 50.214844 100.078125 50.152344 100.898438 L 48.167969 114.378906 C 48.167969 114.6875 48.292969 114.84375 48.542969 114.84375 L 58.503906 114.84375 C 58.878906 114.84375 59.066406 114.6875 59.066406 114.378906 L 61.066406 100.617188 C 61.128906 99.925781 61.539062 99.574219 62.300781 99.574219 L 71.03125 99.667969 C 71.789062 99.667969 72.140625 100.078125 72.078125 100.898438 L 70.078125 114.378906 C 70.078125 114.6875 70.207031 114.84375 70.46875 114.84375 L 74.824219 114.84375 C 75.136719 114.84375 75.402344 114.960938 75.621094 115.1875 C 75.847656 115.40625 75.964844 115.671875 75.964844 115.984375 Z M 55.273438 136.660156 C 55.65625 136.660156 55.851562 136.507812 55.851562 136.195312 L 57.460938 124.808594 C 57.460938 124.496094 57.335938 124.339844 57.085938 124.339844 L 47.121094 124.339844 C 46.734375 124.339844 46.542969 124.496094 46.542969 124.808594 L 44.933594 136.195312 C 44.933594 136.507812 45.058594 136.660156 45.308594 136.660156 Z M 55.273438 136.660156 " fill-opacity="1" fill-rule="nonzero"/><path fill="#00ffff" d="M 83.59375 121.441406 C 83.59375 121.75 83.476562 122.023438 83.25 122.25 C 83.03125 122.46875 82.765625 122.578125 82.453125 122.578125 L 76.660156 122.578125 C 76.285156 122.578125 76.097656 122.734375 76.097656 123.046875 L 74.488281 134.433594 C 74.488281 134.746094 74.613281 134.902344 74.863281 134.902344 L 79.222656 134.902344 C 79.542969 134.902344 79.816406 135.019531 80.035156 135.246094 C 80.253906 135.464844 80.363281 135.730469 80.363281 136.042969 L 80.363281 143.164062 C 80.363281 143.472656 80.253906 143.746094 80.035156 143.972656 C 79.816406 144.191406 79.542969 144.300781 79.222656 144.300781 L 73.441406 144.300781 C 73.058594 144.300781 72.867188 144.457031 72.867188 144.769531 L 70.882812 158.527344 C 70.820312 159.226562 70.40625 159.574219 69.648438 159.574219 L 60.917969 159.480469 C 60.15625 159.480469 59.808594 159.070312 59.871094 158.246094 L 61.871094 144.769531 C 61.871094 144.457031 61.738281 144.300781 61.480469 144.300781 L 51.515625 144.300781 C 51.144531 144.300781 50.957031 144.457031 50.957031 144.769531 L 48.957031 158.527344 C 48.894531 159.226562 48.480469 159.574219 47.722656 159.574219 L 38.992188 159.480469 C 38.230469 159.480469 37.882812 159.070312 37.945312 158.246094 L 39.945312 144.769531 C 39.945312 144.457031 39.820312 144.300781 39.570312 144.300781 L 35.105469 144.300781 C 34.792969 144.300781 34.519531 144.191406 34.292969 143.972656 C 34.074219 143.746094 33.964844 143.472656 33.964844 143.164062 L 33.964844 136.042969 C 33.964844 135.730469 34.074219 135.464844 34.292969 135.246094 C 34.519531 135.019531 34.792969 134.902344 35.105469 134.902344 L 40.992188 134.902344 C 41.367188 134.902344 41.554688 134.746094 41.554688 134.433594 L 43.179688 123.046875 C 43.179688 122.734375 43.046875 122.578125 42.789062 122.578125 L 38.335938 122.578125 C 38.011719 122.578125 37.742188 122.46875 37.523438 122.25 C 37.304688 122.023438 37.195312 121.75 37.195312 121.441406 L 37.195312 114.222656 C 37.195312 113.914062 37.304688 113.648438 37.523438 113.429688 C 37.742188 113.203125 38.011719 113.085938 38.335938 113.085938 L 44.207031 113.085938 C 44.589844 113.085938 44.785156 112.929688 44.785156 112.617188 L 46.769531 98.859375 C 46.839844 98.164062 47.253906 97.8125 48.003906 97.8125 L 56.734375 97.90625 C 57.492188 97.90625 57.84375 98.320312 57.78125 99.140625 L 55.796875 112.617188 C 55.796875 112.929688 55.921875 113.085938 56.171875 113.085938 L 66.132812 113.085938 C 66.507812 113.085938 66.695312 112.929688 66.695312 112.617188 L 68.695312 98.859375 C 68.757812 98.164062 69.167969 97.8125 69.929688 97.8125 L 78.660156 97.90625 C 79.417969 97.90625 79.769531 98.320312 79.707031 99.140625 L 77.707031 112.617188 C 77.707031 112.929688 77.835938 113.085938 78.097656 113.085938 L 82.453125 113.085938 C 82.765625 113.085938 83.03125 113.203125 83.25 113.429688 C 83.476562 113.648438 83.59375 113.914062 83.59375 114.222656 Z M 62.902344 134.902344 C 63.285156 134.902344 63.480469 134.746094 63.480469 134.433594 L 65.089844 123.046875 C 65.089844 122.734375 64.964844 122.578125 64.714844 122.578125 L 54.75 122.578125 C 54.363281 122.578125 54.171875 122.734375 54.171875 123.046875 L 52.5625 134.433594 C 52.5625 134.746094 52.6875 134.902344 52.9375 134.902344 Z M 62.902344 134.902344 " fill-opacity="1" fill-rule="nonzero"/><path fill="#1b0739" d="M 79.78125 122.320312 C 79.78125 122.632812 79.664062 122.90625 79.4375 123.132812 C 79.21875 123.351562 78.953125 123.460938 78.640625 123.460938 L 72.847656 123.460938 C 72.472656 123.460938 72.285156 123.617188 72.285156 123.929688 L 70.675781 135.3125 C 70.675781 135.625 70.800781 135.78125 71.050781 135.78125 L 75.40625 135.78125 C 75.726562 135.78125 76 135.898438 76.21875 136.125 C 76.4375 136.34375 76.546875 136.609375 76.546875 136.921875 L 76.546875 144.042969 C 76.546875 144.355469 76.4375 144.628906 76.21875 144.855469 C 76 145.074219 75.726562 145.183594 75.40625 145.183594 L 69.628906 145.183594 C 69.242188 145.183594 69.050781 145.339844 69.050781 145.652344 L 67.066406 159.410156 C 67.003906 160.109375 66.589844 160.457031 65.835938 160.457031 L 57.105469 160.363281 C 56.34375 160.363281 55.996094 159.953125 56.058594 159.128906 L 58.058594 145.652344 C 58.058594 145.339844 57.925781 145.183594 57.667969 145.183594 L 47.703125 145.183594 C 47.328125 145.183594 47.140625 145.339844 47.140625 145.652344 L 45.140625 159.410156 C 45.078125 160.109375 44.664062 160.457031 43.910156 160.457031 L 35.179688 160.363281 C 34.417969 160.363281 34.070312 159.953125 34.132812 159.128906 L 36.132812 145.652344 C 36.132812 145.339844 36.007812 145.183594 35.757812 145.183594 L 31.289062 145.183594 C 30.976562 145.183594 30.703125 145.074219 30.476562 144.855469 C 30.257812 144.628906 30.148438 144.355469 30.148438 144.042969 L 30.148438 136.921875 C 30.148438 136.609375 30.257812 136.34375 30.476562 136.125 C 30.703125 135.898438 30.976562 135.78125 31.289062 135.78125 L 37.179688 135.78125 C 37.550781 135.78125 37.738281 135.625 37.738281 135.3125 L 39.363281 123.929688 C 39.363281 123.617188 39.230469 123.460938 38.972656 123.460938 L 34.523438 123.460938 C 34.199219 123.460938 33.929688 123.351562 33.710938 123.132812 C 33.492188 122.90625 33.382812 122.632812 33.382812 122.320312 L 33.382812 115.105469 C 33.382812 114.792969 33.492188 114.527344 33.710938 114.308594 C 33.929688 114.082031 34.199219 113.964844 34.523438 113.964844 L 40.394531 113.964844 C 40.777344 113.964844 40.972656 113.808594 40.972656 113.496094 L 42.957031 99.738281 C 43.027344 99.042969 43.441406 98.691406 44.191406 98.691406 L 52.917969 98.785156 C 53.675781 98.785156 54.027344 99.199219 53.964844 100.019531 L 51.980469 113.496094 C 51.980469 113.808594 52.105469 113.964844 52.355469 113.964844 L 62.320312 113.964844 C 62.695312 113.964844 62.882812 113.808594 62.882812 113.496094 L 64.882812 99.738281 C 64.945312 99.042969 65.355469 98.691406 66.117188 98.691406 L 74.84375 98.785156 C 75.601562 98.785156 75.953125 99.199219 75.890625 100.019531 L 73.890625 113.496094 C 73.890625 113.808594 74.019531 113.964844 74.28125 113.964844 L 78.640625 113.964844 C 78.953125 113.964844 79.21875 114.082031 79.4375 114.308594 C 79.664062 114.527344 79.78125 114.792969 79.78125 115.105469 Z M 59.089844 135.78125 C 59.46875 135.78125 59.664062 135.625 59.664062 135.3125 L 61.273438 123.929688 C 61.273438 123.617188 61.148438 123.460938 60.898438 123.460938 L 50.9375 123.460938 C 50.550781 123.460938 50.359375 123.617188 50.359375 123.929688 L 48.75 135.3125 C 48.75 135.625 48.875 135.78125 49.125 135.78125 Z M 59.089844 135.78125 " fill-opacity="1" fill-rule="nonzero"/><path fill="#f86d58" d="M 159.082031 124.542969 C 159.582031 124.542969 160.003906 124.722656 160.359375 125.074219 C 160.710938 125.417969 160.890625 125.839844 160.890625 126.339844 L 160.890625 138.488281 C 160.890625 138.988281 160.710938 139.417969 160.359375 139.769531 C 160.003906 140.113281 159.582031 140.285156 159.082031 140.285156 L 154.597656 140.285156 C 154.097656 140.285156 153.847656 140.535156 153.847656 141.035156 L 153.847656 165.753906 C 153.847656 166.253906 153.667969 166.683594 153.316406 167.035156 C 152.960938 167.378906 152.535156 167.550781 152.039062 167.550781 L 138.261719 167.550781 C 137.765625 167.550781 137.335938 167.378906 136.984375 167.035156 C 136.640625 166.683594 136.46875 166.253906 136.46875 165.753906 L 136.46875 141.035156 C 136.46875 140.535156 136.21875 140.285156 135.71875 140.285156 L 98.847656 140.285156 C 98.347656 140.285156 97.917969 140.113281 97.566406 139.769531 C 97.222656 139.417969 97.050781 138.988281 97.050781 138.488281 L 97.050781 128.746094 C 97.050781 127.851562 97.148438 127.101562 97.347656 126.496094 L 118.179688 64.152344 C 118.480469 63.152344 119.132812 62.65625 120.132812 62.65625 L 135.109375 62.65625 C 135.710938 62.65625 136.160156 62.835938 136.453125 63.183594 C 136.753906 63.539062 136.804688 64.066406 136.609375 64.761719 L 117.429688 123.652344 C 117.324219 124.246094 117.523438 124.542969 118.023438 124.542969 L 135.71875 124.542969 C 136.21875 124.542969 136.46875 124.292969 136.46875 123.792969 L 136.46875 105.820312 C 136.46875 105.320312 136.640625 104.898438 136.984375 104.554688 C 137.335938 104.203125 137.765625 104.023438 138.261719 104.023438 L 152.039062 104.023438 C 152.535156 104.023438 152.960938 104.203125 153.316406 104.554688 C 153.667969 104.898438 153.847656 105.320312 153.847656 105.820312 L 153.847656 123.792969 C 153.847656 124.292969 154.097656 124.542969 154.597656 124.542969 Z M 159.082031 124.542969 " fill-opacity="1" fill-rule="nonzero"/><path fill="#00ffff" d="M 171.125 121.765625 C 171.625 121.765625 172.050781 121.945312 172.40625 122.292969 C 172.757812 122.636719 172.9375 123.058594 172.9375 123.558594 L 172.9375 135.710938 C 172.9375 136.210938 172.757812 136.640625 172.40625 136.988281 C 172.050781 137.332031 171.625 137.503906 171.125 137.503906 L 166.644531 137.503906 C 166.144531 137.503906 165.894531 137.753906 165.894531 138.253906 L 165.894531 162.976562 C 165.894531 163.476562 165.714844 163.90625 165.363281 164.257812 C 165.007812 164.601562 164.582031 164.773438 164.082031 164.773438 L 150.308594 164.773438 C 149.808594 164.773438 149.378906 164.601562 149.027344 164.257812 C 148.683594 163.90625 148.511719 163.476562 148.511719 162.976562 L 148.511719 138.253906 C 148.511719 137.753906 148.261719 137.503906 147.761719 137.503906 L 110.890625 137.503906 C 110.390625 137.503906 109.960938 137.332031 109.609375 136.988281 C 109.265625 136.640625 109.09375 136.210938 109.09375 135.710938 L 109.09375 125.964844 C 109.09375 125.070312 109.191406 124.320312 109.390625 123.714844 L 130.226562 61.375 C 130.527344 60.375 131.175781 59.875 132.175781 59.875 L 147.152344 59.875 C 147.753906 59.875 148.203125 60.054688 148.496094 60.40625 C 148.796875 60.761719 148.847656 61.289062 148.652344 61.984375 L 129.476562 120.875 C 129.371094 121.46875 129.570312 121.765625 130.070312 121.765625 L 147.761719 121.765625 C 148.261719 121.765625 148.511719 121.515625 148.511719 121.015625 L 148.511719 103.039062 C 148.511719 102.539062 148.683594 102.117188 149.027344 101.773438 C 149.378906 101.421875 149.808594 101.242188 150.308594 101.242188 L 164.082031 101.242188 C 164.582031 101.242188 165.007812 101.421875 165.363281 101.773438 C 165.714844 102.117188 165.894531 102.539062 165.894531 103.039062 L 165.894531 121.015625 C 165.894531 121.515625 166.144531 121.765625 166.644531 121.765625 Z M 171.125 121.765625 " fill-opacity="1" fill-rule="nonzero"/><path fill="#1b0739" d="M 165.101562 123.152344 C 165.601562 123.152344 166.027344 123.332031 166.382812 123.683594 C 166.734375 124.027344 166.914062 124.449219 166.914062 124.949219 L 166.914062 137.097656 C 166.914062 137.597656 166.734375 138.027344 166.382812 138.378906 C 166.027344 138.722656 165.601562 138.894531 165.101562 138.894531 L 160.621094 138.894531 C 160.121094 138.894531 159.871094 139.144531 159.871094 139.644531 L 159.871094 164.367188 C 159.871094 164.863281 159.691406 165.292969 159.339844 165.644531 C 158.984375 165.988281 158.558594 166.160156 158.058594 166.160156 L 144.285156 166.160156 C 143.785156 166.160156 143.355469 165.988281 143.003906 165.644531 C 142.660156 165.292969 142.488281 164.863281 142.488281 164.367188 L 142.488281 139.644531 C 142.488281 139.144531 142.238281 138.894531 141.738281 138.894531 L 104.867188 138.894531 C 104.367188 138.894531 103.941406 138.722656 103.589844 138.378906 C 103.246094 138.027344 103.074219 137.597656 103.074219 137.097656 L 103.074219 127.355469 C 103.074219 126.460938 103.171875 125.710938 103.371094 125.105469 L 124.203125 62.761719 C 124.503906 61.765625 125.15625 61.265625 126.152344 61.265625 L 141.128906 61.265625 C 141.730469 61.265625 142.179688 61.445312 142.472656 61.796875 C 142.773438 62.152344 142.824219 62.675781 142.628906 63.371094 L 123.453125 122.261719 C 123.347656 122.855469 123.546875 123.152344 124.046875 123.152344 L 141.738281 123.152344 C 142.238281 123.152344 142.488281 122.902344 142.488281 122.402344 L 142.488281 104.429688 C 142.488281 103.929688 142.660156 103.507812 143.003906 103.164062 C 143.355469 102.8125 143.785156 102.632812 144.285156 102.632812 L 158.058594 102.632812 C 158.558594 102.632812 158.984375 102.8125 159.339844 103.164062 C 159.691406 103.507812 159.871094 103.929688 159.871094 104.429688 L 159.871094 122.402344 C 159.871094 122.902344 160.121094 123.152344 160.621094 123.152344 Z M 165.101562 123.152344 " fill-opacity="1" fill-rule="nonzero"/></svg>