<svg xmlns="http://www.w3.org/2000/svg" xmlns:xlink="http://www.w3.org/1999/xlink" width="300" zoomAndPan="magnify" viewBox="0 0 224.87999 225" height="300" preserveAspectRatio="xMidYMid meet" version="1.0"><path fill="#f86d58" d="M 75.964844 123.199219 C 75.964844 123.511719 75.847656 123.785156 75.621094 124.011719 C 75.402344 124.230469 75.136719 124.339844 74.824219 124.339844 L 69.03125 124.339844 C 68.65625 124.339844 68.46875 124.496094 68.46875 124.808594 L 66.859375 136.195312 C 66.859375 136.507812 66.984375 136.664062 67.234375 136.664062 L 71.59375 136.664062 C 71.914062 136.664062 72.1875 136.777344 72.40625 137.003906 C 72.625 137.222656 72.734375 137.488281 72.734375 137.800781 L 72.734375 144.921875 C 72.734375 145.234375 72.625 145.507812 72.40625 145.734375 C 72.1875 145.953125 71.914062 146.0625 71.59375 146.0625 L 65.8125 146.0625 C 65.429688 146.0625 65.238281 146.21875 65.238281 146.53125 L 63.253906 160.289062 C 63.191406 160.988281 62.777344 161.335938 62.019531 161.335938 L 53.289062 161.242188 C 52.527344 161.242188 52.179688 160.832031 52.242188 160.007812 L 54.242188 146.53125 C 54.242188 146.21875 54.109375 146.0625 53.851562 146.0625 L 43.886719 146.0625 C 43.511719 146.0625 43.328125 146.21875 43.328125 146.53125 L 41.328125 160.289062 C 41.265625 160.988281 40.851562 161.335938 40.09375 161.335938 L 31.363281 161.242188 C 30.601562 161.242188 30.253906 160.832031 30.316406 160.007812 L 32.316406 146.53125 C 32.316406 146.21875 32.191406 146.0625 31.941406 146.0625 L 27.476562 146.0625 C 27.164062 146.0625 26.890625 145.953125 26.664062 145.734375 C 26.445312 145.507812 26.335938 145.234375 26.335938 144.921875 L 26.335938 137.800781 C 26.335938 137.488281 26.445312 137.222656 26.664062 137.003906 C 26.890625 136.777344 27.164062 136.664062 27.476562 136.664062 L 33.363281 136.664062 C 33.738281 136.664062 33.925781 136.507812 33.925781 136.195312 L 35.550781 124.808594 C 35.550781 124.496094 35.417969 124.339844 35.160156 124.339844 L 30.707031 124.339844 C 30.382812 124.339844 30.113281 124.230469 29.894531 124.011719 C 29.675781 123.785156 29.566406 123.511719 29.566406 123.199219 L 29.566406 115.984375 C 29.566406 115.671875 29.675781 115.40625 29.894531 115.1875 C 30.113281 114.960938 30.382812 114.84375 30.707031 114.84375 L 36.578125 114.84375 C 36.960938 114.84375 37.15625 114.691406 37.15625 114.378906 L 39.140625 100.617188 C 39.210938 99.925781 39.625 99.574219 40.375 99.574219 L 49.105469 99.667969 C 49.863281 99.667969 50.214844 100.082031 50.152344 100.898438 L 48.167969 114.378906 C 48.167969 114.691406 48.292969 114.84375 48.542969 114.84375 L 58.503906 114.84375 C 58.878906 114.84375 59.066406 114.691406 59.066406 114.378906 L 61.066406 100.617188 C 61.128906 99.925781 61.539062 99.574219 62.300781 99.574219 L 71.03125 99.667969 C 71.789062 99.667969 72.140625 100.082031 72.078125 100.898438 L 70.078125 114.378906 C 70.078125 114.691406 70.207031 114.84375 70.46875 114.84375 L 74.824219 114.84375 C 75.136719 114.84375 75.402344 114.960938 75.621094 115.1875 C 75.847656 115.40625 75.964844 115.671875 75.964844 115.984375 Z M 55.273438 136.664062 C 55.65625 136.664062 55.851562 136.507812 55.851562 136.195312 L 57.460938 124.808594 C 57.460938 124.496094 57.335938 124.339844 57.085938 124.339844 L 47.121094 124.339844 C 46.734375 124.339844 46.542969 124.496094 46.542969 124.808594 L 44.933594 136.195312 C 44.933594 136.507812 45.058594 136.664062 45.308594 136.664062 Z M 55.273438 136.664062 " fill-opacity="1" fill-rule="nonzero"/><path fill="#00ffff" d="M 83.59375 121.441406 C 83.59375 121.75 83.476562 122.023438 83.25 122.25 C 83.03125 122.46875 82.765625 122.578125 82.453125 122.578125 L 76.660156 122.578125 C 76.285156 122.578125 76.097656 122.734375 76.097656 123.046875 L 74.488281 134.433594 C 74.488281 134.746094 74.613281 134.902344 74.863281 134.902344 L 79.222656 134.902344 C 79.542969 134.902344 79.816406 135.019531 80.035156 135.246094 C 80.253906 135.464844 80.363281 135.730469 80.363281 136.042969 L 80.363281 143.164062 C 80.363281 143.476562 80.253906 143.746094 80.035156 143.972656 C 79.816406 144.191406 79.542969 144.300781 79.222656 144.300781 L 73.441406 144.300781 C 73.058594 144.300781 72.867188 144.457031 72.867188 144.769531 L 70.882812 158.527344 C 70.820312 159.226562 70.40625 159.574219 69.648438 159.574219 L 60.917969 159.480469 C 60.15625 159.480469 59.808594 159.070312 59.871094 158.246094 L 61.871094 144.769531 C 61.871094 144.457031 61.738281 144.300781 61.480469 144.300781 L 51.515625 144.300781 C 51.144531 144.300781 50.957031 144.457031 50.957031 144.769531 L 48.957031 158.527344 C 48.894531 159.226562 48.480469 159.574219 47.722656 159.574219 L 38.992188 159.480469 C 38.230469 159.480469 37.882812 159.070312 37.945312 158.246094 L 39.945312 144.769531 C 39.945312 144.457031 39.820312 144.300781 39.570312 144.300781 L 35.105469 144.300781 C 34.792969 144.300781 34.519531 144.191406 34.292969 143.972656 C 34.074219 143.746094 33.964844 143.476562 33.964844 143.164062 L 33.964844 136.042969 C 33.964844 135.730469 34.074219 135.464844 34.292969 135.246094 C 34.519531 135.019531 34.792969 134.902344 35.105469 134.902344 L 40.992188 134.902344 C 41.367188 134.902344 41.554688 134.746094 41.554688 134.433594 L 43.179688 123.046875 C 43.179688 122.734375 43.046875 122.578125 42.789062 122.578125 L 38.335938 122.578125 C 38.011719 122.578125 37.742188 122.46875 37.523438 122.25 C 37.304688 122.023438 37.195312 121.75 37.195312 121.441406 L 37.195312 114.226562 C 37.195312 113.914062 37.304688 113.648438 37.523438 113.429688 C 37.742188 113.203125 38.011719 113.085938 38.335938 113.085938 L 44.207031 113.085938 C 44.589844 113.085938 44.785156 112.929688 44.785156 112.617188 L 46.769531 98.859375 C 46.839844 98.164062 47.253906 97.8125 48.003906 97.8125 L 56.734375 97.90625 C 57.492188 97.90625 57.84375 98.320312 57.78125 99.140625 L 55.796875 112.617188 C 55.796875 112.929688 55.921875 113.085938 56.171875 113.085938 L 66.132812 113.085938 C 66.507812 113.085938 66.695312 112.929688 66.695312 112.617188 L 68.695312 98.859375 C 68.757812 98.164062 69.167969 97.8125 69.929688 97.8125 L 78.660156 97.90625 C 79.417969 97.90625 79.769531 98.320312 79.707031 99.140625 L 77.707031 112.617188 C 77.707031 112.929688 77.835938 113.085938 78.097656 113.085938 L 82.453125 113.085938 C 82.765625 113.085938 83.03125 113.203125 83.25 113.429688 C 83.476562 113.648438 83.59375 113.914062 83.59375 114.226562 Z M 62.902344 134.902344 C 63.285156 134.902344 63.480469 134.746094 63.480469 134.433594 L 65.089844 123.046875 C 65.089844 122.734375 64.964844 122.578125 64.714844 122.578125 L 54.75 122.578125 C 54.363281 122.578125 54.171875 122.734375 54.171875 123.046875 L 52.5625 134.433594 C 52.5625 134.746094 52.6875 134.902344 52.9375 134.902344 Z M 62.902344 134.902344 " fill-opacity="1" fill-rule="nonzero"/><path fill="#1b0739" d="M 79.78125 122.320312 C 79.78125 122.632812 79.664062 122.90625 79.4375 123.132812 C 79.21875 123.351562 78.953125 123.460938 78.640625 123.460938 L 72.847656 123.460938 C 72.472656 123.460938 72.285156 123.617188 72.285156 123.929688 L 70.675781 135.3125 C 70.675781 135.625 70.800781 135.78125 71.050781 135.78125 L 75.40625 135.78125 C 75.726562 135.78125 76 135.898438 76.21875 136.125 C 76.4375 136.34375 76.546875 136.609375 76.546875 136.921875 L 76.546875 144.042969 C 76.546875 144.355469 76.4375 144.628906 76.21875 144.855469 C 76 145.074219 75.726562 145.183594 75.40625 145.183594 L 69.628906 145.183594 C 69.242188 145.183594 69.050781 145.339844 69.050781 145.652344 L 67.066406 159.410156 C 67.003906 160.109375 66.589844 160.457031 65.835938 160.457031 L 57.105469 160.363281 C 56.34375 160.363281 55.996094 159.953125 56.058594 159.128906 L 58.058594 145.652344 C 58.058594 145.339844 57.925781 145.183594 57.667969 145.183594 L 47.703125 145.183594 C 47.328125 145.183594 47.140625 145.339844 47.140625 145.652344 L 45.140625 159.410156 C 45.078125 160.109375 44.664062 160.457031 43.910156 160.457031 L 35.179688 160.363281 C 34.417969 160.363281 34.070312 159.953125 34.132812 159.128906 L 36.132812 145.652344 C 36.132812 145.339844 36.007812 145.183594 35.757812 145.183594 L 31.289062 145.183594 C 30.976562 145.183594 30.703125 145.074219 30.476562 144.855469 C 30.257812 144.628906 30.148438 144.355469 30.148438 144.042969 L 30.148438 136.921875 C 30.148438 136.609375 30.257812 136.34375 30.476562 136.125 C 30.703125 135.898438 30.976562 135.78125 31.289062 135.78125 L 37.179688 135.78125 C 37.550781 135.78125 37.738281 135.625 37.738281 135.3125 L 39.363281 123.929688 C 39.363281 123.617188 39.230469 123.460938 38.972656 123.460938 L 34.523438 123.460938 C 34.199219 123.460938 33.929688 123.351562 33.710938 123.132812 C 33.492188 122.90625 33.382812 122.632812 33.382812 122.320312 L 33.382812 115.105469 C 33.382812 114.792969 33.492188 114.527344 33.710938 114.308594 C 33.929688 114.082031 34.199219 113.964844 34.523438 113.964844 L 40.394531 113.964844 C 40.777344 113.964844 40.972656 113.808594 40.972656 113.496094 L 42.957031 99.738281 C 43.027344 99.042969 43.441406 98.691406 44.191406 98.691406 L 52.917969 98.785156 C 53.675781 98.785156 54.027344 99.199219 53.964844 100.019531 L 51.980469 113.496094 C 51.980469 113.808594 52.105469 113.964844 52.355469 113.964844 L 62.320312 113.964844 C 62.695312 113.964844 62.882812 113.808594 62.882812 113.496094 L 64.882812 99.738281 C 64.945312 99.042969 65.355469 98.691406 66.117188 98.691406 L 74.84375 98.785156 C 75.601562 98.785156 75.953125 99.199219 75.890625 100.019531 L 73.890625 113.496094 C 73.890625 113.808594 74.019531 113.964844 74.28125 113.964844 L 78.640625 113.964844 C 78.953125 113.964844 79.21875 114.082031 79.4375 114.308594 C 79.664062 114.527344 79.78125 114.792969 79.78125 115.105469 Z M 59.089844 135.78125 C 59.46875 135.78125 59.664062 135.625 59.664062 135.3125 L 61.273438 123.929688 C 61.273438 123.617188 61.148438 123.460938 60.898438 123.460938 L 50.9375 123.460938 C 50.550781 123.460938 50.359375 123.617188 50.359375 123.929688 L 48.75 135.3125 C 48.75 135.625 48.875 135.78125 49.125 135.78125 Z M 59.089844 135.78125 " fill-opacity="1" fill-rule="nonzero"/><path fill="#f86d58" d="M 145.070312 111.957031 C 144.476562 112.363281 144.476562 112.714844 145.070312 113.003906 C 148.371094 114.90625 150.867188 117.808594 152.566406 121.699219 C 154.667969 126.398438 155.722656 131.691406 155.722656 137.582031 C 155.722656 142.886719 154.917969 147.527344 153.316406 151.511719 C 151.316406 156.910156 148.195312 161.128906 143.945312 164.179688 C 139.707031 167.230469 134.644531 168.753906 128.75 168.753906 C 122.949219 168.753906 117.929688 167.253906 113.683594 164.257812 C 109.433594 161.257812 106.316406 157.066406 104.328125 151.667969 C 102.828125 147.476562 102.078125 142.78125 102.078125 137.582031 C 102.078125 131.691406 102.972656 126.648438 104.765625 122.449219 C 106.265625 118.453125 108.910156 115.355469 112.714844 113.160156 C 113.109375 112.859375 113.109375 112.558594 112.714844 112.253906 C 109.410156 110.160156 106.863281 107.265625 105.078125 103.570312 C 103.078125 99.273438 102.078125 94.476562 102.078125 89.1875 C 102.078125 83.390625 103.078125 78.542969 105.078125 74.648438 C 107.0625 70.257812 110.128906 66.863281 114.273438 64.464844 C 118.429688 62.0625 123.253906 60.859375 128.75 60.859375 C 134.144531 60.859375 138.910156 62.039062 143.058594 64.386719 C 147.199219 66.730469 150.324219 70.105469 152.425781 74.507812 C 154.621094 78.691406 155.722656 83.589844 155.722656 89.1875 C 155.722656 94.382812 154.722656 99.082031 152.722656 103.273438 C 150.917969 106.972656 148.371094 109.863281 145.070312 111.957031 Z M 120.210938 83.785156 C 119.5 85.585938 119.148438 87.886719 119.148438 90.6875 C 119.148438 93.683594 119.648438 96.535156 120.648438 99.230469 C 121.351562 101.320312 122.402344 102.96875 123.800781 104.164062 C 125.195312 105.363281 126.847656 105.960938 128.75 105.960938 C 130.84375 105.960938 132.613281 105.34375 134.0625 104.101562 C 135.507812 102.851562 136.578125 101.078125 137.277344 98.777344 C 138.078125 96.382812 138.480469 93.683594 138.480469 90.6875 C 138.480469 87.292969 137.980469 84.546875 136.980469 82.441406 C 136.28125 80.347656 135.234375 78.730469 133.828125 77.585938 C 132.429688 76.429688 130.738281 75.851562 128.75 75.851562 C 126.949219 75.851562 125.371094 76.378906 124.019531 77.429688 C 122.675781 78.46875 121.652344 79.890625 120.960938 81.691406 Z M 137.730469 144.625 C 138.230469 141.933594 138.480469 139.28125 138.480469 136.675781 C 138.480469 132.890625 138.03125 129.644531 137.136719 126.949219 C 136.53125 124.542969 135.507812 122.667969 134.0625 121.328125 C 132.613281 119.976562 130.84375 119.296875 128.75 119.296875 C 126.648438 119.296875 124.871094 120 123.425781 121.40625 C 121.976562 122.800781 120.953125 124.800781 120.351562 127.402344 C 119.546875 129.992188 119.148438 132.988281 119.148438 136.378906 C 119.148438 139.484375 119.449219 142.332031 120.054688 144.921875 C 120.554688 147.726562 121.570312 149.902344 123.113281 151.449219 C 124.664062 152.992188 126.542969 153.761719 128.75 153.761719 C 131.039062 153.761719 132.984375 152.964844 134.578125 151.371094 C 136.175781 149.773438 137.230469 147.523438 137.730469 144.625 Z M 137.730469 144.625 " fill-opacity="1" fill-rule="nonzero"/><path fill="#00ffff" d="M 157.117188 109.175781 C 156.523438 109.582031 156.523438 109.933594 157.117188 110.222656 C 160.414062 112.128906 162.914062 115.027344 164.613281 118.921875 C 166.710938 123.617188 167.765625 128.914062 167.765625 134.804688 C 167.765625 140.105469 166.960938 144.746094 165.363281 148.734375 C 163.363281 154.128906 160.238281 158.351562 155.992188 161.398438 C 151.75 164.453125 146.6875 165.976562 140.796875 165.976562 C 134.996094 165.976562 129.972656 164.476562 125.726562 161.476562 C 121.480469 158.480469 118.359375 154.285156 116.371094 148.890625 C 114.871094 144.695312 114.125 140 114.125 134.804688 C 114.125 128.914062 115.015625 123.867188 116.808594 119.671875 C 118.308594 115.671875 120.957031 112.578125 124.757812 110.378906 C 125.152344 110.078125 125.152344 109.777344 124.757812 109.472656 C 121.457031 107.382812 118.910156 104.488281 117.121094 100.789062 C 115.121094 96.492188 114.125 91.699219 114.125 86.40625 C 114.125 80.609375 115.121094 75.765625 117.121094 71.867188 C 119.109375 67.476562 122.171875 64.082031 126.320312 61.6875 C 130.472656 59.28125 135.300781 58.078125 140.796875 58.078125 C 146.1875 58.078125 150.957031 59.257812 155.101562 61.609375 C 159.242188 63.949219 162.367188 67.324219 164.472656 71.726562 C 166.664062 75.914062 167.765625 80.808594 167.765625 86.40625 C 167.765625 91.605469 166.765625 96.300781 164.769531 100.492188 C 162.964844 104.191406 160.414062 107.085938 157.117188 109.175781 Z M 132.253906 81.003906 C 131.542969 82.808594 131.191406 85.109375 131.191406 87.90625 C 131.191406 90.90625 131.691406 93.753906 132.691406 96.449219 C 133.398438 98.542969 134.449219 100.1875 135.847656 101.382812 C 137.238281 102.582031 138.890625 103.179688 140.796875 103.179688 C 142.890625 103.179688 144.65625 102.5625 146.105469 101.320312 C 147.550781 100.074219 148.625 98.300781 149.324219 95.996094 C 150.125 93.601562 150.527344 90.90625 150.527344 87.90625 C 150.527344 84.515625 150.027344 81.765625 149.027344 79.660156 C 148.328125 77.570312 147.277344 75.953125 145.871094 74.804688 C 144.472656 73.648438 142.785156 73.070312 140.796875 73.070312 C 138.992188 73.070312 137.414062 73.597656 136.066406 74.648438 C 134.722656 75.691406 133.699219 77.113281 133.003906 78.910156 Z M 149.777344 141.847656 C 150.277344 139.152344 150.527344 136.503906 150.527344 133.898438 C 150.527344 130.109375 150.078125 126.867188 149.183594 124.167969 C 148.578125 121.765625 147.550781 119.890625 146.105469 118.546875 C 144.65625 117.195312 142.890625 116.515625 140.796875 116.515625 C 138.691406 116.515625 136.914062 117.21875 135.472656 118.625 C 134.023438 120.023438 132.996094 122.023438 132.394531 124.621094 C 131.589844 127.214844 131.191406 130.207031 131.191406 133.601562 C 131.191406 136.707031 131.492188 139.550781 132.097656 142.144531 C 132.597656 144.945312 133.617188 147.121094 135.160156 148.671875 C 136.707031 150.214844 138.585938 150.984375 140.796875 150.984375 C 143.085938 150.984375 145.027344 150.1875 146.621094 148.59375 C 148.222656 146.992188 149.277344 144.742188 149.777344 141.847656 Z M 149.777344 141.847656 " fill-opacity="1" fill-rule="nonzero"/><path fill="#1b0739" d="M 151.09375 110.566406 C 150.5 110.972656 150.5 111.324219 151.09375 111.613281 C 154.390625 113.519531 156.890625 116.417969 158.589844 120.3125 C 160.691406 125.007812 161.742188 130.300781 161.742188 136.191406 C 161.742188 141.496094 160.9375 146.136719 159.339844 150.125 C 157.339844 155.519531 154.214844 159.738281 149.96875 162.789062 C 145.730469 165.839844 140.664062 167.363281 134.773438 167.363281 C 128.972656 167.363281 123.953125 165.863281 119.703125 162.867188 C 115.457031 159.867188 112.335938 155.675781 110.347656 150.277344 C 108.851562 146.085938 108.101562 141.390625 108.101562 136.191406 C 108.101562 130.300781 108.996094 125.257812 110.785156 121.058594 C 112.285156 117.0625 114.933594 113.964844 118.734375 111.769531 C 119.128906 111.46875 119.128906 111.167969 118.734375 110.863281 C 115.433594 108.769531 112.886719 105.878906 111.097656 102.179688 C 109.101562 97.882812 108.101562 93.085938 108.101562 87.796875 C 108.101562 82 109.101562 77.152344 111.097656 73.257812 C 113.085938 68.867188 116.152344 65.472656 120.296875 63.074219 C 124.449219 60.671875 129.277344 59.46875 134.773438 59.46875 C 140.164062 59.46875 144.933594 60.648438 149.078125 62.996094 C 153.222656 65.339844 156.34375 68.714844 158.449219 73.117188 C 160.644531 77.300781 161.742188 82.199219 161.742188 87.796875 C 161.742188 92.992188 160.746094 97.691406 158.746094 101.882812 C 156.941406 105.582031 154.390625 108.472656 151.09375 110.566406 Z M 126.230469 82.394531 C 125.519531 84.199219 125.167969 86.496094 125.167969 89.296875 C 125.167969 92.292969 125.667969 95.144531 126.667969 97.839844 C 127.375 99.929688 128.425781 101.578125 129.824219 102.773438 C 131.21875 103.972656 132.867188 104.570312 134.773438 104.570312 C 136.867188 104.570312 138.636719 103.953125 140.082031 102.710938 C 141.527344 101.460938 142.601562 99.6875 143.300781 97.386719 C 144.101562 94.992188 144.503906 92.292969 144.503906 89.296875 C 144.503906 85.902344 144.003906 83.15625 143.003906 81.050781 C 142.304688 78.957031 141.253906 77.339844 139.847656 76.195312 C 138.453125 75.039062 136.761719 74.460938 134.773438 74.460938 C 132.96875 74.460938 131.394531 74.988281 130.042969 76.039062 C 128.699219 77.078125 127.675781 78.5 126.980469 80.300781 Z M 143.753906 143.234375 C 144.253906 140.542969 144.503906 137.890625 144.503906 135.289062 C 144.503906 131.5 144.054688 128.257812 143.160156 125.558594 C 142.554688 123.152344 141.527344 121.277344 140.082031 119.9375 C 138.636719 118.585938 136.867188 117.90625 134.773438 117.90625 C 132.667969 117.90625 130.894531 118.609375 129.449219 120.015625 C 128 121.410156 126.972656 123.410156 126.371094 126.011719 C 125.566406 128.601562 125.167969 131.597656 125.167969 134.992188 C 125.167969 138.09375 125.46875 140.941406 126.074219 143.53125 C 126.574219 146.335938 127.59375 148.511719 129.136719 150.0625 C 130.6875 151.601562 132.5625 152.371094 134.773438 152.371094 C 137.0625 152.371094 139.003906 151.574219 140.597656 149.984375 C 142.199219 148.382812 143.253906 146.132812 143.753906 143.234375 Z M 143.753906 143.234375 " fill-opacity="1" fill-rule="nonzero"/></svg>