<svg xmlns="http://www.w3.org/2000/svg" xmlns:xlink="http://www.w3.org/1999/xlink" width="300" zoomAndPan="magnify" viewBox="0 0 224.87999 225" height="300" preserveAspectRatio="xMidYMid meet" version="1.0"><path fill="#f86d58" d="M 75.964844 123.199219 C 75.964844 123.511719 75.847656 123.785156 75.621094 124.011719 C 75.402344 124.230469 75.136719 124.339844 74.824219 124.339844 L 69.03125 124.339844 C 68.65625 124.339844 68.46875 124.496094 68.46875 124.808594 L 66.859375 136.195312 C 66.859375 136.507812 66.984375 136.664062 67.234375 136.664062 L 71.59375 136.664062 C 71.914062 136.664062 72.1875 136.777344 72.40625 137.003906 C 72.625 137.222656 72.734375 137.488281 72.734375 137.800781 L 72.734375 144.921875 C 72.734375 145.234375 72.625 145.507812 72.40625 145.734375 C 72.1875 145.953125 71.914062 146.0625 71.59375 146.0625 L 65.8125 146.0625 C 65.429688 146.0625 65.238281 146.21875 65.238281 146.53125 L 63.253906 160.289062 C 63.191406 160.988281 62.777344 161.335938 62.019531 161.335938 L 53.289062 161.242188 C 52.527344 161.242188 52.179688 160.832031 52.242188 160.007812 L 54.242188 146.53125 C 54.242188 146.21875 54.109375 146.0625 53.851562 146.0625 L 43.886719 146.0625 C 43.511719 146.0625 43.328125 146.21875 43.328125 146.53125 L 41.328125 160.289062 C 41.265625 160.988281 40.851562 161.335938 40.09375 161.335938 L 31.363281 161.242188 C 30.601562 161.242188 30.253906 160.832031 30.316406 160.007812 L 32.316406 146.53125 C 32.316406 146.21875 32.191406 146.0625 31.941406 146.0625 L 27.476562 146.0625 C 27.164062 146.0625 26.890625 145.953125 26.664062 145.734375 C 26.445312 145.507812 26.335938 145.234375 26.335938 144.921875 L 26.335938 137.800781 C 26.335938 137.488281 26.445312 137.222656 26.664062 137.003906 C 26.890625 136.777344 27.164062 136.664062 27.476562 136.664062 L 33.363281 136.664062 C 33.738281 136.664062 33.925781 136.507812 33.925781 136.195312 L 35.550781 124.808594 C 35.550781 124.496094 35.417969 124.339844 35.160156 124.339844 L 30.707031 124.339844 C 30.382812 124.339844 30.113281 124.230469 29.894531 124.011719 C 29.675781 123.785156 29.566406 123.511719 29.566406 123.199219 L 29.566406 115.984375 C 29.566406 115.671875 29.675781 115.40625 29.894531 115.1875 C 30.113281 114.960938 30.382812 114.84375 30.707031 114.84375 L 36.578125 114.84375 C 36.960938 114.84375 37.15625 114.691406 37.15625 114.378906 L 39.140625 100.617188 C 39.210938 99.925781 39.625 99.574219 40.375 99.574219 L 49.105469 99.667969 C 49.863281 99.667969 50.214844 100.078125 50.152344 100.898438 L 48.167969 114.378906 C 48.167969 114.691406 48.292969 114.84375 48.542969 114.84375 L 58.503906 114.84375 C 58.878906 114.84375 59.066406 114.691406 59.066406 114.378906 L 61.066406 100.617188 C 61.128906 99.925781 61.539062 99.574219 62.300781 99.574219 L 71.03125 99.667969 C 71.789062 99.667969 72.140625 100.078125 72.078125 100.898438 L 70.078125 114.378906 C 70.078125 114.691406 70.207031 114.84375 70.46875 114.84375 L 74.824219 114.84375 C 75.136719 114.84375 75.402344 114.960938 75.621094 115.1875 C 75.847656 115.40625 75.964844 115.671875 75.964844 115.984375 Z M 55.273438 136.664062 C 55.65625 136.664062 55.851562 136.507812 55.851562 136.195312 L 57.460938 124.808594 C 57.460938 124.496094 57.335938 124.339844 57.085938 124.339844 L 47.121094 124.339844 C 46.734375 124.339844 46.542969 124.496094 46.542969 124.808594 L 44.933594 136.195312 C 44.933594 136.507812 45.058594 136.664062 45.308594 136.664062 Z M 55.273438 136.664062 " fill-opacity="1" fill-rule="nonzero"/><path fill="#00ffff" d="M 83.59375 121.441406 C 83.59375 121.75 83.476562 122.023438 83.25 122.25 C 83.03125 122.46875 82.765625 122.578125 82.453125 122.578125 L 76.660156 122.578125 C 76.285156 122.578125 76.097656 122.734375 76.097656 123.046875 L 74.488281 134.433594 C 74.488281 134.746094 74.613281 134.902344 74.863281 134.902344 L 79.222656 134.902344 C 79.542969 134.902344 79.816406 135.019531 80.035156 135.246094 C 80.253906 135.464844 80.363281 135.730469 80.363281 136.042969 L 80.363281 143.164062 C 80.363281 143.472656 80.253906 143.746094 80.035156 143.972656 C 79.816406 144.191406 79.542969 144.300781 79.222656 144.300781 L 73.441406 144.300781 C 73.058594 144.300781 72.867188 144.457031 72.867188 144.769531 L 70.882812 158.527344 C 70.820312 159.226562 70.40625 159.574219 69.648438 159.574219 L 60.917969 159.480469 C 60.15625 159.480469 59.808594 159.070312 59.871094 158.246094 L 61.871094 144.769531 C 61.871094 144.457031 61.738281 144.300781 61.480469 144.300781 L 51.515625 144.300781 C 51.144531 144.300781 50.957031 144.457031 50.957031 144.769531 L 48.957031 158.527344 C 48.894531 159.226562 48.480469 159.574219 47.722656 159.574219 L 38.992188 159.480469 C 38.230469 159.480469 37.882812 159.070312 37.945312 158.246094 L 39.945312 144.769531 C 39.945312 144.457031 39.820312 144.300781 39.570312 144.300781 L 35.105469 144.300781 C 34.792969 144.300781 34.519531 144.191406 34.292969 143.972656 C 34.074219 143.746094 33.964844 143.472656 33.964844 143.164062 L 33.964844 136.042969 C 33.964844 135.730469 34.074219 135.464844 34.292969 135.246094 C 34.519531 135.019531 34.792969 134.902344 35.105469 134.902344 L 40.992188 134.902344 C 41.367188 134.902344 41.554688 134.746094 41.554688 134.433594 L 43.179688 123.046875 C 43.179688 122.734375 43.046875 122.578125 42.789062 122.578125 L 38.335938 122.578125 C 38.011719 122.578125 37.742188 122.46875 37.523438 122.25 C 37.304688 122.023438 37.195312 121.75 37.195312 121.441406 L 37.195312 114.222656 C 37.195312 113.914062 37.304688 113.648438 37.523438 113.429688 C 37.742188 113.203125 38.011719 113.085938 38.335938 113.085938 L 44.207031 113.085938 C 44.589844 113.085938 44.785156 112.929688 44.785156 112.617188 L 46.769531 98.859375 C 46.839844 98.164062 47.253906 97.8125 48.003906 97.8125 L 56.734375 97.90625 C 57.492188 97.90625 57.84375 98.320312 57.78125 99.140625 L 55.796875 112.617188 C 55.796875 112.929688 55.921875 113.085938 56.171875 113.085938 L 66.132812 113.085938 C 66.507812 113.085938 66.695312 112.929688 66.695312 112.617188 L 68.695312 98.859375 C 68.757812 98.164062 69.167969 97.8125 69.929688 97.8125 L 78.660156 97.90625 C 79.417969 97.90625 79.769531 98.320312 79.707031 99.140625 L 77.707031 112.617188 C 77.707031 112.929688 77.835938 113.085938 78.097656 113.085938 L 82.453125 113.085938 C 82.765625 113.085938 83.03125 113.203125 83.25 113.429688 C 83.476562 113.648438 83.59375 113.914062 83.59375 114.222656 Z M 62.902344 134.902344 C 63.285156 134.902344 63.480469 134.746094 63.480469 134.433594 L 65.089844 123.046875 C 65.089844 122.734375 64.964844 122.578125 64.714844 122.578125 L 54.75 122.578125 C 54.363281 122.578125 54.171875 122.734375 54.171875 123.046875 L 52.5625 134.433594 C 52.5625 134.746094 52.6875 134.902344 52.9375 134.902344 Z M 62.902344 134.902344 " fill-opacity="1" fill-rule="nonzero"/><path fill="#1b0739" d="M 79.78125 122.320312 C 79.78125 122.632812 79.664062 122.90625 79.4375 123.132812 C 79.21875 123.351562 78.953125 123.460938 78.640625 123.460938 L 72.847656 123.460938 C 72.472656 123.460938 72.285156 123.617188 72.285156 123.929688 L 70.675781 135.3125 C 70.675781 135.625 70.800781 135.78125 71.050781 135.78125 L 75.40625 135.78125 C 75.726562 135.78125 76 135.898438 76.21875 136.125 C 76.4375 136.34375 76.546875 136.609375 76.546875 136.921875 L 76.546875 144.042969 C 76.546875 144.355469 76.4375 144.628906 76.21875 144.855469 C 76 145.074219 75.726562 145.183594 75.40625 145.183594 L 69.628906 145.183594 C 69.242188 145.183594 69.050781 145.339844 69.050781 145.652344 L 67.066406 159.410156 C 67.003906 160.109375 66.589844 160.457031 65.835938 160.457031 L 57.105469 160.363281 C 56.34375 160.363281 55.996094 159.953125 56.058594 159.128906 L 58.058594 145.652344 C 58.058594 145.339844 57.925781 145.183594 57.667969 145.183594 L 47.703125 145.183594 C 47.328125 145.183594 47.140625 145.339844 47.140625 145.652344 L 45.140625 159.410156 C 45.078125 160.109375 44.664062 160.457031 43.910156 160.457031 L 35.179688 160.363281 C 34.417969 160.363281 34.070312 159.953125 34.132812 159.128906 L 36.132812 145.652344 C 36.132812 145.339844 36.007812 145.183594 35.757812 145.183594 L 31.289062 145.183594 C 30.976562 145.183594 30.703125 145.074219 30.476562 144.855469 C 30.257812 144.628906 30.148438 144.355469 30.148438 144.042969 L 30.148438 136.921875 C 30.148438 136.609375 30.257812 136.34375 30.476562 136.125 C 30.703125 135.898438 30.976562 135.78125 31.289062 135.78125 L 37.179688 135.78125 C 37.550781 135.78125 37.738281 135.625 37.738281 135.3125 L 39.363281 123.929688 C 39.363281 123.617188 39.230469 123.460938 38.972656 123.460938 L 34.523438 123.460938 C 34.199219 123.460938 33.929688 123.351562 33.710938 123.132812 C 33.492188 122.90625 33.382812 122.632812 33.382812 122.320312 L 33.382812 115.105469 C 33.382812 114.792969 33.492188 114.527344 33.710938 114.308594 C 33.929688 114.082031 34.199219 113.964844 34.523438 113.964844 L 40.394531 113.964844 C 40.777344 113.964844 40.972656 113.808594 40.972656 113.496094 L 42.957031 99.738281 C 43.027344 99.042969 43.441406 98.691406 44.191406 98.691406 L 52.917969 98.785156 C 53.675781 98.785156 54.027344 99.199219 53.964844 100.019531 L 51.980469 113.496094 C 51.980469 113.808594 52.105469 113.964844 52.355469 113.964844 L 62.320312 113.964844 C 62.695312 113.964844 62.882812 113.808594 62.882812 113.496094 L 64.882812 99.738281 C 64.945312 99.042969 65.355469 98.691406 66.117188 98.691406 L 74.84375 98.785156 C 75.601562 98.785156 75.953125 99.199219 75.890625 100.019531 L 73.890625 113.496094 C 73.890625 113.808594 74.019531 113.964844 74.28125 113.964844 L 78.640625 113.964844 C 78.953125 113.964844 79.21875 114.082031 79.4375 114.308594 C 79.664062 114.527344 79.78125 114.792969 79.78125 115.105469 Z M 59.089844 135.78125 C 59.46875 135.78125 59.664062 135.625 59.664062 135.3125 L 61.273438 123.929688 C 61.273438 123.617188 61.148438 123.460938 60.898438 123.460938 L 50.9375 123.460938 C 50.550781 123.460938 50.359375 123.617188 50.359375 123.929688 L 48.75 135.3125 C 48.75 135.625 48.875 135.78125 49.125 135.78125 Z M 59.089844 135.78125 " fill-opacity="1" fill-rule="nonzero"/><path fill="#f86d58" d="M 155.855469 124.089844 C 156.457031 127.195312 156.761719 130.890625 156.761719 135.179688 C 156.761719 139.28125 156.5625 142.78125 156.167969 145.671875 C 155.667969 153.066406 153.066406 158.757812 148.375 162.757812 C 143.675781 166.753906 137.429688 168.753906 129.632812 168.753906 C 122.238281 168.753906 116.25 166.859375 111.660156 163.070312 C 107.066406 159.269531 104.273438 153.570312 103.273438 145.96875 L 102.820312 141.785156 C 102.820312 140.589844 103.417969 139.988281 104.617188 139.988281 L 118.40625 139.988281 C 119.601562 139.988281 120.25 140.589844 120.34375 141.785156 C 120.34375 142.378906 120.445312 143.277344 120.65625 144.46875 C 121.847656 150.667969 124.84375 153.761719 129.632812 153.761719 C 132.132812 153.761719 134.15625 152.964844 135.707031 151.371094 C 137.257812 149.773438 138.285156 147.523438 138.785156 144.625 C 139.179688 142.128906 139.378906 138.933594 139.378906 135.039062 C 139.378906 131.34375 139.074219 128.148438 138.472656 125.449219 C 137.972656 122.847656 136.945312 120.824219 135.398438 119.375 C 133.855469 117.929688 131.933594 117.203125 129.632812 117.203125 C 124.84375 117.203125 121.746094 119.5 120.34375 124.089844 C 120.050781 125.195312 119.40625 125.746094 118.40625 125.746094 L 104.460938 125.746094 C 103.960938 125.746094 103.53125 125.574219 103.179688 125.230469 C 102.835938 124.878906 102.664062 124.449219 102.664062 123.949219 L 102.664062 64.464844 C 102.664062 63.964844 102.835938 63.539062 103.179688 63.183594 C 103.53125 62.835938 103.960938 62.65625 104.460938 62.65625 L 153.308594 62.65625 C 153.808594 62.65625 154.230469 62.835938 154.574219 63.183594 C 154.925781 63.539062 155.105469 63.964844 155.105469 64.464844 L 155.105469 75.851562 C 155.105469 76.351562 154.925781 76.78125 154.574219 77.132812 C 154.230469 77.476562 153.808594 77.648438 153.308594 77.648438 L 120.792969 77.648438 C 120.296875 77.648438 120.046875 77.894531 120.046875 78.394531 L 120.046875 107.613281 C 120.046875 107.917969 120.144531 108.09375 120.34375 108.144531 C 120.550781 108.1875 120.753906 108.109375 120.949219 107.910156 C 122.644531 106.113281 124.71875 104.691406 127.167969 103.648438 C 129.609375 102.597656 132.183594 102.070312 134.882812 102.070312 C 140.878906 102.070312 145.695312 104 149.34375 107.847656 C 152.984375 111.691406 155.15625 117.105469 155.855469 124.089844 Z M 155.855469 124.089844 " fill-opacity="1" fill-rule="nonzero"/><path fill="#00ffff" d="M 167.898438 121.3125 C 168.5 124.414062 168.804688 128.113281 168.804688 132.398438 C 168.804688 136.503906 168.605469 140 168.210938 142.894531 C 167.710938 150.289062 165.109375 155.980469 160.417969 159.976562 C 155.722656 163.976562 149.476562 165.976562 141.679688 165.976562 C 134.285156 165.976562 128.296875 164.082031 123.703125 160.289062 C 119.113281 156.492188 116.316406 150.792969 115.316406 143.191406 L 114.863281 139.003906 C 114.863281 137.808594 115.460938 137.207031 116.660156 137.207031 L 130.449219 137.207031 C 131.644531 137.207031 132.292969 137.808594 132.386719 139.003906 C 132.386719 139.597656 132.488281 140.496094 132.699219 141.691406 C 133.894531 147.886719 136.886719 150.984375 141.679688 150.984375 C 144.175781 150.984375 146.199219 150.1875 147.753906 148.59375 C 149.304688 146.992188 150.332031 144.742188 150.828125 141.847656 C 151.222656 139.347656 151.421875 136.15625 151.421875 132.257812 C 151.421875 128.566406 151.117188 125.367188 150.515625 122.667969 C 150.019531 120.070312 148.992188 118.042969 147.441406 116.59375 C 145.898438 115.148438 143.976562 114.425781 141.679688 114.425781 C 136.886719 114.425781 133.792969 116.71875 132.386719 121.3125 C 132.09375 122.414062 131.449219 122.964844 130.449219 122.964844 L 116.503906 122.964844 C 116.003906 122.964844 115.574219 122.792969 115.222656 122.449219 C 114.878906 122.097656 114.707031 121.671875 114.707031 121.171875 L 114.707031 61.6875 C 114.707031 61.1875 114.878906 60.761719 115.222656 60.40625 C 115.574219 60.054688 116.003906 59.875 116.503906 59.875 L 165.351562 59.875 C 165.851562 59.875 166.273438 60.054688 166.617188 60.40625 C 166.96875 60.761719 167.148438 61.1875 167.148438 61.6875 L 167.148438 73.070312 C 167.148438 73.570312 166.96875 74 166.617188 74.351562 C 166.273438 74.695312 165.851562 74.867188 165.351562 74.867188 L 132.839844 74.867188 C 132.339844 74.867188 132.089844 75.117188 132.089844 75.617188 L 132.089844 104.835938 C 132.089844 105.140625 132.1875 105.316406 132.386719 105.367188 C 132.59375 105.410156 132.796875 105.332031 132.996094 105.132812 C 134.691406 103.332031 136.761719 101.910156 139.210938 100.867188 C 141.65625 99.820312 144.226562 99.292969 146.925781 99.292969 C 152.921875 99.292969 157.742188 101.21875 161.386719 105.070312 C 165.03125 108.910156 167.199219 114.328125 167.898438 121.3125 Z M 167.898438 121.3125 " fill-opacity="1" fill-rule="nonzero"/><path fill="#1b0739" d="M 161.875 122.699219 C 162.476562 125.804688 162.78125 129.5 162.78125 133.789062 C 162.78125 137.890625 162.582031 141.390625 162.1875 144.28125 C 161.6875 151.675781 159.089844 157.371094 154.394531 161.367188 C 149.699219 165.363281 143.453125 167.363281 135.65625 167.363281 C 128.261719 167.363281 122.273438 165.46875 117.679688 161.679688 C 113.089844 157.878906 110.292969 152.179688 109.292969 144.578125 L 108.84375 140.394531 C 108.84375 139.199219 109.4375 138.597656 110.636719 138.597656 L 124.425781 138.597656 C 125.621094 138.597656 126.269531 139.199219 126.363281 140.394531 C 126.363281 140.988281 126.464844 141.886719 126.675781 143.078125 C 127.871094 149.277344 130.867188 152.371094 135.65625 152.371094 C 138.15625 152.371094 140.175781 151.574219 141.730469 149.984375 C 143.28125 148.382812 144.308594 146.132812 144.808594 143.234375 C 145.203125 140.738281 145.402344 137.542969 145.402344 133.648438 C 145.402344 129.953125 145.097656 126.757812 144.496094 124.058594 C 143.996094 121.457031 142.96875 119.433594 141.417969 117.984375 C 139.875 116.539062 137.957031 115.8125 135.65625 115.8125 C 130.867188 115.8125 127.769531 118.109375 126.363281 122.699219 C 126.070312 123.804688 125.425781 124.355469 124.425781 124.355469 L 110.480469 124.355469 C 109.980469 124.355469 109.550781 124.183594 109.199219 123.839844 C 108.859375 123.488281 108.6875 123.058594 108.6875 122.558594 L 108.6875 63.074219 C 108.6875 62.574219 108.859375 62.152344 109.199219 61.796875 C 109.550781 61.445312 109.980469 61.265625 110.480469 61.265625 L 159.332031 61.265625 C 159.832031 61.265625 160.253906 61.445312 160.59375 61.796875 C 160.945312 62.152344 161.125 62.574219 161.125 63.074219 L 161.125 74.460938 C 161.125 74.960938 160.945312 75.390625 160.59375 75.742188 C 160.253906 76.085938 159.832031 76.257812 159.332031 76.257812 L 126.816406 76.257812 C 126.316406 76.257812 126.066406 76.507812 126.066406 77.003906 L 126.066406 106.226562 C 126.066406 106.527344 126.164062 106.703125 126.363281 106.753906 C 126.570312 106.796875 126.773438 106.71875 126.972656 106.519531 C 128.667969 104.722656 130.742188 103.300781 133.1875 102.257812 C 135.632812 101.207031 138.207031 100.679688 140.902344 100.679688 C 146.898438 100.679688 151.71875 102.609375 155.363281 106.457031 C 159.007812 110.300781 161.175781 115.714844 161.875 122.699219 Z M 161.875 122.699219 " fill-opacity="1" fill-rule="nonzero"/></svg>