<svg xmlns="http://www.w3.org/2000/svg" xmlns:xlink="http://www.w3.org/1999/xlink" width="300" zoomAndPan="magnify" viewBox="0 0 224.87999 225" height="300" preserveAspectRatio="xMidYMid meet" version="1.0"><path fill="#f86d58" d="M 75.964844 123.199219 C 75.964844 123.511719 75.847656 123.785156 75.621094 124.011719 C 75.402344 124.230469 75.136719 124.339844 74.824219 124.339844 L 69.03125 124.339844 C 68.65625 124.339844 68.46875 124.496094 68.46875 124.808594 L 66.859375 136.195312 C 66.859375 136.507812 66.984375 136.664062 67.234375 136.664062 L 71.59375 136.664062 C 71.914062 136.664062 72.1875 136.777344 72.40625 137.003906 C 72.625 137.222656 72.734375 137.488281 72.734375 137.800781 L 72.734375 144.921875 C 72.734375 145.234375 72.625 145.507812 72.40625 145.734375 C 72.1875 145.953125 71.914062 146.0625 71.59375 146.0625 L 65.8125 146.0625 C 65.429688 146.0625 65.238281 146.21875 65.238281 146.53125 L 63.253906 160.289062 C 63.191406 160.988281 62.777344 161.335938 62.019531 161.335938 L 53.289062 161.242188 C 52.527344 161.242188 52.179688 160.832031 52.242188 160.007812 L 54.242188 146.53125 C 54.242188 146.21875 54.109375 146.0625 53.851562 146.0625 L 43.886719 146.0625 C 43.511719 146.0625 43.328125 146.21875 43.328125 146.53125 L 41.328125 160.289062 C 41.265625 160.988281 40.851562 161.335938 40.09375 161.335938 L 31.363281 161.242188 C 30.601562 161.242188 30.253906 160.832031 30.316406 160.007812 L 32.316406 146.53125 C 32.316406 146.21875 32.191406 146.0625 31.941406 146.0625 L 27.476562 146.0625 C 27.164062 146.0625 26.890625 145.953125 26.664062 145.734375 C 26.445312 145.507812 26.335938 145.234375 26.335938 144.921875 L 26.335938 137.800781 C 26.335938 137.488281 26.445312 137.222656 26.664062 137.003906 C 26.890625 136.777344 27.164062 136.664062 27.476562 136.664062 L 33.363281 136.664062 C 33.738281 136.664062 33.925781 136.507812 33.925781 136.195312 L 35.550781 124.808594 C 35.550781 124.496094 35.417969 124.339844 35.160156 124.339844 L 30.707031 124.339844 C 30.382812 124.339844 30.113281 124.230469 29.894531 124.011719 C 29.675781 123.785156 29.566406 123.511719 29.566406 123.199219 L 29.566406 115.984375 C 29.566406 115.671875 29.675781 115.40625 29.894531 115.1875 C 30.113281 114.960938 30.382812 114.84375 30.707031 114.84375 L 36.578125 114.84375 C 36.960938 114.84375 37.15625 114.691406 37.15625 114.378906 L 39.140625 100.617188 C 39.210938 99.925781 39.625 99.574219 40.375 99.574219 L 49.105469 99.667969 C 49.863281 99.667969 50.214844 100.082031 50.152344 100.898438 L 48.167969 114.378906 C 48.167969 114.691406 48.292969 114.84375 48.542969 114.84375 L 58.503906 114.84375 C 58.878906 114.84375 59.066406 114.691406 59.066406 114.378906 L 61.066406 100.617188 C 61.128906 99.925781 61.539062 99.574219 62.300781 99.574219 L 71.03125 99.667969 C 71.789062 99.667969 72.140625 100.082031 72.078125 100.898438 L 70.078125 114.378906 C 70.078125 114.691406 70.207031 114.84375 70.46875 114.84375 L 74.824219 114.84375 C 75.136719 114.84375 75.402344 114.960938 75.621094 115.1875 C 75.847656 115.40625 75.964844 115.671875 75.964844 115.984375 Z M 55.273438 136.664062 C 55.65625 136.664062 55.851562 136.507812 55.851562 136.195312 L 57.460938 124.808594 C 57.460938 124.496094 57.335938 124.339844 57.085938 124.339844 L 47.121094 124.339844 C 46.734375 124.339844 46.542969 124.496094 46.542969 124.808594 L 44.933594 136.195312 C 44.933594 136.507812 45.058594 136.664062 45.308594 136.664062 Z M 55.273438 136.664062 " fill-opacity="1" fill-rule="nonzero"/><path fill="#00ffff" d="M 83.59375 121.441406 C 83.59375 121.75 83.476562 122.023438 83.25 122.25 C 83.03125 122.46875 82.765625 122.578125 82.453125 122.578125 L 76.660156 122.578125 C 76.285156 122.578125 76.097656 122.734375 76.097656 123.046875 L 74.488281 134.433594 C 74.488281 134.746094 74.613281 134.902344 74.863281 134.902344 L 79.222656 134.902344 C 79.542969 134.902344 79.816406 135.019531 80.035156 135.246094 C 80.253906 135.464844 80.363281 135.730469 80.363281 136.042969 L 80.363281 143.164062 C 80.363281 143.476562 80.253906 143.746094 80.035156 143.972656 C 79.816406 144.191406 79.542969 144.300781 79.222656 144.300781 L 73.441406 144.300781 C 73.058594 144.300781 72.867188 144.457031 72.867188 144.769531 L 70.882812 158.527344 C 70.820312 159.226562 70.40625 159.574219 69.648438 159.574219 L 60.917969 159.480469 C 60.15625 159.480469 59.808594 159.070312 59.871094 158.246094 L 61.871094 144.769531 C 61.871094 144.457031 61.738281 144.300781 61.480469 144.300781 L 51.515625 144.300781 C 51.144531 144.300781 50.957031 144.457031 50.957031 144.769531 L 48.957031 158.527344 C 48.894531 159.226562 48.480469 159.574219 47.722656 159.574219 L 38.992188 159.480469 C 38.230469 159.480469 37.882812 159.070312 37.945312 158.246094 L 39.945312 144.769531 C 39.945312 144.457031 39.820312 144.300781 39.570312 144.300781 L 35.105469 144.300781 C 34.792969 144.300781 34.519531 144.191406 34.292969 143.972656 C 34.074219 143.746094 33.964844 143.476562 33.964844 143.164062 L 33.964844 136.042969 C 33.964844 135.730469 34.074219 135.464844 34.292969 135.246094 C 34.519531 135.019531 34.792969 134.902344 35.105469 134.902344 L 40.992188 134.902344 C 41.367188 134.902344 41.554688 134.746094 41.554688 134.433594 L 43.179688 123.046875 C 43.179688 122.734375 43.046875 122.578125 42.789062 122.578125 L 38.335938 122.578125 C 38.011719 122.578125 37.742188 122.46875 37.523438 122.25 C 37.304688 122.023438 37.195312 121.75 37.195312 121.441406 L 37.195312 114.222656 C 37.195312 113.914062 37.304688 113.648438 37.523438 113.429688 C 37.742188 113.203125 38.011719 113.085938 38.335938 113.085938 L 44.207031 113.085938 C 44.589844 113.085938 44.785156 112.929688 44.785156 112.617188 L 46.769531 98.859375 C 46.839844 98.164062 47.253906 97.8125 48.003906 97.8125 L 56.734375 97.90625 C 57.492188 97.90625 57.84375 98.320312 57.78125 99.140625 L 55.796875 112.617188 C 55.796875 112.929688 55.921875 113.085938 56.171875 113.085938 L 66.132812 113.085938 C 66.507812 113.085938 66.695312 112.929688 66.695312 112.617188 L 68.695312 98.859375 C 68.757812 98.164062 69.167969 97.8125 69.929688 97.8125 L 78.660156 97.90625 C 79.417969 97.90625 79.769531 98.320312 79.707031 99.140625 L 77.707031 112.617188 C 77.707031 112.929688 77.835938 113.085938 78.097656 113.085938 L 82.453125 113.085938 C 82.765625 113.085938 83.03125 113.203125 83.25 113.429688 C 83.476562 113.648438 83.59375 113.914062 83.59375 114.222656 Z M 62.902344 134.902344 C 63.285156 134.902344 63.480469 134.746094 63.480469 134.433594 L 65.089844 123.046875 C 65.089844 122.734375 64.964844 122.578125 64.714844 122.578125 L 54.75 122.578125 C 54.363281 122.578125 54.171875 122.734375 54.171875 123.046875 L 52.5625 134.433594 C 52.5625 134.746094 52.6875 134.902344 52.9375 134.902344 Z M 62.902344 134.902344 " fill-opacity="1" fill-rule="nonzero"/><path fill="#1b0739" d="M 79.78125 122.320312 C 79.78125 122.632812 79.664062 122.90625 79.4375 123.132812 C 79.21875 123.351562 78.953125 123.460938 78.640625 123.460938 L 72.847656 123.460938 C 72.472656 123.460938 72.285156 123.617188 72.285156 123.929688 L 70.675781 135.3125 C 70.675781 135.625 70.800781 135.78125 71.050781 135.78125 L 75.40625 135.78125 C 75.726562 135.78125 76 135.898438 76.21875 136.125 C 76.4375 136.34375 76.546875 136.609375 76.546875 136.921875 L 76.546875 144.042969 C 76.546875 144.355469 76.4375 144.628906 76.21875 144.855469 C 76 145.074219 75.726562 145.183594 75.40625 145.183594 L 69.628906 145.183594 C 69.242188 145.183594 69.050781 145.339844 69.050781 145.652344 L 67.066406 159.410156 C 67.003906 160.109375 66.589844 160.457031 65.835938 160.457031 L 57.105469 160.363281 C 56.34375 160.363281 55.996094 159.953125 56.058594 159.128906 L 58.058594 145.652344 C 58.058594 145.339844 57.925781 145.183594 57.667969 145.183594 L 47.703125 145.183594 C 47.328125 145.183594 47.140625 145.339844 47.140625 145.652344 L 45.140625 159.410156 C 45.078125 160.109375 44.664062 160.457031 43.910156 160.457031 L 35.179688 160.363281 C 34.417969 160.363281 34.070312 159.953125 34.132812 159.128906 L 36.132812 145.652344 C 36.132812 145.339844 36.007812 145.183594 35.757812 145.183594 L 31.289062 145.183594 C 30.976562 145.183594 30.703125 145.074219 30.476562 144.855469 C 30.257812 144.628906 30.148438 144.355469 30.148438 144.042969 L 30.148438 136.921875 C 30.148438 136.609375 30.257812 136.34375 30.476562 136.125 C 30.703125 135.898438 30.976562 135.78125 31.289062 135.78125 L 37.179688 135.78125 C 37.550781 135.78125 37.738281 135.625 37.738281 135.3125 L 39.363281 123.929688 C 39.363281 123.617188 39.230469 123.460938 38.972656 123.460938 L 34.523438 123.460938 C 34.199219 123.460938 33.929688 123.351562 33.710938 123.132812 C 33.492188 122.90625 33.382812 122.632812 33.382812 122.320312 L 33.382812 115.105469 C 33.382812 114.792969 33.492188 114.527344 33.710938 114.308594 C 33.929688 114.082031 34.199219 113.964844 34.523438 113.964844 L 40.394531 113.964844 C 40.777344 113.964844 40.972656 113.808594 40.972656 113.496094 L 42.957031 99.738281 C 43.027344 99.042969 43.441406 98.691406 44.191406 98.691406 L 52.917969 98.785156 C 53.675781 98.785156 54.027344 99.199219 53.964844 100.019531 L 51.980469 113.496094 C 51.980469 113.808594 52.105469 113.964844 52.355469 113.964844 L 62.320312 113.964844 C 62.695312 113.964844 62.882812 113.808594 62.882812 113.496094 L 64.882812 99.738281 C 64.945312 99.042969 65.355469 98.691406 66.117188 98.691406 L 74.84375 98.785156 C 75.601562 98.785156 75.953125 99.199219 75.890625 100.019531 L 73.890625 113.496094 C 73.890625 113.808594 74.019531 113.964844 74.28125 113.964844 L 78.640625 113.964844 C 78.953125 113.964844 79.21875 114.082031 79.4375 114.308594 C 79.664062 114.527344 79.78125 114.792969 79.78125 115.105469 Z M 59.089844 135.78125 C 59.46875 135.78125 59.664062 135.625 59.664062 135.3125 L 61.273438 123.929688 C 61.273438 123.617188 61.148438 123.460938 60.898438 123.460938 L 50.9375 123.460938 C 50.550781 123.460938 50.359375 123.617188 50.359375 123.929688 L 48.75 135.3125 C 48.75 135.625 48.875 135.78125 49.125 135.78125 Z M 59.089844 135.78125 " fill-opacity="1" fill-rule="nonzero"/><path fill="#f86d58" d="M 156.09375 124.699219 C 156.59375 127.992188 156.84375 131.484375 156.84375 135.179688 C 156.84375 137.480469 156.738281 140.730469 156.53125 144.921875 C 156.035156 152.511719 153.410156 158.382812 148.664062 162.539062 C 143.921875 166.683594 137.65625 168.753906 129.859375 168.753906 C 122.464844 168.753906 116.476562 166.832031 111.886719 162.992188 C 107.292969 159.140625 104.546875 153.464844 103.640625 145.96875 C 103.046875 143.277344 102.75 140.128906 102.75 136.535156 L 102.59375 87.828125 C 102.59375 79.738281 105.0625 73.328125 110.011719 68.589844 C 114.953125 63.839844 121.472656 61.46875 129.5625 61.46875 C 137.160156 61.46875 143.355469 63.867188 148.148438 68.667969 C 152.945312 73.457031 155.347656 79.84375 155.347656 87.828125 L 155.347656 91.578125 C 155.347656 92.078125 155.167969 92.503906 154.816406 92.855469 C 154.460938 93.199219 154.039062 93.371094 153.550781 93.371094 L 139.761719 93.371094 C 139.261719 93.371094 138.832031 93.199219 138.480469 92.855469 C 138.136719 92.503906 137.964844 92.078125 137.964844 91.578125 L 137.964844 88.734375 C 137.964844 85.339844 137.136719 82.519531 135.480469 80.269531 C 133.835938 78.019531 131.863281 76.898438 129.5625 76.898438 C 126.773438 76.898438 124.503906 77.996094 122.753906 80.191406 C 121.003906 82.390625 120.128906 85.234375 120.128906 88.734375 L 120.128906 104.164062 C 120.128906 104.46875 120.226562 104.671875 120.425781 104.773438 C 120.621094 104.867188 120.820312 104.816406 121.019531 104.617188 C 123.925781 101.921875 127.519531 100.570312 131.8125 100.570312 C 138.703125 100.570312 144.292969 102.769531 148.585938 107.160156 C 152.882812 111.558594 155.386719 117.402344 156.09375 124.699219 Z M 138.855469 143.578125 C 139.15625 139.980469 139.308594 136.78125 139.308594 133.992188 C 139.308594 131.390625 139.058594 127.839844 138.558594 123.339844 C 137.359375 117.554688 134.410156 114.65625 129.71875 114.65625 C 127.320312 114.65625 125.351562 115.433594 123.800781 116.984375 C 122.246094 118.527344 121.222656 120.796875 120.722656 123.792969 C 120.324219 127.292969 120.128906 130.691406 120.128906 133.992188 C 120.128906 136.886719 120.277344 140.234375 120.582031 144.03125 C 121.082031 147.230469 122.101562 149.679688 123.644531 151.371094 C 125.195312 153.070312 127.21875 153.917969 129.71875 153.917969 C 132.21875 153.917969 134.234375 153.019531 135.777344 151.214844 C 137.328125 149.417969 138.355469 146.871094 138.855469 143.578125 Z M 138.855469 143.578125 " fill-opacity="1" fill-rule="nonzero"/><path fill="#00ffff" d="M 168.140625 121.921875 C 168.640625 125.210938 168.890625 128.707031 168.890625 132.398438 C 168.890625 134.703125 168.785156 137.949219 168.578125 142.144531 C 168.078125 149.734375 165.457031 155.605469 160.707031 159.757812 C 155.96875 163.90625 149.703125 165.976562 141.90625 165.976562 C 134.511719 165.976562 128.523438 164.054688 123.929688 160.210938 C 119.339844 156.363281 116.589844 150.6875 115.683594 143.191406 C 115.089844 140.496094 114.792969 137.347656 114.792969 133.757812 L 114.636719 85.050781 C 114.636719 76.960938 117.109375 70.550781 122.054688 65.808594 C 127 61.0625 133.519531 58.6875 141.609375 58.6875 C 149.207031 58.6875 155.402344 61.089844 160.191406 65.886719 C 164.992188 70.679688 167.390625 77.066406 167.390625 85.050781 L 167.390625 88.796875 C 167.390625 89.296875 167.210938 89.726562 166.859375 90.078125 C 166.503906 90.421875 166.082031 90.59375 165.597656 90.59375 L 151.804688 90.59375 C 151.304688 90.59375 150.878906 90.421875 150.527344 90.078125 C 150.183594 89.726562 150.011719 89.296875 150.011719 88.796875 L 150.011719 85.953125 C 150.011719 82.5625 149.183594 79.738281 147.527344 77.492188 C 145.878906 75.242188 143.90625 74.117188 141.609375 74.117188 C 138.816406 74.117188 136.546875 75.21875 134.800781 77.414062 C 133.050781 79.609375 132.175781 82.457031 132.175781 85.953125 L 132.175781 101.382812 C 132.175781 101.6875 132.273438 101.890625 132.472656 101.992188 C 132.667969 102.085938 132.867188 102.035156 133.066406 101.835938 C 135.972656 99.144531 139.566406 97.792969 143.855469 97.792969 C 150.75 97.792969 156.339844 99.992188 160.628906 104.382812 C 164.929688 108.777344 167.429688 114.625 168.140625 121.921875 Z M 150.902344 140.800781 C 151.199219 137.199219 151.351562 134.003906 151.351562 131.210938 C 151.351562 128.613281 151.101562 125.058594 150.605469 120.5625 C 149.40625 114.773438 146.457031 111.878906 141.765625 111.878906 C 139.367188 111.878906 137.394531 112.65625 135.847656 114.207031 C 134.292969 115.746094 133.269531 118.015625 132.769531 121.015625 C 132.371094 124.511719 132.175781 127.914062 132.175781 131.210938 C 132.175781 134.109375 132.324219 137.453125 132.628906 141.253906 C 133.128906 144.449219 134.148438 146.898438 135.691406 148.59375 C 137.238281 150.292969 139.265625 151.140625 141.765625 151.140625 C 144.261719 151.140625 146.28125 150.242188 147.824219 148.4375 C 149.375 146.636719 150.402344 144.089844 150.902344 140.800781 Z M 150.902344 140.800781 " fill-opacity="1" fill-rule="nonzero"/><path fill="#1b0739" d="M 162.117188 123.308594 C 162.617188 126.601562 162.867188 130.09375 162.867188 133.789062 C 162.867188 136.089844 162.761719 139.339844 162.554688 143.53125 C 162.054688 151.121094 159.433594 156.996094 154.683594 161.148438 C 149.945312 165.292969 143.679688 167.363281 135.882812 167.363281 C 128.488281 167.363281 122.5 165.441406 117.90625 161.601562 C 113.316406 157.75 110.566406 152.074219 109.660156 144.578125 C 109.070312 141.886719 108.773438 138.738281 108.773438 135.148438 L 108.617188 86.4375 C 108.617188 78.347656 111.085938 71.9375 116.035156 67.199219 C 120.976562 62.449219 127.496094 60.078125 135.585938 60.078125 C 143.183594 60.078125 149.378906 62.476562 154.167969 67.277344 C 158.96875 72.066406 161.367188 78.453125 161.367188 86.4375 L 161.367188 90.1875 C 161.367188 90.6875 161.1875 91.117188 160.839844 91.46875 C 160.484375 91.808594 160.0625 91.980469 159.574219 91.980469 L 145.785156 91.980469 C 145.285156 91.980469 144.855469 91.808594 144.503906 91.46875 C 144.160156 91.117188 143.988281 90.6875 143.988281 90.1875 L 143.988281 87.34375 C 143.988281 83.953125 143.160156 81.128906 141.503906 78.878906 C 139.855469 76.632812 137.886719 75.507812 135.585938 75.507812 C 132.792969 75.507812 130.527344 76.609375 128.777344 78.800781 C 127.027344 81 126.152344 83.847656 126.152344 87.34375 L 126.152344 102.773438 C 126.152344 103.078125 126.25 103.28125 126.449219 103.382812 C 126.644531 103.476562 126.84375 103.425781 127.042969 103.226562 C 129.949219 100.53125 133.542969 99.179688 137.835938 99.179688 C 144.726562 99.179688 150.316406 101.378906 154.605469 105.773438 C 158.90625 110.167969 161.40625 116.011719 162.117188 123.308594 Z M 144.878906 142.191406 C 145.179688 138.589844 145.332031 135.394531 145.332031 132.601562 C 145.332031 130 145.082031 126.449219 144.582031 121.949219 C 143.382812 116.164062 140.433594 113.269531 135.742188 113.269531 C 133.34375 113.269531 131.375 114.042969 129.824219 115.59375 C 128.269531 117.136719 127.246094 119.40625 126.746094 122.402344 C 126.347656 125.902344 126.152344 129.300781 126.152344 132.601562 C 126.152344 135.5 126.300781 138.84375 126.605469 142.644531 C 127.105469 145.839844 128.125 148.289062 129.667969 149.984375 C 131.21875 151.679688 133.242188 152.527344 135.742188 152.527344 C 138.242188 152.527344 140.257812 151.628906 141.800781 149.828125 C 143.351562 148.027344 144.378906 145.480469 144.878906 142.191406 Z M 144.878906 142.191406 " fill-opacity="1" fill-rule="nonzero"/></svg>