<svg xmlns="http://www.w3.org/2000/svg" xmlns:xlink="http://www.w3.org/1999/xlink" width="300" zoomAndPan="magnify" viewBox="0 0 224.87999 225" height="300" preserveAspectRatio="xMidYMid meet" version="1.0"><path fill="#f86d58" d="M 84.285156 123.199219 C 84.285156 123.511719 84.167969 123.785156 83.941406 124.011719 C 83.722656 124.230469 83.457031 124.339844 83.144531 124.339844 L 77.351562 124.339844 C 76.976562 124.339844 76.789062 124.496094 76.789062 124.808594 L 75.179688 136.195312 C 75.179688 136.507812 75.304688 136.660156 75.554688 136.660156 L 79.910156 136.660156 C 80.230469 136.660156 80.503906 136.777344 80.722656 137.003906 C 80.941406 137.222656 81.050781 137.488281 81.050781 137.800781 L 81.050781 144.921875 C 81.050781 145.234375 80.941406 145.507812 80.722656 145.734375 C 80.503906 145.953125 80.230469 146.0625 79.910156 146.0625 L 74.132812 146.0625 C 73.746094 146.0625 73.554688 146.21875 73.554688 146.53125 L 71.570312 160.289062 C 71.507812 160.988281 71.09375 161.335938 70.339844 161.335938 L 61.609375 161.242188 C 60.847656 161.242188 60.5 160.832031 60.5625 160.007812 L 62.5625 146.53125 C 62.5625 146.21875 62.429688 146.0625 62.171875 146.0625 L 52.207031 146.0625 C 51.832031 146.0625 51.644531 146.21875 51.644531 146.53125 L 49.644531 160.289062 C 49.582031 160.988281 49.167969 161.335938 48.414062 161.335938 L 39.683594 161.242188 C 38.921875 161.242188 38.574219 160.832031 38.636719 160.007812 L 40.636719 146.53125 C 40.636719 146.21875 40.511719 146.0625 40.261719 146.0625 L 35.792969 146.0625 C 35.480469 146.0625 35.207031 145.953125 34.980469 145.734375 C 34.761719 145.507812 34.652344 145.234375 34.652344 144.921875 L 34.652344 137.800781 C 34.652344 137.488281 34.761719 137.222656 34.980469 137.003906 C 35.207031 136.777344 35.480469 136.660156 35.792969 136.660156 L 41.679688 136.660156 C 42.054688 136.660156 42.242188 136.507812 42.242188 136.195312 L 43.867188 124.808594 C 43.867188 124.496094 43.734375 124.339844 43.476562 124.339844 L 39.027344 124.339844 C 38.703125 124.339844 38.433594 124.230469 38.214844 124.011719 C 37.996094 123.785156 37.886719 123.511719 37.886719 123.199219 L 37.886719 115.984375 C 37.886719 115.671875 37.996094 115.40625 38.214844 115.1875 C 38.433594 114.960938 38.703125 114.84375 39.027344 114.84375 L 44.898438 114.84375 C 45.28125 114.84375 45.476562 114.6875 45.476562 114.378906 L 47.460938 100.617188 C 47.53125 99.925781 47.945312 99.574219 48.691406 99.574219 L 57.421875 99.667969 C 58.179688 99.667969 58.53125 100.078125 58.46875 100.898438 L 56.484375 114.378906 C 56.484375 114.6875 56.609375 114.84375 56.859375 114.84375 L 66.824219 114.84375 C 67.199219 114.84375 67.386719 114.6875 67.386719 114.378906 L 69.386719 100.617188 C 69.449219 99.925781 69.859375 99.574219 70.617188 99.574219 L 79.347656 99.667969 C 80.105469 99.667969 80.457031 100.078125 80.394531 100.898438 L 78.394531 114.378906 C 78.394531 114.6875 78.523438 114.84375 78.785156 114.84375 L 83.144531 114.84375 C 83.457031 114.84375 83.722656 114.960938 83.941406 115.1875 C 84.167969 115.40625 84.285156 115.671875 84.285156 115.984375 Z M 63.589844 136.660156 C 63.972656 136.660156 64.167969 136.507812 64.167969 136.195312 L 65.777344 124.808594 C 65.777344 124.496094 65.652344 124.339844 65.402344 124.339844 L 55.441406 124.339844 C 55.054688 124.339844 54.863281 124.496094 54.863281 124.808594 L 53.253906 136.195312 C 53.253906 136.507812 53.378906 136.660156 53.628906 136.660156 Z M 63.589844 136.660156 " fill-opacity="1" fill-rule="nonzero"/><path fill="#00ffff" d="M 91.910156 121.441406 C 91.910156 121.75 91.792969 122.023438 91.566406 122.25 C 91.347656 122.46875 91.082031 122.578125 90.773438 122.578125 L 84.976562 122.578125 C 84.601562 122.578125 84.414062 122.734375 84.414062 123.046875 L 82.808594 134.433594 C 82.808594 134.746094 82.933594 134.902344 83.183594 134.902344 L 87.539062 134.902344 C 87.859375 134.902344 88.132812 135.019531 88.351562 135.246094 C 88.570312 135.464844 88.679688 135.730469 88.679688 136.042969 L 88.679688 143.164062 C 88.679688 143.472656 88.570312 143.746094 88.351562 143.972656 C 88.132812 144.191406 87.859375 144.300781 87.539062 144.300781 L 81.761719 144.300781 C 81.375 144.300781 81.183594 144.457031 81.183594 144.769531 L 79.199219 158.527344 C 79.136719 159.226562 78.722656 159.574219 77.964844 159.574219 L 69.234375 159.480469 C 68.476562 159.480469 68.128906 159.070312 68.191406 158.246094 L 70.1875 144.769531 C 70.1875 144.457031 70.054688 144.300781 69.796875 144.300781 L 59.835938 144.300781 C 59.460938 144.300781 59.273438 144.457031 59.273438 144.769531 L 57.273438 158.527344 C 57.210938 159.226562 56.796875 159.574219 56.039062 159.574219 L 47.308594 159.480469 C 46.550781 159.480469 46.203125 159.070312 46.265625 158.246094 L 48.261719 144.769531 C 48.261719 144.457031 48.136719 144.300781 47.886719 144.300781 L 43.421875 144.300781 C 43.109375 144.300781 42.835938 144.191406 42.609375 143.972656 C 42.390625 143.746094 42.28125 143.472656 42.28125 143.164062 L 42.28125 136.042969 C 42.28125 135.730469 42.390625 135.464844 42.609375 135.246094 C 42.835938 135.019531 43.109375 134.902344 43.421875 134.902344 L 49.308594 134.902344 C 49.683594 134.902344 49.871094 134.746094 49.871094 134.433594 L 51.496094 123.046875 C 51.496094 122.734375 51.363281 122.578125 51.105469 122.578125 L 46.65625 122.578125 C 46.332031 122.578125 46.0625 122.46875 45.84375 122.25 C 45.625 122.023438 45.515625 121.75 45.515625 121.441406 L 45.515625 114.222656 C 45.515625 113.914062 45.625 113.648438 45.84375 113.429688 C 46.0625 113.203125 46.332031 113.085938 46.65625 113.085938 L 52.527344 113.085938 C 52.910156 113.085938 53.105469 112.929688 53.105469 112.617188 L 55.085938 98.859375 C 55.15625 98.164062 55.570312 97.8125 56.320312 97.8125 L 65.050781 97.90625 C 65.808594 97.90625 66.160156 98.320312 66.097656 99.140625 L 64.113281 112.617188 C 64.113281 112.929688 64.238281 113.085938 64.488281 113.085938 L 74.453125 113.085938 C 74.828125 113.085938 75.015625 112.929688 75.015625 112.617188 L 77.011719 98.859375 C 77.074219 98.164062 77.484375 97.8125 78.246094 97.8125 L 86.976562 97.90625 C 87.734375 97.90625 88.085938 98.320312 88.023438 99.140625 L 86.023438 112.617188 C 86.023438 112.929688 86.152344 113.085938 86.414062 113.085938 L 90.773438 113.085938 C 91.082031 113.085938 91.347656 113.203125 91.566406 113.429688 C 91.792969 113.648438 91.910156 113.914062 91.910156 114.222656 Z M 71.21875 134.902344 C 71.601562 134.902344 71.796875 134.746094 71.796875 134.433594 L 73.40625 123.046875 C 73.40625 122.734375 73.28125 122.578125 73.03125 122.578125 L 63.066406 122.578125 C 62.679688 122.578125 62.488281 122.734375 62.488281 123.046875 L 60.882812 134.433594 C 60.882812 134.746094 61.007812 134.902344 61.257812 134.902344 Z M 71.21875 134.902344 " fill-opacity="1" fill-rule="nonzero"/><path fill="#1b0739" d="M 88.097656 122.320312 C 88.097656 122.632812 87.980469 122.90625 87.753906 123.132812 C 87.535156 123.351562 87.269531 123.460938 86.957031 123.460938 L 81.164062 123.460938 C 80.789062 123.460938 80.601562 123.617188 80.601562 123.929688 L 78.992188 135.3125 C 78.992188 135.625 79.117188 135.78125 79.367188 135.78125 L 83.726562 135.78125 C 84.046875 135.78125 84.320312 135.898438 84.535156 136.125 C 84.753906 136.34375 84.863281 136.609375 84.863281 136.921875 L 84.863281 144.042969 C 84.863281 144.355469 84.753906 144.628906 84.535156 144.855469 C 84.320312 145.074219 84.046875 145.183594 83.726562 145.183594 L 77.945312 145.183594 C 77.558594 145.183594 77.367188 145.339844 77.367188 145.652344 L 75.386719 159.410156 C 75.324219 160.109375 74.910156 160.457031 74.152344 160.457031 L 65.421875 160.363281 C 64.660156 160.363281 64.3125 159.953125 64.375 159.128906 L 66.375 145.652344 C 66.375 145.339844 66.242188 145.183594 65.984375 145.183594 L 56.019531 145.183594 C 55.644531 145.183594 55.457031 145.339844 55.457031 145.652344 L 53.460938 159.410156 C 53.398438 160.109375 52.984375 160.457031 52.226562 160.457031 L 43.496094 160.363281 C 42.734375 160.363281 42.386719 159.953125 42.449219 159.128906 L 44.449219 145.652344 C 44.449219 145.339844 44.324219 145.183594 44.074219 145.183594 L 39.609375 145.183594 C 39.296875 145.183594 39.023438 145.074219 38.796875 144.855469 C 38.578125 144.628906 38.46875 144.355469 38.46875 144.042969 L 38.46875 136.921875 C 38.46875 136.609375 38.578125 136.34375 38.796875 136.125 C 39.023438 135.898438 39.296875 135.78125 39.609375 135.78125 L 45.496094 135.78125 C 45.871094 135.78125 46.058594 135.625 46.058594 135.3125 L 47.683594 123.929688 C 47.683594 123.617188 47.550781 123.460938 47.292969 123.460938 L 42.839844 123.460938 C 42.515625 123.460938 42.246094 123.351562 42.027344 123.132812 C 41.808594 122.90625 41.699219 122.632812 41.699219 122.320312 L 41.699219 115.105469 C 41.699219 114.792969 41.808594 114.527344 42.027344 114.308594 C 42.246094 114.082031 42.515625 113.964844 42.839844 113.964844 L 48.710938 113.964844 C 49.09375 113.964844 49.289062 113.808594 49.289062 113.496094 L 51.273438 99.738281 C 51.34375 99.042969 51.757812 98.691406 52.507812 98.691406 L 61.238281 98.785156 C 61.996094 98.785156 62.347656 99.199219 62.285156 100.019531 L 60.300781 113.496094 C 60.300781 113.808594 60.425781 113.964844 60.675781 113.964844 L 70.636719 113.964844 C 71.011719 113.964844 71.199219 113.808594 71.199219 113.496094 L 73.199219 99.738281 C 73.261719 99.042969 73.671875 98.691406 74.433594 98.691406 L 83.164062 98.785156 C 83.921875 98.785156 84.273438 99.199219 84.210938 100.019531 L 82.210938 113.496094 C 82.210938 113.808594 82.339844 113.964844 82.601562 113.964844 L 86.957031 113.964844 C 87.269531 113.964844 87.535156 114.082031 87.753906 114.308594 C 87.980469 114.527344 88.097656 114.792969 88.097656 115.105469 Z M 67.40625 135.78125 C 67.789062 135.78125 67.984375 135.625 67.984375 135.3125 L 69.59375 123.929688 C 69.59375 123.617188 69.46875 123.460938 69.21875 123.460938 L 59.253906 123.460938 C 58.867188 123.460938 58.675781 123.617188 58.675781 123.929688 L 57.066406 135.3125 C 57.066406 135.625 57.191406 135.78125 57.441406 135.78125 Z M 67.40625 135.78125 " fill-opacity="1" fill-rule="nonzero"/><path fill="#f86d58" d="M 114.519531 167.550781 C 113.214844 167.550781 112.714844 166.902344 113.019531 165.597656 L 137.742188 78.550781 C 137.9375 77.949219 137.734375 77.644531 137.132812 77.644531 L 116.910156 77.644531 C 116.410156 77.644531 116.160156 77.894531 116.160156 78.394531 L 116.160156 83.785156 C 116.160156 84.285156 115.980469 84.714844 115.628906 85.0625 C 115.285156 85.417969 114.863281 85.59375 114.363281 85.59375 L 103.726562 85.59375 C 103.226562 85.59375 102.796875 85.417969 102.445312 85.0625 C 102.105469 84.714844 101.933594 84.285156 101.933594 83.785156 L 102.074219 64.464844 C 102.074219 63.964844 102.246094 63.539062 102.585938 63.183594 C 102.9375 62.835938 103.367188 62.65625 103.867188 62.65625 L 154.667969 62.65625 C 155.167969 62.65625 155.589844 62.835938 155.933594 63.183594 C 156.285156 63.539062 156.464844 63.964844 156.464844 64.464844 L 156.464844 76.601562 C 156.464844 77 156.363281 77.691406 156.167969 78.691406 L 131.152344 166.050781 C 130.847656 167.050781 130.144531 167.550781 129.042969 167.550781 Z M 114.519531 167.550781 " fill-opacity="1" fill-rule="nonzero"/><path fill="#00ffff" d="M 126.5625 164.773438 C 125.261719 164.773438 124.761719 164.125 125.066406 162.820312 L 149.785156 75.773438 C 149.980469 75.171875 149.777344 74.867188 149.175781 74.867188 L 128.953125 74.867188 C 128.453125 74.867188 128.203125 75.117188 128.203125 75.617188 L 128.203125 81.003906 C 128.203125 81.503906 128.023438 81.933594 127.671875 82.285156 C 127.328125 82.640625 126.90625 82.816406 126.410156 82.816406 L 115.773438 82.816406 C 115.273438 82.816406 114.84375 82.640625 114.492188 82.285156 C 114.148438 81.933594 113.976562 81.503906 113.976562 81.003906 L 114.117188 61.6875 C 114.117188 61.1875 114.289062 60.761719 114.632812 60.40625 C 114.984375 60.054688 115.414062 59.875 115.914062 59.875 L 166.714844 59.875 C 167.214844 59.875 167.636719 60.054688 167.980469 60.40625 C 168.332031 60.761719 168.511719 61.1875 168.511719 61.6875 L 168.511719 73.820312 C 168.511719 74.21875 168.410156 74.914062 168.214844 75.914062 L 143.195312 163.273438 C 142.890625 164.273438 142.1875 164.773438 141.089844 164.773438 Z M 126.5625 164.773438 " fill-opacity="1" fill-rule="nonzero"/><path fill="#1b0739" d="M 120.542969 166.160156 C 119.238281 166.160156 118.738281 165.511719 119.042969 164.210938 L 143.761719 77.160156 C 143.957031 76.5625 143.753906 76.257812 143.15625 76.257812 L 122.929688 76.257812 C 122.429688 76.257812 122.179688 76.507812 122.179688 77.003906 L 122.179688 82.394531 C 122.179688 82.894531 122 83.324219 121.652344 83.675781 C 121.308594 84.03125 120.886719 84.207031 120.386719 84.207031 L 109.75 84.207031 C 109.25 84.207031 108.820312 84.03125 108.46875 83.675781 C 108.125 83.324219 107.953125 82.894531 107.953125 82.394531 L 108.09375 63.074219 C 108.09375 62.574219 108.265625 62.152344 108.609375 61.796875 C 108.960938 61.445312 109.390625 61.265625 109.890625 61.265625 L 160.691406 61.265625 C 161.191406 61.265625 161.613281 61.445312 161.957031 61.796875 C 162.308594 62.152344 162.488281 62.574219 162.488281 63.074219 L 162.488281 75.210938 C 162.488281 75.609375 162.386719 76.304688 162.191406 77.300781 L 137.171875 164.664062 C 136.867188 165.660156 136.167969 166.160156 135.066406 166.160156 Z M 120.542969 166.160156 " fill-opacity="1" fill-rule="nonzero"/></svg>