<svg xmlns="http://www.w3.org/2000/svg" xmlns:xlink="http://www.w3.org/1999/xlink" width="260" zoomAndPan="magnify" viewBox="0 0 194.87999 195.000001" height="260" preserveAspectRatio="xMidYMid meet" version="1.0"><path fill="#f86d58" d="M 76.800781 94.941406 C 76.800781 95.21875 76.699219 95.460938 76.503906 95.65625 C 76.304688 95.855469 76.070312 95.949219 75.789062 95.949219 L 70.660156 95.949219 C 70.316406 95.949219 70.144531 96.089844 70.144531 96.371094 L 68.714844 106.460938 C 68.714844 106.738281 68.828125 106.878906 69.058594 106.878906 L 72.929688 106.878906 C 73.207031 106.878906 73.445312 106.980469 73.644531 107.175781 C 73.835938 107.371094 73.9375 107.609375 73.9375 107.890625 L 73.9375 114.203125 C 73.9375 114.480469 73.835938 114.722656 73.644531 114.917969 C 73.445312 115.113281 73.207031 115.210938 72.929688 115.210938 L 67.796875 115.210938 C 67.457031 115.210938 67.285156 115.351562 67.285156 115.632812 L 65.527344 127.835938 C 65.464844 128.457031 65.097656 128.765625 64.425781 128.765625 L 56.683594 128.675781 C 56.007812 128.675781 55.703125 128.3125 55.765625 127.585938 L 57.523438 115.632812 C 57.523438 115.351562 57.414062 115.210938 57.195312 115.210938 L 48.367188 115.210938 C 48.023438 115.210938 47.855469 115.351562 47.855469 115.632812 L 46.082031 127.835938 C 46.027344 128.457031 45.664062 128.765625 44.992188 128.765625 L 37.25 128.675781 C 36.574219 128.675781 36.273438 128.3125 36.335938 127.585938 L 38.089844 115.632812 C 38.089844 115.351562 37.984375 115.210938 37.765625 115.210938 L 33.800781 115.210938 C 33.519531 115.210938 33.28125 115.113281 33.085938 114.917969 C 32.886719 114.722656 32.789062 114.480469 32.789062 114.203125 L 32.789062 107.890625 C 32.789062 107.609375 32.886719 107.371094 33.085938 107.175781 C 33.28125 106.980469 33.519531 106.878906 33.800781 106.878906 L 39.023438 106.878906 C 39.355469 106.878906 39.523438 106.738281 39.523438 106.460938 L 40.953125 96.371094 C 40.953125 96.089844 40.84375 95.949219 40.625 95.949219 L 36.660156 95.949219 C 36.382812 95.949219 36.140625 95.855469 35.945312 95.65625 C 35.746094 95.460938 35.652344 95.21875 35.652344 94.941406 L 35.652344 88.550781 C 35.652344 88.273438 35.746094 88.035156 35.945312 87.835938 C 36.140625 87.640625 36.382812 87.542969 36.660156 87.542969 L 41.882812 87.542969 C 42.214844 87.542969 42.382812 87.402344 42.382812 87.121094 L 44.152344 74.917969 C 44.203125 74.296875 44.566406 73.984375 45.242188 73.984375 L 52.984375 74.078125 C 53.65625 74.078125 53.96875 74.445312 53.917969 75.167969 L 52.144531 87.121094 C 52.144531 87.402344 52.257812 87.542969 52.484375 87.542969 L 61.316406 87.542969 C 61.644531 87.542969 61.8125 87.402344 61.8125 87.121094 L 63.585938 74.917969 C 63.648438 74.296875 64.007812 73.984375 64.671875 73.984375 L 72.414062 74.078125 C 73.085938 74.078125 73.398438 74.445312 73.347656 75.167969 L 71.574219 87.121094 C 71.574219 87.402344 71.6875 87.542969 71.917969 87.542969 L 75.789062 87.542969 C 76.070312 87.542969 76.304688 87.640625 76.503906 87.835938 C 76.699219 88.035156 76.800781 88.273438 76.800781 88.550781 Z M 58.457031 106.878906 C 58.785156 106.878906 58.953125 106.738281 58.953125 106.460938 L 60.382812 96.371094 C 60.382812 96.089844 60.273438 95.949219 60.058594 95.949219 L 51.226562 95.949219 C 50.886719 95.949219 50.714844 96.089844 50.714844 96.371094 L 49.285156 106.460938 C 49.285156 106.738281 49.398438 106.878906 49.625 106.878906 Z M 58.457031 106.878906 " fill-opacity="1" fill-rule="nonzero"/><path fill="#00ffff" d="M 83.5625 93.378906 C 83.5625 93.660156 83.460938 93.902344 83.265625 94.09375 C 83.070312 94.292969 82.832031 94.390625 82.550781 94.390625 L 77.421875 94.390625 C 77.078125 94.390625 76.910156 94.53125 76.910156 94.808594 L 75.480469 104.898438 C 75.480469 105.179688 75.589844 105.320312 75.820312 105.320312 L 79.691406 105.320312 C 79.972656 105.320312 80.207031 105.417969 80.40625 105.613281 C 80.601562 105.8125 80.703125 106.050781 80.703125 106.328125 L 80.703125 112.640625 C 80.703125 112.921875 80.601562 113.160156 80.40625 113.355469 C 80.207031 113.554688 79.972656 113.652344 79.691406 113.652344 L 74.5625 113.652344 C 74.21875 113.652344 74.046875 113.789062 74.046875 114.070312 L 72.292969 126.273438 C 72.230469 126.894531 71.859375 127.207031 71.1875 127.207031 L 63.445312 127.113281 C 62.769531 127.113281 62.46875 126.75 62.53125 126.023438 L 64.285156 114.070312 C 64.285156 113.789062 64.175781 113.652344 63.960938 113.652344 L 55.128906 113.652344 C 54.789062 113.652344 54.617188 113.789062 54.617188 114.070312 L 52.84375 126.273438 C 52.789062 126.894531 52.429688 127.207031 51.757812 127.207031 L 44.015625 127.113281 C 43.339844 127.113281 43.035156 126.75 43.097656 126.023438 L 44.855469 114.070312 C 44.855469 113.789062 44.746094 113.652344 44.527344 113.652344 L 40.5625 113.652344 C 40.285156 113.652344 40.042969 113.554688 39.847656 113.355469 C 39.652344 113.160156 39.554688 112.921875 39.554688 112.640625 L 39.554688 106.328125 C 39.554688 106.050781 39.652344 105.8125 39.847656 105.613281 C 40.042969 105.417969 40.285156 105.320312 40.5625 105.320312 L 45.789062 105.320312 C 46.117188 105.320312 46.285156 105.179688 46.285156 104.898438 L 47.714844 94.808594 C 47.714844 94.53125 47.605469 94.390625 47.386719 94.390625 L 43.425781 94.390625 C 43.144531 94.390625 42.902344 94.292969 42.710938 94.09375 C 42.511719 93.902344 42.414062 93.660156 42.414062 93.378906 L 42.414062 86.992188 C 42.414062 86.710938 42.511719 86.472656 42.710938 86.277344 C 42.902344 86.082031 43.144531 85.980469 43.425781 85.980469 L 48.648438 85.980469 C 48.976562 85.980469 49.144531 85.839844 49.144531 85.558594 L 50.917969 73.355469 C 50.96875 72.734375 51.328125 72.425781 52.003906 72.425781 L 59.746094 72.519531 C 60.417969 72.519531 60.730469 72.882812 60.679688 73.605469 L 58.90625 85.558594 C 58.90625 85.839844 59.019531 85.980469 59.25 85.980469 L 68.078125 85.980469 C 68.410156 85.980469 68.578125 85.839844 68.578125 85.558594 L 70.347656 73.355469 C 70.410156 72.734375 70.773438 72.425781 71.4375 72.425781 L 79.179688 72.519531 C 79.851562 72.519531 80.160156 72.882812 80.113281 73.605469 L 78.339844 85.558594 C 78.339844 85.839844 78.453125 85.980469 78.679688 85.980469 L 82.550781 85.980469 C 82.832031 85.980469 83.070312 86.082031 83.265625 86.277344 C 83.460938 86.472656 83.5625 86.710938 83.5625 86.992188 Z M 65.21875 105.320312 C 65.550781 105.320312 65.714844 105.179688 65.714844 104.898438 L 67.148438 94.808594 C 67.148438 94.53125 67.039062 94.390625 66.820312 94.390625 L 57.992188 94.390625 C 57.648438 94.390625 57.476562 94.53125 57.476562 94.808594 L 56.046875 104.898438 C 56.046875 105.179688 56.160156 105.320312 56.390625 105.320312 Z M 65.21875 105.320312 " fill-opacity="1" fill-rule="nonzero"/><path fill="#1b0739" d="M 80.179688 94.160156 C 80.179688 94.441406 80.078125 94.679688 79.886719 94.875 C 79.6875 95.074219 79.449219 95.171875 79.171875 95.171875 L 74.039062 95.171875 C 73.699219 95.171875 73.527344 95.308594 73.527344 95.589844 L 72.097656 105.679688 C 72.097656 105.957031 72.210938 106.097656 72.4375 106.097656 L 76.308594 106.097656 C 76.589844 106.097656 76.828125 106.199219 77.023438 106.394531 C 77.21875 106.59375 77.320312 106.828125 77.320312 107.109375 L 77.320312 113.421875 C 77.320312 113.699219 77.21875 113.941406 77.023438 114.136719 C 76.828125 114.332031 76.589844 114.429688 76.308594 114.429688 L 71.179688 114.429688 C 70.839844 114.429688 70.667969 114.570312 70.667969 114.851562 L 68.910156 127.054688 C 68.847656 127.675781 68.480469 127.984375 67.808594 127.984375 L 60.066406 127.894531 C 59.390625 127.894531 59.085938 127.53125 59.148438 126.804688 L 60.90625 114.851562 C 60.90625 114.570312 60.796875 114.429688 60.578125 114.429688 L 51.75 114.429688 C 51.40625 114.429688 51.234375 114.570312 51.234375 114.851562 L 49.464844 127.054688 C 49.410156 127.675781 49.046875 127.984375 48.375 127.984375 L 40.632812 127.894531 C 39.957031 127.894531 39.652344 127.53125 39.714844 126.804688 L 41.472656 114.851562 C 41.472656 114.570312 41.363281 114.429688 41.148438 114.429688 L 37.183594 114.429688 C 36.902344 114.429688 36.660156 114.332031 36.46875 114.136719 C 36.269531 113.941406 36.171875 113.699219 36.171875 113.421875 L 36.171875 107.109375 C 36.171875 106.828125 36.269531 106.59375 36.46875 106.394531 C 36.660156 106.199219 36.902344 106.097656 37.183594 106.097656 L 42.40625 106.097656 C 42.734375 106.097656 42.902344 105.957031 42.902344 105.679688 L 44.332031 95.589844 C 44.332031 95.308594 44.222656 95.171875 44.007812 95.171875 L 40.042969 95.171875 C 39.761719 95.171875 39.523438 95.074219 39.328125 94.875 C 39.128906 94.679688 39.03125 94.441406 39.03125 94.160156 L 39.03125 87.769531 C 39.03125 87.492188 39.128906 87.253906 39.328125 87.054688 C 39.523438 86.859375 39.761719 86.761719 40.042969 86.761719 L 45.265625 86.761719 C 45.597656 86.761719 45.761719 86.621094 45.761719 86.339844 L 47.535156 74.136719 C 47.585938 73.515625 47.949219 73.203125 48.625 73.203125 L 56.367188 73.296875 C 57.039062 73.296875 57.347656 73.664062 57.296875 74.386719 L 55.527344 86.339844 C 55.527344 86.621094 55.636719 86.761719 55.867188 86.761719 L 64.699219 86.761719 C 65.027344 86.761719 65.195312 86.621094 65.195312 86.339844 L 66.96875 74.136719 C 67.03125 73.515625 67.390625 73.203125 68.054688 73.203125 L 75.796875 73.296875 C 76.46875 73.296875 76.78125 73.664062 76.730469 74.386719 L 74.957031 86.339844 C 74.957031 86.621094 75.070312 86.761719 75.300781 86.761719 L 79.171875 86.761719 C 79.449219 86.761719 79.6875 86.859375 79.886719 87.054688 C 80.078125 87.253906 80.179688 87.492188 80.179688 87.769531 Z M 61.835938 106.097656 C 62.167969 106.097656 62.335938 105.957031 62.335938 105.679688 L 63.765625 95.589844 C 63.765625 95.308594 63.65625 95.171875 63.4375 95.171875 L 54.609375 95.171875 C 54.265625 95.171875 54.097656 95.308594 54.097656 95.589844 L 52.664062 105.679688 C 52.664062 105.957031 52.777344 106.097656 53.007812 106.097656 Z M 61.835938 106.097656 " fill-opacity="1" fill-rule="nonzero"/><path fill="#f86d58" d="M 108.414062 56.386719 C 108.964844 56.152344 109.554688 56.03125 110.1875 56.03125 L 121.597656 56.03125 C 121.988281 56.03125 122.320312 56.171875 122.59375 56.449219 C 122.871094 56.730469 123.011719 57.066406 123.011719 57.460938 L 123.011719 137.753906 C 123.011719 138.15625 122.871094 138.5 122.59375 138.777344 C 122.320312 139.050781 121.988281 139.183594 121.597656 139.183594 L 110.667969 139.183594 C 110.273438 139.183594 109.9375 139.050781 109.660156 138.777344 C 109.378906 138.5 109.238281 138.15625 109.238281 137.753906 L 109.238281 70.765625 C 109.238281 70.605469 109.175781 70.441406 109.050781 70.285156 C 108.9375 70.128906 108.804688 70.09375 108.648438 70.175781 L 98.902344 72.074219 L 98.542969 72.074219 C 97.671875 72.074219 97.238281 71.636719 97.238281 70.765625 L 96.878906 62.808594 C 96.878906 62.011719 97.199219 61.457031 97.84375 61.144531 Z M 108.414062 56.386719 " fill-opacity="1" fill-rule="nonzero"/><path fill="#00ffff" d="M 117.964844 54.183594 C 118.511719 53.945312 119.101562 53.824219 119.734375 53.824219 L 131.144531 53.824219 C 131.539062 53.824219 131.871094 53.964844 132.140625 54.246094 C 132.421875 54.523438 132.5625 54.863281 132.5625 55.257812 L 132.5625 135.546875 C 132.5625 135.953125 132.421875 136.292969 132.140625 136.574219 C 131.871094 136.84375 131.539062 136.976562 131.144531 136.976562 L 120.21875 136.976562 C 119.820312 136.976562 119.488281 136.84375 119.207031 136.574219 C 118.929688 136.292969 118.789062 135.953125 118.789062 135.546875 L 118.789062 68.5625 C 118.789062 68.398438 118.726562 68.234375 118.601562 68.082031 C 118.484375 67.925781 118.351562 67.890625 118.195312 67.972656 L 108.449219 69.867188 L 108.09375 69.867188 C 107.222656 69.867188 106.785156 69.433594 106.785156 68.5625 L 106.429688 60.605469 C 106.429688 59.808594 106.75 59.25 107.394531 58.941406 Z M 117.964844 54.183594 " fill-opacity="1" fill-rule="nonzero"/><path fill="#1b0739" d="M 113.191406 55.285156 C 113.738281 55.046875 114.328125 54.929688 114.960938 54.929688 L 126.371094 54.929688 C 126.765625 54.929688 127.09375 55.066406 127.367188 55.347656 C 127.648438 55.628906 127.785156 55.964844 127.785156 56.359375 L 127.785156 136.648438 C 127.785156 137.054688 127.648438 137.394531 127.367188 137.675781 C 127.09375 137.949219 126.765625 138.078125 126.371094 138.078125 L 115.445312 138.078125 C 115.046875 138.078125 114.714844 137.949219 114.433594 137.675781 C 114.152344 137.394531 114.011719 137.054688 114.011719 136.648438 L 114.011719 69.664062 C 114.011719 69.5 113.953125 69.339844 113.828125 69.183594 C 113.710938 69.027344 113.578125 68.992188 113.421875 69.074219 L 103.675781 70.972656 L 103.316406 70.972656 C 102.449219 70.972656 102.011719 70.535156 102.011719 69.664062 L 101.65625 61.707031 C 101.65625 60.910156 101.972656 60.351562 102.617188 60.042969 Z M 113.191406 55.285156 " fill-opacity="1" fill-rule="nonzero"/></svg>