<svg xmlns="http://www.w3.org/2000/svg" xmlns:xlink="http://www.w3.org/1999/xlink" width="260" zoomAndPan="magnify" viewBox="0 0 194.87999 195.000001" height="260" preserveAspectRatio="xMidYMid meet" version="1.0"><path fill="#f86d58" d="M 76.800781 94.941406 C 76.800781 95.21875 76.699219 95.460938 76.503906 95.65625 C 76.304688 95.855469 76.070312 95.949219 75.789062 95.949219 L 70.660156 95.949219 C 70.316406 95.949219 70.144531 96.089844 70.144531 96.371094 L 68.714844 106.460938 C 68.714844 106.738281 68.828125 106.878906 69.058594 106.878906 L 72.929688 106.878906 C 73.207031 106.878906 73.445312 106.980469 73.644531 107.175781 C 73.835938 107.371094 73.9375 107.609375 73.9375 107.890625 L 73.9375 114.203125 C 73.9375 114.480469 73.835938 114.722656 73.644531 114.917969 C 73.445312 115.113281 73.207031 115.210938 72.929688 115.210938 L 67.796875 115.210938 C 67.457031 115.210938 67.285156 115.351562 67.285156 115.632812 L 65.527344 127.835938 C 65.464844 128.457031 65.097656 128.765625 64.425781 128.765625 L 56.683594 128.675781 C 56.007812 128.675781 55.703125 128.3125 55.765625 127.585938 L 57.523438 115.632812 C 57.523438 115.351562 57.414062 115.210938 57.195312 115.210938 L 48.367188 115.210938 C 48.023438 115.210938 47.855469 115.351562 47.855469 115.632812 L 46.082031 127.835938 C 46.027344 128.457031 45.664062 128.765625 44.992188 128.765625 L 37.25 128.675781 C 36.574219 128.675781 36.273438 128.3125 36.335938 127.585938 L 38.089844 115.632812 C 38.089844 115.351562 37.984375 115.210938 37.765625 115.210938 L 33.800781 115.210938 C 33.519531 115.210938 33.28125 115.113281 33.085938 114.917969 C 32.886719 114.722656 32.789062 114.480469 32.789062 114.203125 L 32.789062 107.890625 C 32.789062 107.609375 32.886719 107.371094 33.085938 107.175781 C 33.28125 106.980469 33.519531 106.878906 33.800781 106.878906 L 39.023438 106.878906 C 39.355469 106.878906 39.523438 106.738281 39.523438 106.460938 L 40.953125 96.371094 C 40.953125 96.089844 40.84375 95.949219 40.625 95.949219 L 36.660156 95.949219 C 36.382812 95.949219 36.140625 95.855469 35.945312 95.65625 C 35.746094 95.460938 35.652344 95.21875 35.652344 94.941406 L 35.652344 88.550781 C 35.652344 88.273438 35.746094 88.035156 35.945312 87.835938 C 36.140625 87.640625 36.382812 87.542969 36.660156 87.542969 L 41.882812 87.542969 C 42.214844 87.542969 42.382812 87.402344 42.382812 87.121094 L 44.152344 74.917969 C 44.203125 74.296875 44.566406 73.984375 45.242188 73.984375 L 52.984375 74.078125 C 53.65625 74.078125 53.96875 74.445312 53.917969 75.167969 L 52.144531 87.121094 C 52.144531 87.402344 52.257812 87.542969 52.484375 87.542969 L 61.316406 87.542969 C 61.644531 87.542969 61.8125 87.402344 61.8125 87.121094 L 63.585938 74.917969 C 63.648438 74.296875 64.007812 73.984375 64.671875 73.984375 L 72.414062 74.078125 C 73.085938 74.078125 73.398438 74.445312 73.347656 75.167969 L 71.574219 87.121094 C 71.574219 87.402344 71.6875 87.542969 71.917969 87.542969 L 75.789062 87.542969 C 76.070312 87.542969 76.304688 87.640625 76.503906 87.835938 C 76.699219 88.035156 76.800781 88.273438 76.800781 88.550781 Z M 58.457031 106.878906 C 58.785156 106.878906 58.953125 106.738281 58.953125 106.460938 L 60.382812 96.371094 C 60.382812 96.089844 60.273438 95.949219 60.058594 95.949219 L 51.226562 95.949219 C 50.886719 95.949219 50.714844 96.089844 50.714844 96.371094 L 49.285156 106.460938 C 49.285156 106.738281 49.398438 106.878906 49.625 106.878906 Z M 58.457031 106.878906 " fill-opacity="1" fill-rule="nonzero"/><path fill="#00ffff" d="M 83.5625 93.378906 C 83.5625 93.660156 83.460938 93.902344 83.265625 94.09375 C 83.070312 94.292969 82.832031 94.390625 82.550781 94.390625 L 77.421875 94.390625 C 77.078125 94.390625 76.910156 94.53125 76.910156 94.808594 L 75.480469 104.898438 C 75.480469 105.179688 75.589844 105.320312 75.820312 105.320312 L 79.691406 105.320312 C 79.972656 105.320312 80.207031 105.417969 80.40625 105.613281 C 80.601562 105.8125 80.703125 106.050781 80.703125 106.328125 L 80.703125 112.640625 C 80.703125 112.921875 80.601562 113.160156 80.40625 113.355469 C 80.207031 113.554688 79.972656 113.652344 79.691406 113.652344 L 74.5625 113.652344 C 74.21875 113.652344 74.046875 113.789062 74.046875 114.070312 L 72.292969 126.273438 C 72.230469 126.894531 71.859375 127.207031 71.1875 127.207031 L 63.445312 127.113281 C 62.769531 127.113281 62.46875 126.75 62.53125 126.023438 L 64.285156 114.070312 C 64.285156 113.789062 64.175781 113.652344 63.960938 113.652344 L 55.128906 113.652344 C 54.789062 113.652344 54.617188 113.789062 54.617188 114.070312 L 52.84375 126.273438 C 52.789062 126.894531 52.429688 127.207031 51.757812 127.207031 L 44.015625 127.113281 C 43.339844 127.113281 43.035156 126.75 43.097656 126.023438 L 44.855469 114.070312 C 44.855469 113.789062 44.746094 113.652344 44.527344 113.652344 L 40.5625 113.652344 C 40.285156 113.652344 40.042969 113.554688 39.847656 113.355469 C 39.652344 113.160156 39.554688 112.921875 39.554688 112.640625 L 39.554688 106.328125 C 39.554688 106.050781 39.652344 105.8125 39.847656 105.613281 C 40.042969 105.417969 40.285156 105.320312 40.5625 105.320312 L 45.789062 105.320312 C 46.117188 105.320312 46.285156 105.179688 46.285156 104.898438 L 47.714844 94.808594 C 47.714844 94.53125 47.605469 94.390625 47.386719 94.390625 L 43.425781 94.390625 C 43.144531 94.390625 42.902344 94.292969 42.710938 94.09375 C 42.511719 93.902344 42.414062 93.660156 42.414062 93.378906 L 42.414062 86.992188 C 42.414062 86.710938 42.511719 86.472656 42.710938 86.277344 C 42.902344 86.082031 43.144531 85.980469 43.425781 85.980469 L 48.648438 85.980469 C 48.976562 85.980469 49.144531 85.839844 49.144531 85.558594 L 50.917969 73.355469 C 50.96875 72.734375 51.328125 72.425781 52.003906 72.425781 L 59.746094 72.519531 C 60.417969 72.519531 60.730469 72.882812 60.679688 73.605469 L 58.90625 85.558594 C 58.90625 85.839844 59.019531 85.980469 59.25 85.980469 L 68.078125 85.980469 C 68.410156 85.980469 68.578125 85.839844 68.578125 85.558594 L 70.347656 73.355469 C 70.410156 72.734375 70.773438 72.425781 71.4375 72.425781 L 79.179688 72.519531 C 79.851562 72.519531 80.160156 72.882812 80.113281 73.605469 L 78.339844 85.558594 C 78.339844 85.839844 78.453125 85.980469 78.679688 85.980469 L 82.550781 85.980469 C 82.832031 85.980469 83.070312 86.082031 83.265625 86.277344 C 83.460938 86.472656 83.5625 86.710938 83.5625 86.992188 Z M 65.21875 105.320312 C 65.550781 105.320312 65.714844 105.179688 65.714844 104.898438 L 67.148438 94.808594 C 67.148438 94.53125 67.039062 94.390625 66.820312 94.390625 L 57.992188 94.390625 C 57.648438 94.390625 57.476562 94.53125 57.476562 94.808594 L 56.046875 104.898438 C 56.046875 105.179688 56.160156 105.320312 56.390625 105.320312 Z M 65.21875 105.320312 " fill-opacity="1" fill-rule="nonzero"/><path fill="#1b0739" d="M 80.179688 94.160156 C 80.179688 94.441406 80.078125 94.679688 79.886719 94.875 C 79.6875 95.074219 79.449219 95.171875 79.171875 95.171875 L 74.039062 95.171875 C 73.699219 95.171875 73.527344 95.308594 73.527344 95.589844 L 72.097656 105.679688 C 72.097656 105.957031 72.210938 106.097656 72.4375 106.097656 L 76.308594 106.097656 C 76.589844 106.097656 76.828125 106.199219 77.023438 106.394531 C 77.21875 106.59375 77.320312 106.828125 77.320312 107.109375 L 77.320312 113.421875 C 77.320312 113.699219 77.21875 113.941406 77.023438 114.136719 C 76.828125 114.332031 76.589844 114.429688 76.308594 114.429688 L 71.179688 114.429688 C 70.839844 114.429688 70.667969 114.570312 70.667969 114.851562 L 68.910156 127.054688 C 68.847656 127.675781 68.480469 127.984375 67.808594 127.984375 L 60.066406 127.894531 C 59.390625 127.894531 59.085938 127.53125 59.148438 126.804688 L 60.90625 114.851562 C 60.90625 114.570312 60.796875 114.429688 60.578125 114.429688 L 51.75 114.429688 C 51.40625 114.429688 51.234375 114.570312 51.234375 114.851562 L 49.464844 127.054688 C 49.410156 127.675781 49.046875 127.984375 48.375 127.984375 L 40.632812 127.894531 C 39.957031 127.894531 39.652344 127.53125 39.714844 126.804688 L 41.472656 114.851562 C 41.472656 114.570312 41.363281 114.429688 41.148438 114.429688 L 37.183594 114.429688 C 36.902344 114.429688 36.660156 114.332031 36.46875 114.136719 C 36.269531 113.941406 36.171875 113.699219 36.171875 113.421875 L 36.171875 107.109375 C 36.171875 106.828125 36.269531 106.59375 36.46875 106.394531 C 36.660156 106.199219 36.902344 106.097656 37.183594 106.097656 L 42.40625 106.097656 C 42.734375 106.097656 42.902344 105.957031 42.902344 105.679688 L 44.332031 95.589844 C 44.332031 95.308594 44.222656 95.171875 44.007812 95.171875 L 40.042969 95.171875 C 39.761719 95.171875 39.523438 95.074219 39.328125 94.875 C 39.128906 94.679688 39.03125 94.441406 39.03125 94.160156 L 39.03125 87.769531 C 39.03125 87.492188 39.128906 87.253906 39.328125 87.054688 C 39.523438 86.859375 39.761719 86.761719 40.042969 86.761719 L 45.265625 86.761719 C 45.597656 86.761719 45.761719 86.621094 45.761719 86.339844 L 47.535156 74.136719 C 47.585938 73.515625 47.949219 73.203125 48.625 73.203125 L 56.367188 73.296875 C 57.039062 73.296875 57.347656 73.664062 57.296875 74.386719 L 55.527344 86.339844 C 55.527344 86.621094 55.636719 86.761719 55.867188 86.761719 L 64.699219 86.761719 C 65.027344 86.761719 65.195312 86.621094 65.195312 86.339844 L 66.96875 74.136719 C 67.03125 73.515625 67.390625 73.203125 68.054688 73.203125 L 75.796875 73.296875 C 76.46875 73.296875 76.78125 73.664062 76.730469 74.386719 L 74.957031 86.339844 C 74.957031 86.621094 75.070312 86.761719 75.300781 86.761719 L 79.171875 86.761719 C 79.449219 86.761719 79.6875 86.859375 79.886719 87.054688 C 80.078125 87.253906 80.179688 87.492188 80.179688 87.769531 Z M 61.835938 106.097656 C 62.167969 106.097656 62.335938 105.957031 62.335938 105.679688 L 63.765625 95.589844 C 63.765625 95.308594 63.65625 95.171875 63.4375 95.171875 L 54.609375 95.171875 C 54.265625 95.171875 54.097656 95.308594 54.097656 95.589844 L 52.664062 105.679688 C 52.664062 105.957031 52.777344 106.097656 53.007812 106.097656 Z M 61.835938 106.097656 " fill-opacity="1" fill-rule="nonzero"/><path fill="#f86d58" d="M 106.914062 126.589844 C 106.757812 126.746094 106.714844 126.910156 106.789062 127.074219 C 106.871094 127.226562 107.03125 127.304688 107.273438 127.304688 L 133.277344 127.304688 C 133.671875 127.304688 134.007812 127.445312 134.289062 127.726562 C 134.570312 127.996094 134.710938 128.332031 134.710938 128.734375 L 134.710938 137.753906 C 134.710938 138.15625 134.570312 138.5 134.289062 138.777344 C 134.007812 139.050781 133.671875 139.183594 133.277344 139.183594 L 91.835938 139.183594 C 91.429688 139.183594 91.089844 139.050781 90.808594 138.777344 C 90.539062 138.5 90.40625 138.15625 90.40625 137.753906 L 90.40625 128.253906 C 90.40625 127.539062 90.597656 126.945312 90.996094 126.464844 L 95.628906 120.171875 C 98.714844 116.058594 101.742188 111.867188 104.707031 107.59375 C 107.679688 103.316406 110.199219 99.472656 112.261719 96.058594 C 116.851562 88.464844 119.148438 82.171875 119.148438 77.171875 C 119.148438 74.011719 118.453125 71.519531 117.066406 69.695312 C 115.6875 67.871094 113.847656 66.957031 111.546875 66.957031 C 109.246094 66.957031 107.417969 67.851562 106.074219 69.632812 C 104.738281 71.417969 104.105469 73.777344 104.179688 76.707031 L 104.179688 81.339844 C 104.179688 81.734375 104.039062 82.070312 103.757812 82.347656 C 103.488281 82.628906 103.15625 82.769531 102.765625 82.769531 L 91.585938 82.769531 C 91.191406 82.769531 90.855469 82.628906 90.578125 82.347656 C 90.304688 82.070312 90.171875 81.734375 90.171875 81.339844 L 90.171875 76.222656 C 90.484375 69.894531 92.636719 64.789062 96.640625 60.910156 C 100.636719 57.027344 105.804688 55.082031 112.136719 55.082031 C 118.394531 55.082031 123.441406 57.125 127.277344 61.207031 C 131.121094 65.28125 133.046875 70.644531 133.046875 77.296875 C 133.046875 81.257812 132.371094 85.179688 131.023438 89.0625 C 129.675781 92.941406 127.535156 97.097656 124.605469 101.53125 C 122.621094 104.695312 120.269531 108.175781 117.53125 111.976562 C 114.804688 115.78125 113.007812 118.28125 112.136719 119.472656 C 109.761719 122.632812 108.023438 125.003906 106.914062 126.589844 Z M 106.914062 126.589844 " fill-opacity="1" fill-rule="nonzero"/><path fill="#00ffff" d="M 116.464844 124.386719 C 116.308594 124.542969 116.265625 124.703125 116.339844 124.867188 C 116.421875 125.023438 116.578125 125.101562 116.820312 125.101562 L 142.828125 125.101562 C 143.21875 125.101562 143.558594 125.242188 143.839844 125.519531 C 144.117188 125.792969 144.257812 126.128906 144.257812 126.53125 L 144.257812 135.546875 C 144.257812 135.953125 144.117188 136.292969 143.839844 136.574219 C 143.558594 136.84375 143.21875 136.976562 142.828125 136.976562 L 101.382812 136.976562 C 100.980469 136.976562 100.636719 136.84375 100.359375 136.574219 C 100.085938 136.292969 99.953125 135.953125 99.953125 135.546875 L 99.953125 126.050781 C 99.953125 125.335938 100.148438 124.738281 100.546875 124.261719 L 105.175781 117.964844 C 108.261719 113.855469 111.289062 109.660156 114.257812 105.390625 C 117.230469 101.109375 119.746094 97.265625 121.8125 93.855469 C 126.402344 86.261719 128.699219 79.964844 128.699219 74.96875 C 128.699219 71.808594 128 69.316406 126.613281 67.488281 C 125.234375 65.667969 123.398438 64.753906 121.097656 64.753906 C 118.796875 64.753906 116.96875 65.648438 115.625 67.429688 C 114.285156 69.210938 113.652344 71.570312 113.726562 74.5 L 113.726562 79.132812 C 113.726562 79.53125 113.585938 79.863281 113.308594 80.144531 C 113.035156 80.425781 112.707031 80.5625 112.3125 80.5625 L 101.136719 80.5625 C 100.738281 80.5625 100.40625 80.425781 100.125 80.144531 C 99.851562 79.863281 99.722656 79.53125 99.722656 79.132812 L 99.722656 74.019531 C 100.03125 67.6875 102.183594 62.585938 106.1875 58.707031 C 110.1875 54.820312 115.351562 52.878906 121.6875 52.878906 C 127.945312 52.878906 132.992188 54.921875 136.828125 59.003906 C 140.671875 63.074219 142.59375 68.4375 142.59375 75.089844 C 142.59375 79.050781 141.917969 82.972656 140.574219 86.859375 C 139.226562 90.738281 137.085938 94.894531 134.152344 99.328125 C 132.171875 102.492188 129.816406 105.972656 127.082031 109.773438 C 124.351562 113.578125 122.558594 116.078125 121.6875 117.265625 C 119.3125 120.429688 117.570312 122.800781 116.464844 124.386719 Z M 116.464844 124.386719 " fill-opacity="1" fill-rule="nonzero"/><path fill="#1b0739" d="M 111.6875 125.488281 C 111.535156 125.644531 111.492188 125.808594 111.5625 125.96875 C 111.644531 126.125 111.804688 126.203125 112.046875 126.203125 L 138.054688 126.203125 C 138.445312 126.203125 138.785156 126.34375 139.0625 126.621094 C 139.34375 126.894531 139.484375 127.230469 139.484375 127.632812 L 139.484375 136.648438 C 139.484375 137.054688 139.34375 137.394531 139.0625 137.675781 C 138.785156 137.949219 138.445312 138.078125 138.054688 138.078125 L 96.609375 138.078125 C 96.207031 138.078125 95.863281 137.949219 95.582031 137.675781 C 95.3125 137.394531 95.179688 137.054688 95.179688 136.648438 L 95.179688 127.152344 C 95.179688 126.4375 95.375 125.84375 95.769531 125.363281 L 100.402344 119.066406 C 103.488281 114.957031 106.515625 110.761719 109.480469 106.492188 C 112.453125 102.214844 114.972656 98.371094 117.035156 94.957031 C 121.625 87.363281 123.921875 81.066406 123.921875 76.070312 C 123.921875 72.910156 123.226562 70.417969 121.839844 68.59375 C 120.460938 66.769531 118.621094 65.855469 116.320312 65.855469 C 114.019531 65.855469 112.195312 66.75 110.847656 68.53125 C 109.511719 70.3125 108.878906 72.671875 108.953125 75.601562 L 108.953125 80.234375 C 108.953125 80.632812 108.8125 80.964844 108.53125 81.246094 C 108.261719 81.527344 107.929688 81.667969 107.539062 81.667969 L 96.359375 81.667969 C 95.964844 81.667969 95.628906 81.527344 95.351562 81.246094 C 95.078125 80.964844 94.945312 80.632812 94.945312 80.234375 L 94.945312 75.121094 C 95.257812 68.789062 97.410156 63.6875 101.414062 59.808594 C 105.414062 55.921875 110.578125 53.980469 116.910156 53.980469 C 123.167969 53.980469 128.21875 56.023438 132.054688 60.105469 C 135.898438 64.175781 137.820312 69.539062 137.820312 76.195312 C 137.820312 80.15625 137.144531 84.074219 135.800781 87.960938 C 134.449219 91.839844 132.308594 95.996094 129.378906 100.429688 C 127.398438 103.59375 125.042969 107.074219 122.304688 110.875 C 119.578125 114.679688 117.78125 117.179688 116.910156 118.367188 C 114.539062 121.53125 112.796875 123.902344 111.6875 125.488281 Z M 111.6875 125.488281 " fill-opacity="1" fill-rule="nonzero"/></svg>