<svg xmlns="http://www.w3.org/2000/svg" xmlns:xlink="http://www.w3.org/1999/xlink" width="260" zoomAndPan="magnify" viewBox="0 0 194.87999 195.000001" height="260" preserveAspectRatio="xMidYMid meet" version="1.0"><path fill="#f86d58" d="M 76.800781 94.941406 C 76.800781 95.21875 76.699219 95.460938 76.503906 95.65625 C 76.304688 95.855469 76.070312 95.949219 75.789062 95.949219 L 70.660156 95.949219 C 70.316406 95.949219 70.144531 96.089844 70.144531 96.371094 L 68.714844 106.460938 C 68.714844 106.738281 68.828125 106.878906 69.058594 106.878906 L 72.929688 106.878906 C 73.207031 106.878906 73.445312 106.980469 73.644531 107.175781 C 73.835938 107.371094 73.9375 107.609375 73.9375 107.890625 L 73.9375 114.203125 C 73.9375 114.480469 73.835938 114.722656 73.644531 114.917969 C 73.445312 115.113281 73.207031 115.210938 72.929688 115.210938 L 67.796875 115.210938 C 67.457031 115.210938 67.285156 115.351562 67.285156 115.632812 L 65.527344 127.835938 C 65.464844 128.457031 65.097656 128.765625 64.425781 128.765625 L 56.683594 128.675781 C 56.007812 128.675781 55.703125 128.3125 55.765625 127.585938 L 57.523438 115.632812 C 57.523438 115.351562 57.414062 115.210938 57.195312 115.210938 L 48.367188 115.210938 C 48.023438 115.210938 47.855469 115.351562 47.855469 115.632812 L 46.082031 127.835938 C 46.027344 128.457031 45.664062 128.765625 44.992188 128.765625 L 37.25 128.675781 C 36.574219 128.675781 36.273438 128.3125 36.335938 127.585938 L 38.089844 115.632812 C 38.089844 115.351562 37.984375 115.210938 37.765625 115.210938 L 33.800781 115.210938 C 33.519531 115.210938 33.28125 115.113281 33.085938 114.917969 C 32.886719 114.722656 32.789062 114.480469 32.789062 114.203125 L 32.789062 107.890625 C 32.789062 107.609375 32.886719 107.371094 33.085938 107.175781 C 33.28125 106.980469 33.519531 106.878906 33.800781 106.878906 L 39.023438 106.878906 C 39.355469 106.878906 39.523438 106.738281 39.523438 106.460938 L 40.953125 96.371094 C 40.953125 96.089844 40.84375 95.949219 40.625 95.949219 L 36.660156 95.949219 C 36.382812 95.949219 36.140625 95.855469 35.945312 95.65625 C 35.746094 95.460938 35.652344 95.21875 35.652344 94.941406 L 35.652344 88.550781 C 35.652344 88.273438 35.746094 88.035156 35.945312 87.835938 C 36.140625 87.640625 36.382812 87.542969 36.660156 87.542969 L 41.882812 87.542969 C 42.214844 87.542969 42.382812 87.402344 42.382812 87.121094 L 44.152344 74.917969 C 44.203125 74.296875 44.566406 73.984375 45.242188 73.984375 L 52.984375 74.078125 C 53.65625 74.078125 53.96875 74.445312 53.917969 75.167969 L 52.144531 87.121094 C 52.144531 87.402344 52.257812 87.542969 52.484375 87.542969 L 61.316406 87.542969 C 61.644531 87.542969 61.8125 87.402344 61.8125 87.121094 L 63.585938 74.917969 C 63.648438 74.296875 64.007812 73.984375 64.671875 73.984375 L 72.414062 74.078125 C 73.085938 74.078125 73.398438 74.445312 73.347656 75.167969 L 71.574219 87.121094 C 71.574219 87.402344 71.6875 87.542969 71.917969 87.542969 L 75.789062 87.542969 C 76.070312 87.542969 76.304688 87.640625 76.503906 87.835938 C 76.699219 88.035156 76.800781 88.273438 76.800781 88.550781 Z M 58.457031 106.878906 C 58.785156 106.878906 58.953125 106.738281 58.953125 106.460938 L 60.382812 96.371094 C 60.382812 96.089844 60.273438 95.949219 60.058594 95.949219 L 51.226562 95.949219 C 50.886719 95.949219 50.714844 96.089844 50.714844 96.371094 L 49.285156 106.460938 C 49.285156 106.738281 49.398438 106.878906 49.625 106.878906 Z M 58.457031 106.878906 " fill-opacity="1" fill-rule="nonzero"/><path fill="#00ffff" d="M 83.5625 93.378906 C 83.5625 93.660156 83.460938 93.902344 83.265625 94.09375 C 83.070312 94.292969 82.832031 94.390625 82.550781 94.390625 L 77.421875 94.390625 C 77.078125 94.390625 76.910156 94.53125 76.910156 94.808594 L 75.480469 104.898438 C 75.480469 105.179688 75.589844 105.320312 75.820312 105.320312 L 79.691406 105.320312 C 79.972656 105.320312 80.207031 105.417969 80.40625 105.613281 C 80.601562 105.8125 80.703125 106.050781 80.703125 106.328125 L 80.703125 112.640625 C 80.703125 112.921875 80.601562 113.160156 80.40625 113.355469 C 80.207031 113.554688 79.972656 113.652344 79.691406 113.652344 L 74.5625 113.652344 C 74.21875 113.652344 74.046875 113.789062 74.046875 114.070312 L 72.292969 126.273438 C 72.230469 126.894531 71.859375 127.207031 71.1875 127.207031 L 63.445312 127.113281 C 62.769531 127.113281 62.46875 126.75 62.53125 126.023438 L 64.285156 114.070312 C 64.285156 113.789062 64.175781 113.652344 63.960938 113.652344 L 55.128906 113.652344 C 54.789062 113.652344 54.617188 113.789062 54.617188 114.070312 L 52.84375 126.273438 C 52.789062 126.894531 52.429688 127.207031 51.757812 127.207031 L 44.015625 127.113281 C 43.339844 127.113281 43.035156 126.75 43.097656 126.023438 L 44.855469 114.070312 C 44.855469 113.789062 44.746094 113.652344 44.527344 113.652344 L 40.5625 113.652344 C 40.285156 113.652344 40.042969 113.554688 39.847656 113.355469 C 39.652344 113.160156 39.554688 112.921875 39.554688 112.640625 L 39.554688 106.328125 C 39.554688 106.050781 39.652344 105.8125 39.847656 105.613281 C 40.042969 105.417969 40.285156 105.320312 40.5625 105.320312 L 45.789062 105.320312 C 46.117188 105.320312 46.285156 105.179688 46.285156 104.898438 L 47.714844 94.808594 C 47.714844 94.53125 47.605469 94.390625 47.386719 94.390625 L 43.425781 94.390625 C 43.144531 94.390625 42.902344 94.292969 42.710938 94.09375 C 42.511719 93.902344 42.414062 93.660156 42.414062 93.378906 L 42.414062 86.992188 C 42.414062 86.710938 42.511719 86.472656 42.710938 86.277344 C 42.902344 86.082031 43.144531 85.980469 43.425781 85.980469 L 48.648438 85.980469 C 48.976562 85.980469 49.144531 85.839844 49.144531 85.558594 L 50.917969 73.355469 C 50.96875 72.734375 51.328125 72.425781 52.003906 72.425781 L 59.746094 72.519531 C 60.417969 72.519531 60.730469 72.882812 60.679688 73.605469 L 58.90625 85.558594 C 58.90625 85.839844 59.019531 85.980469 59.25 85.980469 L 68.078125 85.980469 C 68.410156 85.980469 68.578125 85.839844 68.578125 85.558594 L 70.347656 73.355469 C 70.410156 72.734375 70.773438 72.425781 71.4375 72.425781 L 79.179688 72.519531 C 79.851562 72.519531 80.160156 72.882812 80.113281 73.605469 L 78.339844 85.558594 C 78.339844 85.839844 78.453125 85.980469 78.679688 85.980469 L 82.550781 85.980469 C 82.832031 85.980469 83.070312 86.082031 83.265625 86.277344 C 83.460938 86.472656 83.5625 86.710938 83.5625 86.992188 Z M 65.21875 105.320312 C 65.550781 105.320312 65.714844 105.179688 65.714844 104.898438 L 67.148438 94.808594 C 67.148438 94.53125 67.039062 94.390625 66.820312 94.390625 L 57.992188 94.390625 C 57.648438 94.390625 57.476562 94.53125 57.476562 94.808594 L 56.046875 104.898438 C 56.046875 105.179688 56.160156 105.320312 56.390625 105.320312 Z M 65.21875 105.320312 " fill-opacity="1" fill-rule="nonzero"/><path fill="#1b0739" d="M 80.179688 94.160156 C 80.179688 94.441406 80.078125 94.679688 79.886719 94.875 C 79.6875 95.074219 79.449219 95.171875 79.171875 95.171875 L 74.039062 95.171875 C 73.699219 95.171875 73.527344 95.308594 73.527344 95.589844 L 72.097656 105.679688 C 72.097656 105.957031 72.210938 106.097656 72.4375 106.097656 L 76.308594 106.097656 C 76.589844 106.097656 76.828125 106.199219 77.023438 106.394531 C 77.21875 106.59375 77.320312 106.828125 77.320312 107.109375 L 77.320312 113.421875 C 77.320312 113.699219 77.21875 113.941406 77.023438 114.136719 C 76.828125 114.332031 76.589844 114.429688 76.308594 114.429688 L 71.179688 114.429688 C 70.839844 114.429688 70.667969 114.570312 70.667969 114.851562 L 68.910156 127.054688 C 68.847656 127.675781 68.480469 127.984375 67.808594 127.984375 L 60.066406 127.894531 C 59.390625 127.894531 59.085938 127.53125 59.148438 126.804688 L 60.90625 114.851562 C 60.90625 114.570312 60.796875 114.429688 60.578125 114.429688 L 51.75 114.429688 C 51.40625 114.429688 51.234375 114.570312 51.234375 114.851562 L 49.464844 127.054688 C 49.410156 127.675781 49.046875 127.984375 48.375 127.984375 L 40.632812 127.894531 C 39.957031 127.894531 39.652344 127.53125 39.714844 126.804688 L 41.472656 114.851562 C 41.472656 114.570312 41.363281 114.429688 41.148438 114.429688 L 37.183594 114.429688 C 36.902344 114.429688 36.660156 114.332031 36.46875 114.136719 C 36.269531 113.941406 36.171875 113.699219 36.171875 113.421875 L 36.171875 107.109375 C 36.171875 106.828125 36.269531 106.59375 36.46875 106.394531 C 36.660156 106.199219 36.902344 106.097656 37.183594 106.097656 L 42.40625 106.097656 C 42.734375 106.097656 42.902344 105.957031 42.902344 105.679688 L 44.332031 95.589844 C 44.332031 95.308594 44.222656 95.171875 44.007812 95.171875 L 40.042969 95.171875 C 39.761719 95.171875 39.523438 95.074219 39.328125 94.875 C 39.128906 94.679688 39.03125 94.441406 39.03125 94.160156 L 39.03125 87.769531 C 39.03125 87.492188 39.128906 87.253906 39.328125 87.054688 C 39.523438 86.859375 39.761719 86.761719 40.042969 86.761719 L 45.265625 86.761719 C 45.597656 86.761719 45.761719 86.621094 45.761719 86.339844 L 47.535156 74.136719 C 47.585938 73.515625 47.949219 73.203125 48.625 73.203125 L 56.367188 73.296875 C 57.039062 73.296875 57.347656 73.664062 57.296875 74.386719 L 55.527344 86.339844 C 55.527344 86.621094 55.636719 86.761719 55.867188 86.761719 L 64.699219 86.761719 C 65.027344 86.761719 65.195312 86.621094 65.195312 86.339844 L 66.96875 74.136719 C 67.03125 73.515625 67.390625 73.203125 68.054688 73.203125 L 75.796875 73.296875 C 76.46875 73.296875 76.78125 73.664062 76.730469 74.386719 L 74.957031 86.339844 C 74.957031 86.621094 75.070312 86.761719 75.300781 86.761719 L 79.171875 86.761719 C 79.449219 86.761719 79.6875 86.859375 79.886719 87.054688 C 80.078125 87.253906 80.179688 87.492188 80.179688 87.769531 Z M 61.835938 106.097656 C 62.167969 106.097656 62.335938 105.957031 62.335938 105.679688 L 63.765625 95.589844 C 63.765625 95.308594 63.65625 95.171875 63.4375 95.171875 L 54.609375 95.171875 C 54.265625 95.171875 54.097656 95.308594 54.097656 95.589844 L 52.664062 105.679688 C 52.664062 105.957031 52.777344 106.097656 53.007812 106.097656 Z M 61.835938 106.097656 " fill-opacity="1" fill-rule="nonzero"/><path fill="#f86d58" d="M 131.558594 102.714844 C 132.273438 105.882812 132.628906 109.410156 132.628906 113.285156 C 132.628906 117.171875 132.355469 120.496094 131.808594 123.265625 C 130.851562 128.652344 128.691406 132.816406 125.324219 135.746094 C 121.953125 138.667969 117.382812 140.128906 111.613281 140.128906 C 105.589844 140.128906 100.675781 138.53125 96.875 135.328125 C 93.070312 132.117188 90.9375 127.738281 90.472656 122.191406 C 90.304688 120.449219 90.144531 117.917969 89.988281 114.589844 C 89.988281 113.648438 90.464844 113.175781 91.421875 113.175781 L 102.347656 113.175781 C 103.289062 113.175781 103.761719 113.648438 103.761719 114.589844 C 103.925781 117.285156 104.089844 119.308594 104.246094 120.652344 C 104.636719 123.109375 105.464844 124.988281 106.730469 126.296875 C 108.007812 127.601562 109.632812 128.253906 111.613281 128.253906 C 113.511719 128.253906 115.085938 127.644531 116.355469 126.417969 C 117.628906 125.1875 118.460938 123.425781 118.859375 121.132812 C 119.25 118.75 119.449219 115.664062 119.449219 111.871094 C 119.449219 107.828125 119.167969 104.460938 118.609375 101.765625 C 118.140625 99.703125 117.3125 98.121094 116.121094 97.007812 C 114.929688 95.898438 113.425781 95.34375 111.613281 95.34375 C 110.421875 95.34375 109.347656 95.703125 108.394531 96.417969 C 107.917969 96.738281 107.5625 96.898438 107.339844 96.898438 C 107.171875 96.898438 106.847656 96.738281 106.375 96.417969 L 100.792969 90.710938 C 100.484375 90.402344 100.328125 90.050781 100.328125 89.65625 C 100.328125 89.335938 100.445312 89.019531 100.683594 88.707031 L 115.53125 68.511719 C 115.6875 68.351562 115.703125 68.1875 115.578125 68.03125 C 115.460938 67.875 115.285156 67.796875 115.050781 67.796875 L 92.476562 67.796875 C 92.082031 67.796875 91.746094 67.660156 91.464844 67.378906 C 91.195312 67.097656 91.0625 66.765625 91.0625 66.367188 L 91.0625 57.460938 C 91.0625 57.066406 91.195312 56.730469 91.464844 56.449219 C 91.746094 56.171875 92.082031 56.03125 92.476562 56.03125 L 130.96875 56.03125 C 131.359375 56.03125 131.699219 56.171875 131.976562 56.449219 C 132.257812 56.730469 132.398438 57.066406 132.398438 57.460938 L 132.398438 66.851562 C 132.398438 67.402344 132.199219 67.992188 131.808594 68.621094 L 118.265625 87.152344 C 117.945312 87.628906 118.023438 87.910156 118.5 87.992188 C 121.742188 88.386719 124.53125 89.929688 126.863281 92.625 C 129.203125 95.320312 130.769531 98.683594 131.558594 102.714844 Z M 131.558594 102.714844 " fill-opacity="1" fill-rule="nonzero"/><path fill="#00ffff" d="M 141.105469 100.507812 C 141.820312 103.679688 142.179688 107.203125 142.179688 111.078125 C 142.179688 114.964844 141.902344 118.292969 141.355469 121.058594 C 140.398438 126.449219 138.238281 130.613281 134.871094 133.542969 C 131.503906 136.464844 126.933594 137.925781 121.160156 137.925781 C 115.136719 137.925781 110.226562 136.324219 106.425781 133.121094 C 102.621094 129.914062 100.484375 125.53125 100.019531 119.988281 C 99.851562 118.246094 99.695312 115.710938 99.539062 112.386719 C 99.539062 111.445312 100.011719 110.96875 100.96875 110.96875 L 111.894531 110.96875 C 112.835938 110.96875 113.3125 111.445312 113.3125 112.386719 C 113.472656 115.082031 113.636719 117.101562 113.792969 118.449219 C 114.183594 120.902344 115.011719 122.785156 116.28125 124.089844 C 117.554688 125.394531 119.179688 126.050781 121.160156 126.050781 C 123.058594 126.050781 124.636719 125.4375 125.902344 124.214844 C 127.175781 122.984375 128.007812 121.222656 128.40625 118.929688 C 128.796875 116.546875 128.996094 113.457031 128.996094 109.664062 C 128.996094 105.621094 128.714844 102.257812 128.15625 99.558594 C 127.691406 97.5 126.859375 95.914062 125.667969 94.804688 C 124.476562 93.695312 122.972656 93.140625 121.160156 93.140625 C 119.96875 93.140625 118.894531 93.496094 117.945312 94.210938 C 117.464844 94.535156 117.113281 94.695312 116.886719 94.695312 C 116.71875 94.695312 116.398438 94.535156 115.921875 94.210938 L 110.34375 88.507812 C 110.03125 88.195312 109.875 87.847656 109.875 87.449219 C 109.875 87.132812 109.992188 86.8125 110.234375 86.503906 L 125.078125 66.308594 C 125.234375 66.144531 125.25 65.980469 125.125 65.828125 C 125.007812 65.671875 124.835938 65.59375 124.597656 65.59375 L 102.023438 65.59375 C 101.628906 65.59375 101.292969 65.453125 101.015625 65.175781 C 100.742188 64.894531 100.609375 64.558594 100.609375 64.164062 L 100.609375 55.257812 C 100.609375 54.863281 100.742188 54.527344 101.015625 54.246094 C 101.292969 53.964844 101.628906 53.824219 102.023438 53.824219 L 140.515625 53.824219 C 140.90625 53.824219 141.246094 53.964844 141.527344 54.246094 C 141.804688 54.527344 141.945312 54.863281 141.945312 55.257812 L 141.945312 64.644531 C 141.945312 65.195312 141.746094 65.789062 141.355469 66.417969 L 127.816406 84.949219 C 127.492188 85.425781 127.570312 85.707031 128.046875 85.785156 C 131.289062 86.183594 134.078125 87.726562 136.410156 90.417969 C 138.75 93.117188 140.316406 96.476562 141.105469 100.507812 Z M 141.105469 100.507812 " fill-opacity="1" fill-rule="nonzero"/><path fill="#1b0739" d="M 136.332031 101.609375 C 137.046875 104.78125 137.40625 108.308594 137.40625 112.179688 C 137.40625 116.066406 137.128906 119.394531 136.582031 122.160156 C 135.625 127.550781 133.464844 131.714844 130.097656 134.644531 C 126.730469 137.566406 122.160156 139.027344 116.386719 139.027344 C 110.363281 139.027344 105.453125 137.425781 101.652344 134.226562 C 97.847656 131.015625 95.710938 126.632812 95.246094 121.089844 C 95.078125 119.347656 94.917969 116.8125 94.765625 113.488281 C 94.765625 112.546875 95.238281 112.074219 96.195312 112.074219 L 107.121094 112.074219 C 108.0625 112.074219 108.539062 112.546875 108.539062 113.488281 C 108.699219 116.183594 108.863281 118.207031 109.019531 119.550781 C 109.410156 122.007812 110.238281 123.886719 111.507812 125.191406 C 112.78125 126.5 114.40625 127.152344 116.386719 127.152344 C 118.285156 127.152344 119.863281 126.542969 121.128906 125.316406 C 122.402344 124.085938 123.234375 122.324219 123.632812 120.03125 C 124.023438 117.648438 124.222656 114.558594 124.222656 110.765625 C 124.222656 106.726562 123.941406 103.359375 123.382812 100.664062 C 122.917969 98.601562 122.085938 97.015625 120.894531 95.90625 C 119.703125 94.796875 118.199219 94.242188 116.386719 94.242188 C 115.195312 94.242188 114.121094 94.601562 113.171875 95.316406 C 112.691406 95.636719 112.339844 95.796875 112.113281 95.796875 C 111.945312 95.796875 111.625 95.636719 111.148438 95.316406 L 105.570312 89.609375 C 105.257812 89.300781 105.101562 88.949219 105.101562 88.550781 C 105.101562 88.234375 105.21875 87.914062 105.460938 87.605469 L 120.304688 67.410156 C 120.460938 67.246094 120.476562 67.085938 120.351562 66.929688 C 120.234375 66.773438 120.058594 66.695312 119.824219 66.695312 L 97.25 66.695312 C 96.855469 66.695312 96.519531 66.554688 96.242188 66.277344 C 95.96875 65.996094 95.835938 65.664062 95.835938 65.265625 L 95.835938 56.359375 C 95.835938 55.964844 95.96875 55.628906 96.242188 55.347656 C 96.519531 55.066406 96.855469 54.929688 97.25 54.929688 L 135.742188 54.929688 C 136.132812 54.929688 136.472656 55.066406 136.753906 55.347656 C 137.03125 55.628906 137.171875 55.964844 137.171875 56.359375 L 137.171875 65.746094 C 137.171875 66.300781 136.972656 66.890625 136.582031 67.519531 L 123.042969 86.050781 C 122.71875 86.527344 122.796875 86.808594 123.273438 86.890625 C 126.515625 87.285156 129.304688 88.828125 131.636719 91.523438 C 133.976562 94.21875 135.542969 97.582031 136.332031 101.609375 Z M 136.332031 101.609375 " fill-opacity="1" fill-rule="nonzero"/></svg>