<svg xmlns="http://www.w3.org/2000/svg" xmlns:xlink="http://www.w3.org/1999/xlink" width="50" zoomAndPan="magnify" viewBox="0 0 37.5 37.499999" height="50" preserveAspectRatio="xMidYMid meet" version="1.0"><defs><clipPath id="ffbc7a2406"><path d="M 3.75 3 L 25 3 L 25 13 L 3.75 13 Z M 3.75 3 " clip-rule="nonzero"/></clipPath><clipPath id="2741ac3f8a"><path d="M 26 2 L 33.75 2 L 33.75 10 L 26 10 Z M 26 2 " clip-rule="nonzero"/></clipPath><clipPath id="cb057ab710"><path d="M 8 1.605469 L 33.75 1.605469 L 33.75 11 L 8 11 Z M 8 1.605469 " clip-rule="nonzero"/></clipPath><clipPath id="53ed60afa7"><path d="M 8 13 L 33.75 13 L 33.75 36.105469 L 8 36.105469 Z M 8 13 " clip-rule="nonzero"/></clipPath><clipPath id="b649ee3a47"><path d="M 32 11 L 33.75 11 L 33.75 13 L 32 13 Z M 32 11 " clip-rule="nonzero"/></clipPath></defs><g clip-path="url(#ffbc7a2406)"><path fill="#1b0739" d="M 23.570312 12.925781 L 4.289062 12.925781 C 4.140625 12.925781 4.015625 12.875 3.910156 12.769531 C 3.804688 12.664062 3.753906 12.539062 3.753906 12.386719 L 3.753906 3.761719 C 3.753906 3.613281 3.804688 3.488281 3.910156 3.382812 C 4.015625 3.277344 4.140625 3.222656 4.289062 3.222656 L 23.570312 3.222656 C 23.71875 3.222656 23.84375 3.277344 23.949219 3.382812 C 24.054688 3.488281 24.105469 3.613281 24.105469 3.761719 L 24.105469 12.386719 C 24.105469 12.539062 24.054688 12.664062 23.949219 12.769531 C 23.84375 12.875 23.71875 12.925781 23.570312 12.925781 Z M 4.824219 11.847656 L 23.035156 11.847656 L 23.035156 4.300781 L 4.824219 4.300781 Z M 4.824219 11.847656 " fill-opacity="1" fill-rule="nonzero"/></g><g clip-path="url(#2741ac3f8a)"><path fill="#1b0739" d="M 33.210938 9.152344 L 26.785156 9.152344 C 26.636719 9.152344 26.507812 9.101562 26.40625 8.996094 C 26.300781 8.890625 26.25 8.765625 26.25 8.613281 L 26.25 2.144531 L 27.320312 2.144531 L 27.320312 8.074219 L 33.210938 8.074219 Z M 33.210938 9.152344 " fill-opacity="1" fill-rule="nonzero"/></g><g clip-path="url(#cb057ab710)"><path fill="#1b0739" d="M 33.746094 10.230469 L 32.675781 10.230469 L 32.675781 8.839844 L 26.5625 2.683594 L 9.109375 2.683594 L 9.109375 3.761719 L 8.039062 3.761719 L 8.039062 2.144531 C 8.039062 1.996094 8.089844 1.871094 8.195312 1.765625 C 8.300781 1.660156 8.425781 1.605469 8.574219 1.605469 L 26.785156 1.605469 C 26.929688 1.605469 27.058594 1.660156 27.164062 1.765625 L 33.589844 8.234375 C 33.695312 8.339844 33.746094 8.464844 33.746094 8.613281 Z M 33.746094 10.230469 " fill-opacity="1" fill-rule="nonzero"/></g><path fill="#1b0739" d="M 8.039062 14.003906 L 9.109375 14.003906 L 9.109375 15.082031 L 8.039062 15.082031 Z M 8.039062 14.003906 " fill-opacity="1" fill-rule="nonzero"/><path fill="#1b0739" d="M 8.039062 16.160156 L 9.109375 16.160156 L 9.109375 31.792969 L 8.039062 31.792969 Z M 8.039062 16.160156 " fill-opacity="1" fill-rule="nonzero"/><g clip-path="url(#53ed60afa7)"><path fill="#1b0739" d="M 33.210938 36.105469 L 8.574219 36.105469 C 8.425781 36.105469 8.300781 36.054688 8.195312 35.949219 C 8.089844 35.84375 8.039062 35.71875 8.039062 35.566406 L 8.039062 32.871094 L 9.109375 32.871094 L 9.109375 35.027344 L 32.675781 35.027344 L 32.675781 13.464844 L 33.746094 13.464844 L 33.746094 35.566406 C 33.746094 35.71875 33.695312 35.84375 33.589844 35.949219 C 33.484375 36.054688 33.359375 36.105469 33.210938 36.105469 Z M 33.210938 36.105469 " fill-opacity="1" fill-rule="nonzero"/></g><g clip-path="url(#b649ee3a47)"><path fill="#1b0739" d="M 32.675781 11.308594 L 33.746094 11.308594 L 33.746094 12.386719 L 32.675781 12.386719 Z M 32.675781 11.308594 " fill-opacity="1" fill-rule="nonzero"/></g><path fill="#1b0739" d="M 21.964844 10.769531 L 19.820312 10.769531 C 19.671875 10.769531 19.546875 10.71875 19.441406 10.613281 C 19.335938 10.507812 19.285156 10.382812 19.285156 10.230469 L 19.285156 5.378906 L 20.355469 5.378906 L 20.355469 9.691406 L 21.964844 9.691406 Z M 21.964844 10.769531 " fill-opacity="1" fill-rule="nonzero"/><path fill="#1b0739" d="M 5.894531 5.378906 L 6.96875 5.378906 L 6.96875 10.769531 L 5.894531 10.769531 Z M 5.894531 5.378906 " fill-opacity="1" fill-rule="nonzero"/><path fill="#1b0739" d="M 8.574219 5.378906 L 9.644531 5.378906 L 9.644531 10.769531 L 8.574219 10.769531 Z M 8.574219 5.378906 " fill-opacity="1" fill-rule="nonzero"/><path fill="#1b0739" d="M 6.429688 7.535156 L 9.109375 7.535156 L 9.109375 8.613281 L 6.429688 8.613281 Z M 6.429688 7.535156 " fill-opacity="1" fill-rule="nonzero"/><path fill="#1b0739" d="M 10.179688 5.378906 L 13.394531 5.378906 L 13.394531 6.457031 L 10.179688 6.457031 Z M 10.179688 5.378906 " fill-opacity="1" fill-rule="nonzero"/><path fill="#1b0739" d="M 11.25 5.917969 L 12.324219 5.917969 L 12.324219 10.769531 L 11.25 10.769531 Z M 11.25 5.917969 " fill-opacity="1" fill-rule="nonzero"/><path fill="#1b0739" d="M 18.214844 10.769531 L 17.144531 10.769531 L 17.144531 8.546875 L 16.5625 9.90625 C 16.472656 10.125 16.308594 10.230469 16.070312 10.230469 C 15.835938 10.230469 15.671875 10.125 15.578125 9.90625 L 15 8.546875 L 15 10.769531 L 13.929688 10.769531 L 13.929688 5.917969 C 13.929688 5.792969 13.96875 5.679688 14.050781 5.578125 C 14.128906 5.480469 14.234375 5.417969 14.359375 5.390625 C 14.480469 5.367188 14.601562 5.382812 14.714844 5.441406 C 14.824219 5.5 14.90625 5.589844 14.957031 5.707031 L 16.070312 8.324219 L 17.1875 5.707031 C 17.238281 5.589844 17.316406 5.5 17.429688 5.441406 C 17.542969 5.382812 17.660156 5.367188 17.785156 5.390625 C 17.910156 5.417969 18.011719 5.480469 18.09375 5.578125 C 18.175781 5.679688 18.214844 5.792969 18.214844 5.917969 Z M 18.214844 10.769531 " fill-opacity="1" fill-rule="nonzero"/><path fill="#1b0739" d="M 17.144531 29.097656 L 15 29.097656 C 14.839844 29.097656 14.707031 29.039062 14.601562 28.917969 L 10.316406 24.066406 C 10.226562 23.964844 10.179688 23.84375 10.179688 23.707031 C 10.179688 23.570312 10.226562 23.453125 10.316406 23.351562 L 14.601562 18.5 C 14.707031 18.378906 14.839844 18.316406 15 18.316406 L 17.144531 18.316406 C 17.375 18.316406 17.539062 18.425781 17.632812 18.636719 C 17.726562 18.847656 17.695312 19.042969 17.542969 19.214844 L 13.574219 23.707031 L 17.542969 28.203125 C 17.695312 28.375 17.726562 28.570312 17.632812 28.78125 C 17.535156 28.992188 17.375 29.097656 17.144531 29.097656 Z M 15.242188 28.019531 L 15.949219 28.019531 L 12.457031 24.066406 C 12.367188 23.964844 12.324219 23.84375 12.324219 23.707031 C 12.324219 23.570312 12.367188 23.453125 12.457031 23.351562 L 15.949219 19.394531 L 15.242188 19.394531 L 11.433594 23.707031 Z M 15.242188 28.019531 " fill-opacity="1" fill-rule="nonzero"/><path fill="#1b0739" d="M 26.785156 29.097656 L 24.640625 29.097656 C 24.410156 29.097656 24.246094 28.992188 24.152344 28.78125 C 24.058594 28.570312 24.089844 28.375 24.242188 28.203125 L 28.210938 23.707031 L 24.242188 19.214844 C 24.085938 19.042969 24.058594 18.847656 24.152344 18.636719 C 24.246094 18.425781 24.410156 18.316406 24.640625 18.316406 L 26.785156 18.316406 C 26.945312 18.316406 27.078125 18.378906 27.183594 18.5 L 31.46875 23.351562 C 31.558594 23.453125 31.605469 23.570312 31.605469 23.707031 C 31.605469 23.84375 31.558594 23.964844 31.46875 24.066406 L 27.183594 28.917969 C 27.078125 29.039062 26.945312 29.097656 26.785156 29.097656 Z M 25.835938 28.019531 L 26.542969 28.019531 L 30.351562 23.707031 L 26.542969 19.394531 L 25.835938 19.394531 L 29.324219 23.351562 C 29.417969 23.453125 29.460938 23.570312 29.460938 23.707031 C 29.460938 23.84375 29.417969 23.964844 29.324219 24.066406 Z M 25.835938 28.019531 " fill-opacity="1" fill-rule="nonzero"/><path fill="#1b0739" d="M 20.355469 29.097656 L 18.75 29.097656 C 18.667969 29.097656 18.585938 29.082031 18.511719 29.042969 C 18.4375 29.003906 18.375 28.953125 18.324219 28.886719 C 18.273438 28.820312 18.238281 28.746094 18.222656 28.660156 C 18.207031 28.578125 18.210938 28.496094 18.234375 28.414062 L 20.910156 18.710938 C 20.984375 18.449219 21.15625 18.316406 21.429688 18.316406 L 23.035156 18.316406 C 23.117188 18.316406 23.199219 18.335938 23.273438 18.375 C 23.347656 18.410156 23.410156 18.464844 23.460938 18.53125 C 23.511719 18.597656 23.546875 18.671875 23.5625 18.753906 C 23.578125 18.839844 23.574219 18.921875 23.550781 19 L 20.875 28.703125 C 20.800781 28.96875 20.628906 29.097656 20.355469 29.097656 Z M 19.453125 28.019531 L 19.949219 28.019531 L 22.332031 19.394531 L 21.835938 19.394531 Z M 19.453125 28.019531 " fill-opacity="1" fill-rule="nonzero"/></svg>