<svg xmlns="http://www.w3.org/2000/svg" xmlns:xlink="http://www.w3.org/1999/xlink" width="50" zoomAndPan="magnify" viewBox="0 0 37.5 37.499999" height="50" preserveAspectRatio="xMidYMid meet" version="1.0"><defs><clipPath id="98b56bd374"><path d="M 3.75 3 L 25 3 L 25 13 L 3.75 13 Z M 3.75 3 " clip-rule="nonzero"/></clipPath><clipPath id="df120f7bd9"><path d="M 26 2 L 33.75 2 L 33.75 10 L 26 10 Z M 26 2 " clip-rule="nonzero"/></clipPath><clipPath id="33a6070cb3"><path d="M 8 1.605469 L 33.75 1.605469 L 33.75 11 L 8 11 Z M 8 1.605469 " clip-rule="nonzero"/></clipPath><clipPath id="0131792a65"><path d="M 8 13 L 33.75 13 L 33.75 36.105469 L 8 36.105469 Z M 8 13 " clip-rule="nonzero"/></clipPath><clipPath id="ff50c36544"><path d="M 32 11 L 33.75 11 L 33.75 13 L 32 13 Z M 32 11 " clip-rule="nonzero"/></clipPath></defs><g clip-path="url(#98b56bd374)"><path fill="#1b0739" d="M 23.570312 12.925781 L 4.289062 12.925781 C 4.140625 12.925781 4.015625 12.875 3.910156 12.769531 C 3.804688 12.664062 3.753906 12.539062 3.753906 12.386719 L 3.753906 3.761719 C 3.753906 3.613281 3.804688 3.488281 3.910156 3.382812 C 4.015625 3.277344 4.140625 3.222656 4.289062 3.222656 L 23.570312 3.222656 C 23.71875 3.222656 23.84375 3.277344 23.949219 3.382812 C 24.054688 3.488281 24.105469 3.613281 24.105469 3.761719 L 24.105469 12.386719 C 24.105469 12.539062 24.054688 12.664062 23.949219 12.769531 C 23.84375 12.875 23.71875 12.925781 23.570312 12.925781 Z M 4.824219 11.847656 L 23.035156 11.847656 L 23.035156 4.300781 L 4.824219 4.300781 Z M 4.824219 11.847656 " fill-opacity="1" fill-rule="nonzero"/></g><g clip-path="url(#df120f7bd9)"><path fill="#1b0739" d="M 33.210938 9.152344 L 26.785156 9.152344 C 26.636719 9.152344 26.507812 9.101562 26.40625 8.996094 C 26.300781 8.890625 26.25 8.765625 26.25 8.613281 L 26.25 2.144531 L 27.320312 2.144531 L 27.320312 8.074219 L 33.210938 8.074219 Z M 33.210938 9.152344 " fill-opacity="1" fill-rule="nonzero"/></g><g clip-path="url(#33a6070cb3)"><path fill="#1b0739" d="M 33.746094 10.230469 L 32.675781 10.230469 L 32.675781 8.839844 L 26.5625 2.683594 L 9.109375 2.683594 L 9.109375 3.761719 L 8.039062 3.761719 L 8.039062 2.144531 C 8.039062 1.996094 8.089844 1.871094 8.195312 1.765625 C 8.300781 1.660156 8.425781 1.605469 8.574219 1.605469 L 26.785156 1.605469 C 26.929688 1.605469 27.058594 1.660156 27.164062 1.765625 L 33.589844 8.234375 C 33.695312 8.339844 33.746094 8.464844 33.746094 8.613281 Z M 33.746094 10.230469 " fill-opacity="1" fill-rule="nonzero"/></g><path fill="#1b0739" d="M 8.039062 14.003906 L 9.109375 14.003906 L 9.109375 15.082031 L 8.039062 15.082031 Z M 8.039062 14.003906 " fill-opacity="1" fill-rule="nonzero"/><path fill="#1b0739" d="M 8.039062 16.160156 L 9.109375 16.160156 L 9.109375 31.792969 L 8.039062 31.792969 Z M 8.039062 16.160156 " fill-opacity="1" fill-rule="nonzero"/><g clip-path="url(#0131792a65)"><path fill="#1b0739" d="M 33.210938 36.105469 L 8.574219 36.105469 C 8.425781 36.105469 8.300781 36.054688 8.195312 35.949219 C 8.089844 35.84375 8.039062 35.71875 8.039062 35.566406 L 8.039062 32.871094 L 9.109375 32.871094 L 9.109375 35.027344 L 32.675781 35.027344 L 32.675781 13.464844 L 33.746094 13.464844 L 33.746094 35.566406 C 33.746094 35.71875 33.695312 35.84375 33.589844 35.949219 C 33.484375 36.054688 33.359375 36.105469 33.210938 36.105469 Z M 33.210938 36.105469 " fill-opacity="1" fill-rule="nonzero"/></g><g clip-path="url(#ff50c36544)"><path fill="#1b0739" d="M 32.675781 11.308594 L 33.746094 11.308594 L 33.746094 12.386719 L 32.675781 12.386719 Z M 32.675781 11.308594 " fill-opacity="1" fill-rule="nonzero"/></g><path fill="#1b0739" d="M 17.144531 29.636719 L 16.609375 29.636719 C 16.253906 29.636719 15.910156 29.570312 15.582031 29.433594 C 15.253906 29.296875 14.964844 29.101562 14.714844 28.847656 C 14.464844 28.59375 14.269531 28.304688 14.132812 27.972656 C 14 27.644531 13.929688 27.300781 13.929688 26.941406 L 13.929688 25.324219 C 13.90625 25.253906 13.792969 25.191406 13.710938 25.140625 C 13.453125 25.003906 13.222656 24.832031 13.015625 24.628906 C 12.910156 24.523438 12.855469 24.398438 12.855469 24.246094 C 12.855469 24.097656 12.910156 23.972656 13.015625 23.867188 C 13.222656 23.664062 13.453125 23.492188 13.710938 23.355469 C 13.789062 23.3125 13.859375 23.265625 13.929688 23.210938 L 13.929688 21.550781 C 13.929688 21.195312 14 20.851562 14.132812 20.523438 C 14.269531 20.191406 14.464844 19.898438 14.714844 19.648438 C 14.964844 19.394531 15.253906 19.199219 15.582031 19.0625 C 15.910156 18.925781 16.253906 18.859375 16.609375 18.855469 L 17.144531 18.855469 L 17.144531 19.933594 L 16.609375 19.933594 C 16.394531 19.933594 16.191406 19.976562 15.992188 20.058594 C 15.796875 20.140625 15.621094 20.257812 15.472656 20.410156 C 15.320312 20.5625 15.203125 20.734375 15.125 20.933594 C 15.042969 21.132812 15 21.339844 15 21.550781 L 15 23.167969 C 15 23.402344 14.941406 23.613281 14.816406 23.808594 C 14.691406 24.003906 14.523438 24.152344 14.316406 24.246094 C 14.523438 24.34375 14.691406 24.488281 14.816406 24.683594 C 14.941406 24.878906 15 25.09375 15 25.324219 L 15 26.941406 C 15 27.15625 15.042969 27.363281 15.125 27.5625 C 15.203125 27.761719 15.320312 27.933594 15.472656 28.085938 C 15.621094 28.238281 15.796875 28.355469 15.992188 28.4375 C 16.191406 28.519531 16.394531 28.558594 16.609375 28.558594 L 17.144531 28.558594 Z M 17.144531 29.636719 " fill-opacity="1" fill-rule="nonzero"/><path fill="#1b0739" d="M 25.175781 29.636719 L 24.640625 29.636719 L 24.640625 28.558594 L 25.175781 28.558594 C 25.390625 28.558594 25.59375 28.519531 25.792969 28.4375 C 25.988281 28.355469 26.164062 28.238281 26.3125 28.085938 C 26.464844 27.933594 26.578125 27.761719 26.660156 27.5625 C 26.742188 27.363281 26.785156 27.15625 26.785156 26.941406 L 26.785156 25.324219 C 26.78125 25.09375 26.84375 24.878906 26.96875 24.683594 C 27.09375 24.488281 27.261719 24.34375 27.46875 24.246094 C 27.261719 24.152344 27.09375 24.003906 26.96875 23.808594 C 26.84375 23.613281 26.78125 23.402344 26.785156 23.167969 L 26.785156 21.550781 C 26.785156 21.339844 26.742188 21.132812 26.660156 20.933594 C 26.578125 20.734375 26.464844 20.5625 26.3125 20.410156 C 26.164062 20.257812 25.988281 20.140625 25.792969 20.058594 C 25.59375 19.976562 25.390625 19.933594 25.175781 19.933594 L 24.640625 19.933594 L 24.640625 18.855469 L 25.175781 18.855469 C 25.53125 18.859375 25.875 18.925781 26.203125 19.0625 C 26.527344 19.199219 26.820312 19.394531 27.070312 19.648438 C 27.320312 19.898438 27.515625 20.191406 27.648438 20.523438 C 27.785156 20.851562 27.855469 21.195312 27.855469 21.550781 L 27.855469 23.167969 C 27.878906 23.242188 27.992188 23.304688 28.074219 23.355469 C 28.332031 23.492188 28.5625 23.664062 28.769531 23.867188 C 28.875 23.972656 28.925781 24.097656 28.925781 24.246094 C 28.925781 24.398438 28.875 24.523438 28.769531 24.628906 C 28.5625 24.832031 28.332031 25.003906 28.074219 25.140625 C 27.996094 25.183594 27.921875 25.230469 27.851562 25.285156 L 27.855469 26.941406 C 27.855469 27.300781 27.785156 27.644531 27.648438 27.972656 C 27.515625 28.304688 27.320312 28.59375 27.070312 28.847656 C 26.820312 29.101562 26.527344 29.296875 26.203125 29.433594 C 25.875 29.570312 25.53125 29.636719 25.175781 29.636719 Z M 25.175781 29.636719 " fill-opacity="1" fill-rule="nonzero"/><path fill="#1b0739" d="M 18.214844 10.769531 C 16.519531 10.769531 16.070312 9.714844 16.070312 9.152344 L 16.609375 9.152344 L 17.144531 9.136719 C 17.148438 9.230469 17.230469 9.691406 18.214844 9.691406 C 18.363281 9.691406 18.488281 9.640625 18.59375 9.535156 C 18.699219 9.429688 18.75 9.304688 18.75 9.152344 C 18.75 9.003906 18.699219 8.878906 18.59375 8.773438 C 18.488281 8.667969 18.363281 8.613281 18.214844 8.613281 L 17.679688 8.613281 C 17.464844 8.613281 17.261719 8.574219 17.0625 8.492188 C 16.867188 8.410156 16.691406 8.292969 16.542969 8.140625 C 16.390625 7.988281 16.277344 7.816406 16.195312 7.617188 C 16.113281 7.417969 16.070312 7.210938 16.070312 6.996094 C 16.070312 6.785156 16.113281 6.578125 16.195312 6.378906 C 16.277344 6.179688 16.390625 6.007812 16.542969 5.855469 C 16.691406 5.703125 16.867188 5.585938 17.0625 5.503906 C 17.261719 5.421875 17.464844 5.378906 17.679688 5.378906 C 19.375 5.378906 19.820312 6.4375 19.820312 6.996094 L 18.75 6.996094 C 18.742188 6.921875 18.664062 6.457031 17.679688 6.457031 C 17.53125 6.457031 17.40625 6.511719 17.300781 6.617188 C 17.195312 6.722656 17.144531 6.847656 17.144531 6.996094 C 17.144531 7.148438 17.195312 7.273438 17.300781 7.378906 C 17.40625 7.484375 17.53125 7.535156 17.679688 7.535156 L 18.214844 7.535156 C 18.425781 7.535156 18.632812 7.578125 18.828125 7.660156 C 19.027344 7.742188 19.199219 7.859375 19.351562 8.011719 C 19.5 8.164062 19.617188 8.335938 19.699219 8.535156 C 19.78125 8.734375 19.820312 8.941406 19.820312 9.152344 C 19.820312 9.367188 19.78125 9.574219 19.699219 9.773438 C 19.617188 9.972656 19.5 10.144531 19.351562 10.296875 C 19.199219 10.449219 19.027344 10.566406 18.828125 10.648438 C 18.632812 10.730469 18.425781 10.769531 18.214844 10.769531 Z M 18.214844 10.769531 " fill-opacity="1" fill-rule="nonzero"/><path fill="#1b0739" d="M 13.394531 10.769531 C 11.699219 10.769531 11.25 9.714844 11.25 9.152344 L 11.789062 9.152344 L 12.324219 9.136719 C 12.328125 9.230469 12.410156 9.691406 13.394531 9.691406 C 13.542969 9.691406 13.667969 9.640625 13.773438 9.535156 C 13.878906 9.429688 13.929688 9.304688 13.929688 9.152344 C 13.929688 9.003906 13.878906 8.878906 13.773438 8.773438 C 13.667969 8.667969 13.542969 8.613281 13.394531 8.613281 L 12.859375 8.613281 C 12.644531 8.613281 12.441406 8.574219 12.242188 8.492188 C 12.046875 8.410156 11.875 8.292969 11.722656 8.140625 C 11.570312 7.988281 11.457031 7.816406 11.375 7.617188 C 11.292969 7.417969 11.25 7.210938 11.25 6.996094 C 11.25 6.785156 11.292969 6.578125 11.375 6.378906 C 11.457031 6.179688 11.570312 6.007812 11.722656 5.855469 C 11.875 5.703125 12.046875 5.585938 12.242188 5.503906 C 12.441406 5.421875 12.644531 5.378906 12.859375 5.378906 C 14.554688 5.378906 15 6.4375 15 6.996094 L 13.929688 6.996094 C 13.925781 6.921875 13.84375 6.457031 12.859375 6.457031 C 12.710938 6.457031 12.585938 6.511719 12.480469 6.617188 C 12.375 6.722656 12.324219 6.847656 12.324219 6.996094 C 12.324219 7.148438 12.375 7.273438 12.480469 7.378906 C 12.585938 7.484375 12.710938 7.535156 12.859375 7.535156 L 13.394531 7.535156 C 13.605469 7.535156 13.8125 7.578125 14.007812 7.660156 C 14.207031 7.742188 14.378906 7.859375 14.53125 8.011719 C 14.679688 8.164062 14.796875 8.335938 14.878906 8.535156 C 14.960938 8.734375 15 8.941406 15 9.152344 C 15 9.367188 14.960938 9.574219 14.878906 9.773438 C 14.796875 9.972656 14.679688 10.144531 14.53125 10.296875 C 14.378906 10.449219 14.207031 10.566406 14.007812 10.648438 C 13.8125 10.730469 13.605469 10.769531 13.394531 10.769531 Z M 13.394531 10.769531 " fill-opacity="1" fill-rule="nonzero"/><path fill="#1b0739" d="M 10.179688 10.769531 L 9.644531 10.769531 C 9.289062 10.769531 8.949219 10.703125 8.621094 10.566406 C 8.292969 10.429688 8.003906 10.234375 7.75 9.980469 C 7.5 9.730469 7.308594 9.4375 7.171875 9.105469 C 7.035156 8.777344 6.96875 8.433594 6.96875 8.074219 C 6.96875 7.71875 7.035156 7.375 7.171875 7.042969 C 7.308594 6.714844 7.5 6.421875 7.75 6.171875 C 8.003906 5.917969 8.292969 5.722656 8.621094 5.585938 C 8.949219 5.449219 9.289062 5.378906 9.644531 5.378906 L 10.179688 5.378906 L 10.179688 6.457031 L 9.644531 6.457031 C 9.433594 6.457031 9.226562 6.5 9.03125 6.582031 C 8.832031 6.664062 8.660156 6.78125 8.507812 6.933594 C 8.359375 7.085938 8.242188 7.257812 8.160156 7.457031 C 8.078125 7.65625 8.039062 7.863281 8.039062 8.074219 C 8.039062 8.289062 8.078125 8.496094 8.160156 8.695312 C 8.242188 8.894531 8.359375 9.066406 8.507812 9.21875 C 8.660156 9.371094 8.832031 9.488281 9.03125 9.570312 C 9.226562 9.652344 9.433594 9.691406 9.644531 9.691406 L 10.179688 9.691406 Z M 10.179688 10.769531 " fill-opacity="1" fill-rule="nonzero"/></svg>