<svg xmlns="http://www.w3.org/2000/svg" xmlns:xlink="http://www.w3.org/1999/xlink" width="50" zoomAndPan="magnify" viewBox="0 0 37.5 37.499999" height="50" preserveAspectRatio="xMidYMid meet" version="1.0"><defs><clipPath id="91d168b980"><path d="M 3.75 3 L 25 3 L 25 13 L 3.75 13 Z M 3.75 3 " clip-rule="nonzero"/></clipPath><clipPath id="66a2e3cb46"><path d="M 26 2 L 33.75 2 L 33.75 10 L 26 10 Z M 26 2 " clip-rule="nonzero"/></clipPath><clipPath id="e46f93cdce"><path d="M 8 1.605469 L 33.75 1.605469 L 33.75 11 L 8 11 Z M 8 1.605469 " clip-rule="nonzero"/></clipPath><clipPath id="1de873d282"><path d="M 8 13 L 33.75 13 L 33.75 36.105469 L 8 36.105469 Z M 8 13 " clip-rule="nonzero"/></clipPath><clipPath id="4dac463c9f"><path d="M 32 11 L 33.75 11 L 33.75 13 L 32 13 Z M 32 11 " clip-rule="nonzero"/></clipPath></defs><g clip-path="url(#91d168b980)"><path fill="#1b0739" d="M 23.570312 12.925781 L 4.289062 12.925781 C 4.140625 12.925781 4.015625 12.875 3.910156 12.769531 C 3.804688 12.664062 3.753906 12.539062 3.753906 12.386719 L 3.753906 3.761719 C 3.753906 3.613281 3.804688 3.488281 3.910156 3.382812 C 4.015625 3.277344 4.140625 3.222656 4.289062 3.222656 L 23.570312 3.222656 C 23.71875 3.222656 23.84375 3.277344 23.949219 3.382812 C 24.054688 3.488281 24.105469 3.613281 24.105469 3.761719 L 24.105469 12.386719 C 24.105469 12.539062 24.054688 12.664062 23.949219 12.769531 C 23.84375 12.875 23.71875 12.925781 23.570312 12.925781 Z M 4.824219 11.847656 L 23.035156 11.847656 L 23.035156 4.300781 L 4.824219 4.300781 Z M 4.824219 11.847656 " fill-opacity="1" fill-rule="nonzero"/></g><g clip-path="url(#66a2e3cb46)"><path fill="#1b0739" d="M 33.210938 9.152344 L 26.785156 9.152344 C 26.636719 9.152344 26.507812 9.101562 26.40625 8.996094 C 26.300781 8.890625 26.25 8.765625 26.25 8.613281 L 26.25 2.144531 L 27.320312 2.144531 L 27.320312 8.074219 L 33.210938 8.074219 Z M 33.210938 9.152344 " fill-opacity="1" fill-rule="nonzero"/></g><g clip-path="url(#e46f93cdce)"><path fill="#1b0739" d="M 33.746094 10.230469 L 32.675781 10.230469 L 32.675781 8.839844 L 26.5625 2.683594 L 9.109375 2.683594 L 9.109375 3.761719 L 8.039062 3.761719 L 8.039062 2.144531 C 8.039062 1.996094 8.089844 1.871094 8.195312 1.765625 C 8.300781 1.660156 8.425781 1.605469 8.574219 1.605469 L 26.785156 1.605469 C 26.929688 1.605469 27.058594 1.660156 27.164062 1.765625 L 33.589844 8.234375 C 33.695312 8.339844 33.746094 8.464844 33.746094 8.613281 Z M 33.746094 10.230469 " fill-opacity="1" fill-rule="nonzero"/></g><path fill="#1b0739" d="M 8.039062 14.003906 L 9.109375 14.003906 L 9.109375 15.082031 L 8.039062 15.082031 Z M 8.039062 14.003906 " fill-opacity="1" fill-rule="nonzero"/><path fill="#1b0739" d="M 8.039062 16.160156 L 9.109375 16.160156 L 9.109375 31.792969 L 8.039062 31.792969 Z M 8.039062 16.160156 " fill-opacity="1" fill-rule="nonzero"/><g clip-path="url(#1de873d282)"><path fill="#1b0739" d="M 33.210938 36.105469 L 8.574219 36.105469 C 8.425781 36.105469 8.300781 36.054688 8.195312 35.949219 C 8.089844 35.84375 8.039062 35.71875 8.039062 35.566406 L 8.039062 32.871094 L 9.109375 32.871094 L 9.109375 35.027344 L 32.675781 35.027344 L 32.675781 13.464844 L 33.746094 13.464844 L 33.746094 35.566406 C 33.746094 35.71875 33.695312 35.84375 33.589844 35.949219 C 33.484375 36.054688 33.359375 36.105469 33.210938 36.105469 Z M 33.210938 36.105469 " fill-opacity="1" fill-rule="nonzero"/></g><g clip-path="url(#4dac463c9f)"><path fill="#1b0739" d="M 32.675781 11.308594 L 33.746094 11.308594 L 33.746094 12.386719 L 32.675781 12.386719 Z M 32.675781 11.308594 " fill-opacity="1" fill-rule="nonzero"/></g><path fill="#1b0739" d="M 15.535156 10.769531 C 13.84375 10.769531 13.394531 9.714844 13.394531 9.152344 L 13.929688 9.152344 L 14.464844 9.136719 C 14.472656 9.230469 14.550781 9.691406 15.535156 9.691406 C 15.683594 9.691406 15.8125 9.640625 15.914062 9.535156 C 16.019531 9.429688 16.070312 9.304688 16.070312 9.152344 C 16.070312 9.003906 16.019531 8.878906 15.914062 8.773438 C 15.8125 8.667969 15.683594 8.613281 15.535156 8.613281 L 15 8.613281 C 14.789062 8.613281 14.582031 8.574219 14.386719 8.492188 C 14.1875 8.410156 14.015625 8.292969 13.863281 8.140625 C 13.714844 7.988281 13.597656 7.816406 13.515625 7.617188 C 13.433594 7.417969 13.394531 7.210938 13.394531 6.996094 C 13.394531 6.785156 13.433594 6.578125 13.515625 6.378906 C 13.597656 6.179688 13.714844 6.007812 13.863281 5.855469 C 14.015625 5.703125 14.1875 5.585938 14.386719 5.503906 C 14.582031 5.421875 14.789062 5.378906 15 5.378906 C 16.695312 5.378906 17.144531 6.4375 17.144531 6.996094 L 16.070312 6.996094 C 16.066406 6.921875 15.988281 6.457031 15 6.457031 C 14.851562 6.457031 14.726562 6.511719 14.621094 6.617188 C 14.519531 6.722656 14.464844 6.847656 14.464844 6.996094 C 14.464844 7.148438 14.519531 7.273438 14.621094 7.378906 C 14.726562 7.484375 14.851562 7.535156 15 7.535156 L 15.535156 7.535156 C 15.75 7.535156 15.953125 7.578125 16.152344 7.660156 C 16.347656 7.742188 16.523438 7.859375 16.671875 8.011719 C 16.824219 8.164062 16.9375 8.335938 17.019531 8.535156 C 17.101562 8.734375 17.144531 8.941406 17.144531 9.152344 C 17.144531 9.367188 17.101562 9.574219 17.019531 9.773438 C 16.9375 9.972656 16.824219 10.144531 16.671875 10.296875 C 16.523438 10.449219 16.347656 10.566406 16.152344 10.648438 C 15.953125 10.730469 15.75 10.769531 15.535156 10.769531 Z M 15.535156 10.769531 " fill-opacity="1" fill-rule="nonzero"/><path fill="#1b0739" d="M 11.25 10.769531 C 11.039062 10.769531 10.832031 10.730469 10.636719 10.648438 C 10.441406 10.566406 10.265625 10.449219 10.117188 10.296875 C 9.964844 10.144531 9.847656 9.972656 9.765625 9.773438 C 9.6875 9.574219 9.644531 9.367188 9.644531 9.152344 L 9.644531 8.613281 L 10.714844 8.613281 L 10.714844 9.152344 C 10.714844 9.304688 10.769531 9.429688 10.875 9.535156 C 10.976562 9.640625 11.105469 9.691406 11.25 9.691406 C 11.398438 9.691406 11.527344 9.640625 11.628906 9.535156 C 11.734375 9.429688 11.789062 9.304688 11.789062 9.152344 L 11.789062 5.378906 L 12.859375 5.378906 L 12.859375 9.152344 C 12.859375 9.367188 12.816406 9.574219 12.734375 9.773438 C 12.65625 9.972656 12.539062 10.144531 12.386719 10.296875 C 12.238281 10.449219 12.0625 10.566406 11.867188 10.648438 C 11.667969 10.730469 11.464844 10.769531 11.25 10.769531 Z M 11.25 10.769531 " fill-opacity="1" fill-rule="nonzero"/><path fill="#1b0739" d="M 17.144531 29.636719 L 16.609375 29.636719 C 16.253906 29.636719 15.910156 29.570312 15.582031 29.433594 C 15.253906 29.296875 14.964844 29.101562 14.714844 28.847656 C 14.464844 28.59375 14.269531 28.304688 14.132812 27.972656 C 14 27.644531 13.929688 27.300781 13.929688 26.941406 L 13.929688 25.324219 C 13.90625 25.253906 13.792969 25.191406 13.710938 25.140625 C 13.453125 25.003906 13.222656 24.832031 13.015625 24.628906 C 12.910156 24.523438 12.855469 24.398438 12.855469 24.246094 C 12.855469 24.097656 12.910156 23.972656 13.015625 23.867188 C 13.222656 23.664062 13.453125 23.492188 13.710938 23.355469 C 13.789062 23.3125 13.859375 23.265625 13.929688 23.210938 L 13.929688 21.550781 C 13.929688 21.195312 14 20.851562 14.132812 20.523438 C 14.269531 20.191406 14.464844 19.898438 14.714844 19.648438 C 14.964844 19.394531 15.253906 19.199219 15.582031 19.0625 C 15.910156 18.925781 16.253906 18.859375 16.609375 18.855469 L 17.144531 18.855469 L 17.144531 19.933594 L 16.609375 19.933594 C 16.394531 19.933594 16.191406 19.976562 15.992188 20.058594 C 15.796875 20.140625 15.621094 20.257812 15.472656 20.410156 C 15.320312 20.5625 15.203125 20.734375 15.125 20.933594 C 15.042969 21.132812 15 21.339844 15 21.550781 L 15 23.167969 C 15 23.402344 14.941406 23.613281 14.816406 23.808594 C 14.691406 24.003906 14.523438 24.152344 14.316406 24.246094 C 14.523438 24.34375 14.691406 24.488281 14.816406 24.683594 C 14.941406 24.878906 15 25.09375 15 25.324219 L 15 26.941406 C 15 27.15625 15.042969 27.363281 15.125 27.5625 C 15.203125 27.761719 15.320312 27.933594 15.472656 28.085938 C 15.621094 28.238281 15.796875 28.355469 15.992188 28.4375 C 16.191406 28.519531 16.394531 28.558594 16.609375 28.558594 L 17.144531 28.558594 Z M 17.144531 29.636719 " fill-opacity="1" fill-rule="nonzero"/><path fill="#1b0739" d="M 25.175781 29.636719 L 24.640625 29.636719 L 24.640625 28.558594 L 25.175781 28.558594 C 25.390625 28.558594 25.59375 28.519531 25.792969 28.4375 C 25.988281 28.355469 26.164062 28.238281 26.3125 28.085938 C 26.464844 27.933594 26.578125 27.761719 26.660156 27.5625 C 26.742188 27.363281 26.785156 27.15625 26.785156 26.941406 L 26.785156 25.324219 C 26.78125 25.09375 26.84375 24.878906 26.96875 24.683594 C 27.09375 24.488281 27.261719 24.34375 27.46875 24.246094 C 27.261719 24.152344 27.09375 24.003906 26.96875 23.808594 C 26.84375 23.613281 26.78125 23.402344 26.785156 23.167969 L 26.785156 21.550781 C 26.785156 21.339844 26.742188 21.132812 26.660156 20.933594 C 26.578125 20.734375 26.464844 20.5625 26.3125 20.410156 C 26.164062 20.257812 25.988281 20.140625 25.792969 20.058594 C 25.59375 19.976562 25.390625 19.933594 25.175781 19.933594 L 24.640625 19.933594 L 24.640625 18.855469 L 25.175781 18.855469 C 25.53125 18.859375 25.875 18.925781 26.203125 19.0625 C 26.527344 19.199219 26.820312 19.394531 27.070312 19.648438 C 27.320312 19.898438 27.515625 20.191406 27.648438 20.523438 C 27.785156 20.851562 27.855469 21.195312 27.855469 21.550781 L 27.855469 23.167969 C 27.878906 23.242188 27.992188 23.304688 28.074219 23.355469 C 28.332031 23.492188 28.5625 23.664062 28.769531 23.867188 C 28.875 23.972656 28.925781 24.097656 28.925781 24.246094 C 28.925781 24.398438 28.875 24.523438 28.769531 24.628906 C 28.5625 24.832031 28.332031 25.003906 28.074219 25.140625 C 27.996094 25.183594 27.921875 25.230469 27.851562 25.285156 L 27.855469 26.941406 C 27.855469 27.300781 27.785156 27.644531 27.648438 27.972656 C 27.515625 28.304688 27.320312 28.59375 27.070312 28.847656 C 26.820312 29.101562 26.527344 29.296875 26.203125 29.433594 C 25.875 29.570312 25.53125 29.636719 25.175781 29.636719 Z M 25.175781 29.636719 " fill-opacity="1" fill-rule="nonzero"/><path fill="#1b0739" d="M 20.890625 22.628906 C 20.75 22.628906 20.613281 22.601562 20.480469 22.546875 C 20.351562 22.492188 20.234375 22.414062 20.136719 22.316406 C 20.035156 22.214844 19.957031 22.097656 19.902344 21.964844 C 19.847656 21.832031 19.820312 21.695312 19.820312 21.550781 C 19.820312 21.410156 19.847656 21.273438 19.902344 21.140625 C 19.957031 21.007812 20.035156 20.890625 20.136719 20.789062 C 20.234375 20.6875 20.351562 20.609375 20.480469 20.554688 C 20.613281 20.5 20.75 20.472656 20.890625 20.472656 C 21.035156 20.472656 21.171875 20.5 21.300781 20.554688 C 21.433594 20.609375 21.550781 20.6875 21.648438 20.789062 C 21.75 20.890625 21.828125 21.007812 21.882812 21.140625 C 21.9375 21.273438 21.964844 21.410156 21.964844 21.550781 C 21.964844 21.695312 21.9375 21.832031 21.882812 21.964844 C 21.828125 22.097656 21.75 22.214844 21.648438 22.316406 C 21.550781 22.414062 21.433594 22.492188 21.300781 22.546875 C 21.171875 22.601562 21.035156 22.628906 20.890625 22.628906 Z M 20.890625 21.550781 Z M 20.890625 21.550781 " fill-opacity="1" fill-rule="nonzero"/><path fill="#1b0739" d="M 19.820312 28.019531 L 18.75 28.019531 C 18.664062 28.019531 18.585938 28.003906 18.511719 27.964844 C 18.4375 27.925781 18.375 27.875 18.324219 27.808594 C 18.273438 27.738281 18.238281 27.664062 18.222656 27.582031 C 18.207031 27.496094 18.210938 27.414062 18.234375 27.335938 L 19.304688 23.5625 C 19.378906 23.300781 19.550781 23.167969 19.820312 23.167969 L 21.429688 23.167969 C 21.519531 23.167969 21.601562 23.191406 21.683594 23.234375 C 21.761719 23.277344 21.824219 23.335938 21.875 23.410156 C 21.925781 23.488281 21.953125 23.570312 21.960938 23.660156 C 21.96875 23.75 21.957031 23.835938 21.921875 23.921875 L 20.3125 27.695312 C 20.21875 27.914062 20.054688 28.019531 19.820312 28.019531 Z M 19.460938 26.941406 L 19.46875 26.941406 L 20.617188 24.246094 L 20.226562 24.246094 Z M 19.460938 26.941406 " fill-opacity="1" fill-rule="nonzero"/></svg>