<svg xmlns="http://www.w3.org/2000/svg" xmlns:xlink="http://www.w3.org/1999/xlink" width="50" zoomAndPan="magnify" viewBox="0 0 37.5 37.499999" height="50" preserveAspectRatio="xMidYMid meet" version="1.0"><defs><clipPath id="1e686d6961"><path d="M 2.046875 4 L 35.796875 4 L 35.796875 34 L 2.046875 34 Z M 2.046875 4 " clip-rule="nonzero"/></clipPath></defs><path fill="#1b0739" d="M 18.921875 15.746094 C 17.253906 15.746094 15.902344 17.089844 15.902344 18.75 C 15.902344 20.40625 17.253906 21.75 18.921875 21.75 C 20.589844 21.75 21.941406 20.40625 21.941406 18.75 C 21.941406 17.089844 20.589844 15.746094 18.921875 15.746094 Z M 18.921875 15.746094 " fill-opacity="1" fill-rule="nonzero"/><g clip-path="url(#1e686d6961)"><path fill="#1b0739" d="M 8.394531 24.0625 C 8.691406 24.160156 8.988281 24.261719 9.292969 24.347656 C 9.191406 24.738281 9.105469 25.125 9.027344 25.527344 C 8.335938 29.164062 8.875 32.046875 10.601562 33.035156 C 12.382812 34.058594 15.375 33.011719 18.289062 30.472656 C 18.519531 30.269531 18.75 30.0625 18.980469 29.839844 C 19.269531 30.121094 19.574219 30.390625 19.875 30.648438 C 22.695312 33.0625 25.484375 34.039062 27.207031 33.050781 C 28.988281 32.027344 29.566406 28.929688 28.816406 25.152344 C 28.757812 24.867188 28.691406 24.570312 28.617188 24.269531 C 28.828125 24.210938 29.03125 24.144531 29.238281 24.078125 C 33.042969 22.828125 35.796875 20.800781 35.796875 18.722656 C 35.796875 16.738281 33.199219 14.8125 29.613281 13.585938 C 29.257812 13.46875 28.902344 13.355469 28.546875 13.25 C 28.605469 13.007812 28.660156 12.765625 28.710938 12.523438 C 29.523438 8.617188 28.988281 5.480469 27.1875 4.445312 C 25.453125 3.453125 22.625 4.484375 19.765625 6.960938 C 19.480469 7.203125 19.207031 7.457031 18.941406 7.714844 C 18.761719 7.542969 18.578125 7.375 18.394531 7.210938 C 15.394531 4.5625 12.390625 3.449219 10.589844 4.492188 C 8.863281 5.488281 8.347656 8.441406 9.074219 12.136719 C 9.148438 12.503906 9.226562 12.863281 9.316406 13.230469 C 8.894531 13.347656 8.480469 13.480469 8.089844 13.617188 C 4.570312 14.832031 2.046875 16.746094 2.046875 18.722656 C 2.046875 20.769531 4.734375 22.820312 8.394531 24.0625 Z M 17.359375 29.402344 C 16.273438 30.394531 15.011719 31.179688 13.640625 31.71875 C 12.910156 32.0625 12.066406 32.097656 11.3125 31.800781 C 10.265625 31.199219 9.828125 28.886719 10.421875 25.773438 C 10.496094 25.40625 10.574219 25.039062 10.667969 24.679688 C 12.144531 24.992188 13.632812 25.210938 15.144531 25.320312 C 16.011719 26.546875 16.96875 27.71875 17.992188 28.820312 C 17.78125 29.019531 17.570312 29.21875 17.359375 29.402344 Z M 25.730469 17.097656 C 25.421875 16.519531 25.105469 15.945312 24.773438 15.382812 C 24.449219 14.824219 24.113281 14.273438 23.765625 13.730469 C 24.828125 13.863281 25.84375 14.039062 26.792969 14.253906 C 26.488281 15.226562 26.132812 16.167969 25.730469 17.097656 Z M 25.742188 20.359375 C 26.164062 21.3125 26.535156 22.273438 26.855469 23.265625 C 25.835938 23.492188 24.800781 23.671875 23.757812 23.789062 C 24.113281 23.238281 24.449219 22.675781 24.78125 22.109375 C 25.117188 21.535156 25.433594 20.949219 25.742188 20.359375 Z M 24.980469 18.730469 C 24.539062 19.636719 24.0625 20.527344 23.558594 21.402344 C 23.058594 22.273438 22.523438 23.121094 21.964844 23.960938 C 20.980469 24.03125 19.960938 24.0625 18.925781 24.0625 C 17.890625 24.0625 16.886719 24.03125 15.917969 23.972656 C 15.34375 23.140625 14.804688 22.289062 14.296875 21.417969 C 13.789062 20.546875 13.320312 19.660156 12.878906 18.757812 C 13.3125 17.851562 13.789062 16.964844 14.289062 16.09375 C 14.789062 15.226562 15.328125 14.378906 15.898438 13.546875 C 16.886719 13.472656 17.894531 13.433594 18.921875 13.433594 C 19.953125 13.433594 20.964844 13.472656 21.949219 13.546875 C 22.507812 14.375 23.042969 15.21875 23.550781 16.082031 C 24.058594 16.949219 24.53125 17.832031 24.980469 18.730469 Z M 13.058594 15.394531 C 12.738281 15.949219 12.421875 16.519531 12.125 17.097656 C 11.707031 16.121094 11.359375 15.164062 11.070312 14.242188 C 12.019531 14.03125 13.027344 13.859375 14.074219 13.730469 C 13.726562 14.273438 13.382812 14.828125 13.058594 15.394531 Z M 12.125 20.414062 C 12.429688 20.988281 12.738281 21.558594 13.066406 22.125 C 13.402344 22.695312 13.746094 23.265625 14.109375 23.820312 C 13.082031 23.710938 12.058594 23.546875 11.050781 23.328125 C 11.339844 22.386719 11.703125 21.410156 12.125 20.414062 Z M 18.976562 27.808594 C 18.300781 27.089844 17.628906 26.292969 16.976562 25.429688 C 17.609375 25.457031 18.261719 25.46875 18.921875 25.46875 C 19.601562 25.46875 20.265625 25.457031 20.925781 25.425781 C 20.320312 26.257812 19.667969 27.050781 18.976562 27.808594 Z M 27.589844 29.777344 C 27.53125 30.574219 27.136719 31.324219 26.503906 31.828125 C 25.453125 32.429688 23.21875 31.644531 20.808594 29.585938 C 20.53125 29.351562 20.253906 29.09375 19.96875 28.832031 C 20.980469 27.726562 21.910156 26.550781 22.753906 25.320312 C 24.261719 25.195312 25.765625 24.96875 27.246094 24.632812 C 27.3125 24.902344 27.371094 25.171875 27.425781 25.433594 C 27.75 26.847656 27.800781 28.324219 27.589844 29.777344 Z M 28.164062 14.601562 C 28.507812 14.699219 28.835938 14.804688 29.152344 14.910156 C 32.222656 15.957031 34.378906 17.515625 34.378906 18.710938 C 34.378906 19.996094 32.078125 21.652344 28.789062 22.734375 C 28.605469 22.792969 28.421875 22.851562 28.230469 22.902344 C 27.769531 21.476562 27.203125 20.078125 26.550781 18.722656 C 27.183594 17.386719 27.714844 16.007812 28.164062 14.601562 Z M 20.691406 8.023438 C 23.148438 5.898438 25.433594 5.066406 26.476562 5.664062 C 27.589844 6.300781 28.019531 8.867188 27.320312 12.242188 C 27.273438 12.464844 27.226562 12.683594 27.167969 12.898438 C 25.703125 12.570312 24.222656 12.335938 22.730469 12.203125 C 21.875 10.984375 20.9375 9.816406 19.921875 8.722656 C 20.179688 8.480469 20.429688 8.25 20.691406 8.023438 Z M 18.933594 9.726562 C 19.628906 10.472656 20.28125 11.257812 20.886719 12.070312 C 19.582031 12.011719 18.269531 12.011719 16.964844 12.070312 C 17.609375 11.226562 18.277344 10.441406 18.933594 9.726562 Z M 11.289062 5.710938 C 12.394531 5.066406 14.855469 5.984375 17.445312 8.265625 C 17.609375 8.410156 17.773438 8.566406 17.945312 8.722656 C 16.921875 9.816406 15.980469 10.984375 15.117188 12.203125 C 13.628906 12.332031 12.152344 12.5625 10.6875 12.882812 C 10.601562 12.550781 10.53125 12.210938 10.457031 11.867188 C 9.835938 8.695312 10.246094 6.304688 11.289062 5.710938 Z M 8.554688 14.949219 C 8.929688 14.816406 9.3125 14.699219 9.695312 14.585938 C 10.140625 16.007812 10.683594 17.40625 11.308594 18.753906 C 10.675781 20.125 10.128906 21.539062 9.675781 22.980469 L 9.671875 22.980469 C 9.394531 22.902344 9.125 22.820312 8.855469 22.726562 C 7.453125 22.289062 5.855469 21.59375 4.703125 20.683594 C 4.039062 20.222656 3.589844 19.515625 3.464844 18.722656 C 3.464844 17.523438 5.546875 15.988281 8.554688 14.949219 Z M 8.554688 14.949219 " fill-opacity="1" fill-rule="nonzero"/></g></svg>