<svg xmlns="http://www.w3.org/2000/svg" xmlns:xlink="http://www.w3.org/1999/xlink" width="50" zoomAndPan="magnify" viewBox="0 0 37.5 37.499999" height="50" preserveAspectRatio="xMidYMid meet" version="1.0"><defs><clipPath id="7817b1853e"><path d="M 4.59375 3.425781 L 33.09375 3.425781 L 33.09375 34.175781 L 4.59375 34.175781 Z M 4.59375 3.425781 " clip-rule="nonzero"/></clipPath></defs><g clip-path="url(#7817b1853e)"><path fill="#1b0739" d="M 18.835938 3.425781 C 18.402344 3.425781 17.972656 3.53125 17.597656 3.746094 L 5.835938 10.511719 C 5.074219 10.949219 4.601562 11.777344 4.601562 12.652344 L 4.601562 24.925781 C 4.601562 25.8125 5.074219 26.628906 5.835938 27.066406 L 8.921875 28.84375 C 10.417969 29.574219 10.949219 29.574219 11.628906 29.574219 C 13.847656 29.574219 15.117188 28.238281 15.117188 25.921875 L 15.117188 13.253906 C 15.117188 13.066406 14.964844 12.910156 14.773438 12.910156 L 13.289062 12.910156 C 13.089844 12.910156 12.945312 13.066406 12.945312 13.253906 L 12.945312 25.910156 C 12.945312 26.949219 11.867188 27.964844 10.121094 27.101562 L 6.890625 25.246094 C 6.773438 25.1875 6.703125 25.058594 6.703125 24.925781 L 6.703125 12.664062 C 6.703125 12.519531 6.773438 12.402344 6.890625 12.332031 L 18.652344 5.566406 C 18.761719 5.496094 18.902344 5.496094 19.023438 5.566406 L 30.785156 12.332031 C 30.902344 12.402344 30.976562 12.523438 30.976562 12.652344 L 30.976562 24.925781 C 30.976562 25.058594 30.902344 25.1875 30.796875 25.246094 L 19.023438 32.023438 C 18.914062 32.082031 18.761719 32.082031 18.652344 32.023438 L 15.625 30.238281 C 15.542969 30.179688 15.425781 30.167969 15.34375 30.214844 C 14.5 30.6875 14.347656 30.746094 13.5625 31.019531 C 13.375 31.078125 13.078125 31.195312 13.671875 31.527344 L 17.597656 33.84375 C 17.976562 34.058594 18.40625 34.175781 18.832031 34.175781 C 19.273438 34.175781 19.699219 34.058594 20.078125 33.84375 L 31.855469 27.066406 C 32.613281 26.628906 33.085938 25.8125 33.085938 24.925781 L 33.085938 12.664062 C 33.085938 11.777344 32.613281 10.960938 31.855469 10.523438 L 20.078125 3.746094 C 19.703125 3.53125 19.269531 3.425781 18.835938 3.425781 Z M 22 12.894531 C 18.644531 12.894531 16.636719 14.3125 16.636719 16.679688 C 16.636719 19.246094 18.628906 19.953125 21.859375 20.273438 C 25.714844 20.652344 26.011719 21.21875 26.011719 21.976562 C 26.011719 23.277344 24.957031 23.835938 22.476562 23.835938 C 19.355469 23.835938 18.667969 23.050781 18.441406 21.515625 C 18.417969 21.347656 18.277344 21.230469 18.109375 21.230469 L 16.578125 21.230469 C 16.386719 21.230469 16.246094 21.386719 16.246094 21.5625 C 16.246094 23.539062 17.324219 25.890625 22.476562 25.890625 C 26.203125 25.890625 28.339844 24.425781 28.339844 21.871094 C 28.339844 19.339844 26.617188 18.664062 23.011719 18.179688 C 19.34375 17.707031 18.972656 17.457031 18.972656 16.605469 C 18.972656 15.898438 19.296875 14.964844 22 14.964844 C 24.410156 14.964844 25.3125 15.484375 25.679688 17.101562 C 25.714844 17.257812 25.847656 17.375 26.011719 17.375 L 27.542969 17.375 C 27.640625 17.375 27.722656 17.328125 27.792969 17.257812 C 27.851562 17.199219 27.886719 17.101562 27.875 16.996094 C 27.640625 14.207031 25.777344 12.894531 22 12.894531 Z M 22 12.894531 " fill-opacity="1" fill-rule="nonzero"/></g></svg>