<svg xmlns="http://www.w3.org/2000/svg" xmlns:xlink="http://www.w3.org/1999/xlink" width="100" zoomAndPan="magnify" viewBox="0 0 75 74.999997" height="100" preserveAspectRatio="xMidYMid meet" version="1.0"><defs><clipPath id="a0b775a841"><path d="M 5 9.066406 L 70.75 9.066406 L 70.75 66 L 5 66 Z M 5 9.066406 " clip-rule="nonzero"/></clipPath></defs><g clip-path="url(#a0b775a841)"><path fill="#1b0739" d="M 6.351562 40.472656 C 11.367188 43.96875 13.988281 44.601562 18.3125 51.925781 C 22.632812 59.25 23.390625 64.234375 24.527344 65.148438 C 25.664062 66.066406 31.351562 64.921875 34.308594 63.316406 C 37.265625 61.714844 37.378906 60.832031 40.136719 54.332031 C 43.96875 45.324219 50.183594 34.265625 54.960938 27.859375 C 59.738281 21.449219 69.796875 13.019531 70.253906 11.414062 C 70.707031 9.8125 65.929688 9.070312 61.382812 10.441406 C 56.832031 11.816406 47.246094 22.421875 41.460938 30.769531 C 35.03125 40.039062 32.746094 47.867188 31.609375 47.636719 C 30.46875 47.410156 28.246094 42.742188 25.0625 39.308594 C 21.878906 35.875 18.519531 33.550781 14.652344 34.234375 C 10.785156 34.921875 4.035156 38.863281 6.351562 40.472656 " fill-opacity="1" fill-rule="nonzero"/></g></svg>