<svg xmlns="http://www.w3.org/2000/svg" xmlns:xlink="http://www.w3.org/1999/xlink" width="100" zoomAndPan="magnify" viewBox="0 0 75 74.999997" height="100" preserveAspectRatio="xMidYMid meet" version="1.0"><defs><clipPath id="54f2482a38"><path d="M 13.5625 9.867188 L 61.5625 9.867188 L 61.5625 65.367188 L 13.5625 65.367188 Z M 13.5625 9.867188 " clip-rule="nonzero"/></clipPath></defs><g clip-path="url(#54f2482a38)"><path fill="#050a30" d="M 58.792969 21.898438 L 57.871094 21.898438 L 57.871094 16.351562 C 57.871094 15.984375 57.800781 15.632812 57.660156 15.292969 C 57.519531 14.953125 57.320312 14.652344 57.058594 14.390625 C 56.800781 14.132812 56.5 13.933594 56.160156 13.789062 C 55.820312 13.648438 55.46875 13.578125 55.101562 13.578125 L 54.179688 13.578125 L 54.179688 12.65625 C 54.179688 12.289062 54.109375 11.933594 53.96875 11.59375 C 53.828125 11.253906 53.625 10.953125 53.367188 10.695312 C 53.109375 10.433594 52.808594 10.234375 52.46875 10.09375 C 52.128906 9.953125 51.777344 9.882812 51.410156 9.882812 L 16.332031 9.882812 C 15.964844 9.882812 15.613281 9.953125 15.273438 10.09375 C 14.933594 10.234375 14.632812 10.433594 14.375 10.695312 C 14.113281 10.953125 13.914062 11.253906 13.773438 11.59375 C 13.632812 11.933594 13.5625 12.289062 13.5625 12.65625 L 13.5625 58.878906 C 13.5625 59.25 13.632812 59.601562 13.773438 59.941406 C 13.914062 60.28125 14.113281 60.582031 14.375 60.839844 C 14.632812 61.101562 14.933594 61.300781 15.273438 61.441406 C 15.613281 61.582031 15.964844 61.652344 16.332031 61.652344 L 17.253906 61.652344 L 17.253906 62.578125 C 17.253906 62.945312 17.324219 63.300781 17.464844 63.640625 C 17.605469 63.980469 17.804688 64.28125 18.066406 64.539062 C 18.324219 64.800781 18.625 65 18.964844 65.140625 C 19.304688 65.28125 19.65625 65.351562 20.023438 65.351562 L 55.101562 65.351562 C 55.46875 65.351562 55.820312 65.28125 56.160156 65.140625 C 56.5 65 56.800781 64.800781 57.058594 64.539062 C 57.320312 64.28125 57.519531 63.980469 57.660156 63.640625 C 57.800781 63.300781 57.871094 62.945312 57.871094 62.578125 L 57.871094 45.9375 L 58.792969 45.9375 C 59.160156 45.9375 59.515625 45.867188 59.851562 45.726562 C 60.191406 45.585938 60.492188 45.386719 60.75 45.125 C 61.011719 44.863281 61.210938 44.566406 61.351562 44.226562 C 61.492188 43.886719 61.5625 43.53125 61.5625 43.164062 L 61.5625 24.675781 C 61.5625 24.304688 61.492188 23.953125 61.351562 23.613281 C 61.210938 23.273438 61.011719 22.972656 60.75 22.710938 C 60.492188 22.453125 60.191406 22.253906 59.851562 22.113281 C 59.515625 21.96875 59.160156 21.898438 58.792969 21.898438 Z M 55.101562 15.429688 C 55.355469 15.429688 55.574219 15.519531 55.753906 15.699219 C 55.933594 15.878906 56.023438 16.097656 56.023438 16.351562 L 56.023438 21.898438 L 54.179688 21.898438 L 54.179688 15.429688 Z M 20.949219 11.730469 L 22.792969 11.730469 L 22.792969 14.226562 L 22.636719 13.992188 C 22.546875 13.871094 22.433594 13.777344 22.300781 13.710938 C 22.164062 13.644531 22.023438 13.609375 21.871094 13.609375 C 21.71875 13.609375 21.578125 13.644531 21.441406 13.710938 C 21.304688 13.777344 21.191406 13.871094 21.101562 13.992188 L 20.949219 14.226562 Z M 15.410156 58.878906 L 15.410156 12.65625 C 15.410156 12.398438 15.5 12.183594 15.679688 12 C 15.859375 11.820312 16.078125 11.730469 16.332031 11.730469 L 19.101562 11.730469 L 19.101562 17.277344 C 19.101562 17.480469 19.160156 17.664062 19.28125 17.828125 C 19.402344 17.992188 19.5625 18.105469 19.757812 18.164062 C 19.953125 18.222656 20.144531 18.21875 20.335938 18.148438 C 20.527344 18.078125 20.679688 17.960938 20.792969 17.789062 L 21.871094 16.167969 L 22.949219 17.789062 C 23.0625 17.957031 23.214844 18.078125 23.40625 18.144531 C 23.59375 18.214844 23.789062 18.21875 23.984375 18.160156 C 24.175781 18.101562 24.335938 17.992188 24.457031 17.828125 C 24.578125 17.664062 24.640625 17.480469 24.640625 17.277344 L 24.640625 11.730469 L 51.410156 11.730469 C 51.664062 11.730469 51.882812 11.820312 52.0625 12 C 52.242188 12.183594 52.332031 12.398438 52.332031 12.65625 L 52.332031 21.898438 L 23.714844 21.898438 C 23.347656 21.898438 22.996094 21.96875 22.65625 22.113281 C 22.316406 22.253906 22.019531 22.453125 21.757812 22.710938 C 21.5 22.972656 21.296875 23.273438 21.160156 23.613281 C 21.019531 23.953125 20.949219 24.304688 20.949219 24.675781 L 20.949219 43.164062 C 20.949219 43.53125 21.019531 43.886719 21.160156 44.226562 C 21.296875 44.566406 21.5 44.863281 21.757812 45.125 C 22.019531 45.386719 22.316406 45.585938 22.65625 45.726562 C 22.996094 45.867188 23.347656 45.9375 23.714844 45.9375 L 52.332031 45.9375 L 52.332031 58.878906 C 52.332031 59.136719 52.242188 59.355469 52.0625 59.535156 C 51.882812 59.714844 51.664062 59.804688 51.410156 59.804688 L 16.332031 59.804688 C 16.078125 59.804688 15.859375 59.714844 15.679688 59.535156 C 15.5 59.355469 15.410156 59.136719 15.410156 58.878906 Z M 56.023438 62.578125 C 56.023438 62.832031 55.933594 63.050781 55.753906 63.230469 C 55.574219 63.414062 55.355469 63.503906 55.101562 63.503906 L 20.023438 63.503906 C 19.769531 63.503906 19.550781 63.414062 19.371094 63.230469 C 19.191406 63.050781 19.101562 62.832031 19.101562 62.578125 L 19.101562 61.652344 L 51.410156 61.652344 C 51.777344 61.652344 52.128906 61.582031 52.46875 61.441406 C 52.808594 61.300781 53.109375 61.101562 53.367188 60.839844 C 53.625 60.582031 53.828125 60.28125 53.96875 59.941406 C 54.109375 59.601562 54.179688 59.25 54.179688 58.878906 L 54.179688 45.9375 L 56.023438 45.9375 Z M 59.714844 43.164062 C 59.714844 43.417969 59.625 43.636719 59.445312 43.816406 C 59.265625 44 59.046875 44.089844 58.792969 44.089844 L 23.714844 44.089844 C 23.460938 44.089844 23.246094 44 23.0625 43.816406 C 22.882812 43.636719 22.792969 43.417969 22.792969 43.164062 L 22.792969 24.675781 C 22.792969 24.417969 22.882812 24.199219 23.0625 24.019531 C 23.246094 23.839844 23.460938 23.75 23.714844 23.75 L 58.792969 23.75 C 59.046875 23.75 59.265625 23.839844 59.445312 24.019531 C 59.625 24.199219 59.714844 24.417969 59.714844 24.675781 Z M 59.714844 43.164062 " fill-opacity="1" fill-rule="nonzero"/></g><path fill="#050a30" d="M 30.179688 32.996094 L 26.484375 32.996094 L 26.484375 28.371094 L 24.640625 28.371094 L 24.640625 39.464844 L 26.484375 39.464844 L 26.484375 34.84375 L 30.179688 34.84375 L 30.179688 39.464844 L 32.023438 39.464844 L 32.023438 28.371094 L 30.179688 28.371094 Z M 30.179688 32.996094 " fill-opacity="1" fill-rule="nonzero"/><path fill="#050a30" d="M 33.871094 30.222656 L 36.640625 30.222656 L 36.640625 39.464844 L 38.484375 39.464844 L 38.484375 30.222656 L 41.253906 30.222656 L 41.253906 28.371094 L 33.871094 28.371094 Z M 33.871094 30.222656 " fill-opacity="1" fill-rule="nonzero"/><path fill="#050a30" d="M 54.179688 28.371094 L 52.332031 28.371094 L 52.332031 38.542969 C 52.332031 38.796875 52.421875 39.015625 52.601562 39.195312 C 52.78125 39.375 53 39.464844 53.253906 39.464844 L 57.871094 39.464844 L 57.871094 37.617188 L 54.179688 37.617188 Z M 54.179688 28.371094 " fill-opacity="1" fill-rule="nonzero"/><path fill="#050a30" d="M 49.917969 28.441406 C 49.742188 28.371094 49.566406 28.351562 49.382812 28.390625 C 49.199219 28.425781 49.042969 28.511719 48.910156 28.644531 L 46.792969 30.761719 L 44.675781 28.644531 C 44.546875 28.511719 44.386719 28.425781 44.203125 28.390625 C 44.019531 28.351562 43.84375 28.371094 43.671875 28.441406 C 43.5 28.515625 43.359375 28.628906 43.257812 28.78125 C 43.152344 28.9375 43.101562 29.109375 43.101562 29.296875 L 43.101562 39.464844 L 44.949219 39.464844 L 44.949219 31.527344 L 46.140625 32.722656 C 46.320312 32.902344 46.539062 32.996094 46.792969 32.996094 C 47.046875 32.996094 47.265625 32.902344 47.445312 32.722656 L 48.640625 31.527344 L 48.640625 39.464844 L 50.484375 39.464844 L 50.484375 29.296875 C 50.484375 29.109375 50.433594 28.9375 50.332031 28.78125 C 50.226562 28.628906 50.089844 28.515625 49.917969 28.441406 Z M 49.917969 28.441406 " fill-opacity="1" fill-rule="nonzero"/></svg>